<?xml version="1.0" encoding="utf-8"?>
<!-- Generator: Adobe Illustrator 16.0.0, SVG Export Plug-In . SVG Version: 6.00 Build 0)  -->
<!DOCTYPE svg PUBLIC "-//W3C//DTD SVG 1.1//EN" "http://www.w3.org/Graphics/SVG/1.1/DTD/svg11.dtd">
<svg version="1.1" xmlns="http://www.w3.org/2000/svg" xmlns:xlink="http://www.w3.org/1999/xlink" x="0px" y="0px" width="500px"
	 height="500px" viewBox="0 0 500 500" enable-background="new 0 0 500 500" xml:space="preserve">
<g id="Layer_1">
</g>
<g id="_x3C_torn_paper_x3E_">
	<path d="M350.283,394.416c-0.314,0.485-0.632,0.199-0.951-0.094c-0.304,0.271-0.611,0.366-0.923-0.09
		c-0.312,0.081-0.626-0.125-0.942-0.073c-0.317-0.3-0.638,0.079-0.959-0.059c-0.322,0.17-0.646,0.479-0.971-0.043
		c-0.325-0.388-0.652,0.986-0.979-0.027c-0.327-0.499-0.655,0.164-0.983-0.013c-0.327-0.213-0.655,0.001-0.983,0.003
		c-0.327-0.822-0.654,0.177-0.979,0.018c-0.326,0.437-0.65,0.8-0.973,0.033c-0.322,0.732-0.644,0.162-0.961,0.047
		c-0.318,0.26-0.634,0.306-0.946,0.062c-0.312-0.189-0.622,0.43-0.927,0.077c-0.306-0.349-0.607,0.023-0.904,0.091
		c-0.297,0.776-0.59-0.001-0.877,0.105c-0.287,0.159-0.569-0.734-0.846,0.12c-0.276-0.072-0.547,0.577-0.812,0.134
		c-0.242,0.138-0.485-0.213-0.729,0.146c-0.244,0.612-0.49,0.018-0.737,0.174c-0.248-0.075-0.497-0.241-0.748,0.197
		c-0.251,0.259-0.503,0.494-0.758,0.217c-0.255,0.635-0.512,0.372-0.771,0.23c-0.26-0.396-0.521,0.812-0.784,0.239
		c-0.282-0.221-0.564,0.039-0.848,0.26c-0.284-0.295-0.568-0.058-0.854,0.255c-0.285,0.318-0.572,0.396-0.859,0.244
		c-0.288-0.491-0.576,0.535-0.866,0.227c-0.289,0.935-0.58,0.479-0.871,0.203c-0.292,0.141-0.584-0.482-0.878,0.172
		c-0.293-0.89-0.588-0.642-0.884,0.136c-0.295,0.816-0.592,0.09-0.89,0.091c-0.297,2.323-0.596,0.689-0.896,0.042
		c-0.3-1.18-0.601,0.051-0.902-0.015c0-0.876-0.196-0.443-0.392-0.02c-0.196,0.165-0.393-0.259-0.393-0.019
		c0,0.32-0.037,1.65-0.074-0.386c-0.038,1.139-0.075-0.574-0.075-0.385c-0.08-0.073-0.173,0.238-0.278-1.155
		c-0.104-0.759-0.222-2.025-0.352-0.995c-0.129-0.399-0.27-0.977-0.423-0.846c-0.152,0.228-0.316-1.819-0.491-0.71
		c-0.176,0.228-0.361,0.809-0.559-0.586c-0.197-0.845-0.404-1.303-0.623-0.476c-0.218,0.672-0.445-0.762-0.684-0.376
		c-0.238,1.035-0.486-1.556-0.744-0.291c-0.257-0.521-0.524-0.915-0.801-0.217c-0.275-0.429-0.561-0.167-0.854-0.155
		c-0.294,1.155-0.597,0.479-0.907-0.107c-0.155,0.206-0.312-0.605-0.472-0.039c-0.159-0.123-0.321,0.057-0.484-0.031
		c-0.163,0.462-0.329,0.054-0.496,0.381c-0.168,0.081-0.337,0.027-0.508-0.429c-0.343-1.245-0.692-0.07-1.049-0.036
		c-0.258,0.052-0.519,0.16-0.78-0.026c-0.263-0.481-0.527-0.519-0.793-0.032c-0.266-0.063-0.533-0.401-0.802-0.043
		c-0.27,0.136-0.539-0.213-0.811-0.059c-0.314-0.724-0.625,0.385-0.932-0.086c-0.308-0.503-0.612-1.563-0.913-0.099
		c-0.302,0.077-0.601,0.996-0.897-0.11c-0.296-0.41-0.591,0.692-0.884-0.123c-0.292,1.196-0.583-0.799-0.873-0.134
		c-0.29,0.36-0.579-0.457-0.867-0.145c-0.288,0.641-0.575-0.549-0.863-0.154c-0.287-1.707-0.574-0.642-0.861-0.165
		c-0.288,0.118-0.576-0.389-0.864-0.174c-0.289-1.503-0.579-0.195-0.87-0.183c-0.291-0.938-0.584-0.903-0.878-0.191
		c-0.294-0.215-0.591-0.656-0.89-0.199c-0.299,0.658-0.6-1.007-0.903-0.206c-0.305,0.029-0.611,0.661-0.922-0.213
		c-0.189,1.02-0.385-0.712-0.586-0.155c-0.201-1.611-0.408-0.557-0.619-0.192c-0.211,0.476-0.428-1.366-0.647-0.221
		c-0.22-0.602-0.443,0.78-0.67-0.236c-0.295-0.077-0.6-1.177-0.91-0.321c-0.311,0.705-0.628-0.234-0.946-0.312
		c-0.318-0.396-0.639,0.435-0.956-0.272c-0.317,0.899-0.633,0.149-0.94-0.201c-0.308,1.21-0.609,0.188-0.898-0.099
		c-0.29,0.113-0.568-0.168-0.831,0.033c-0.263-0.063-0.51-0.011-0.737,0.197c-0.171-0.892-0.325,0.641-0.468,0.306
		c-0.143-0.851-0.273,1.501-0.396,0.453c-0.123,0.692-0.239-0.835-0.352,0.558c-0.113-1.938-0.223,0.294-0.334,0.618
		c-0.059-1.794-0.117-0.845-0.178,0.334c-0.06,0.588-0.12,2.229-0.183,0.332c-0.063,0.533-0.128,0.227-0.194,0.325
		c-0.066,0.475-0.137,1.128-0.209,0.312c-0.072-0.893-0.148,1.273-0.229,0.31c-0.08,0.082-0.165-0.707-0.254,0.258
		c-0.089,1.235-0.183-0.364-0.282,0.114c-0.1,0.572-0.205,0.853-0.316,0.346c-0.113-0.487-0.229,0.193-0.349,0.293
		c-0.12-0.598-0.243,0.331-0.369,0.066c-0.126,1.504-0.256,1.587-0.388-0.101c-0.133-0.915-0.268,0.239-0.404,0.39
		c-0.137,0.079-0.277-1.187-0.42,0.128c-0.142,0.044-0.287,0.489-0.434,0.104c-0.146-0.445-0.295,0.21-0.446-0.415
		c-0.15,0.305-0.304,0.279-0.457,0.597c-0.154-0.271-0.31-0.191-0.467-0.435c-0.157,0.035-0.315,0.238-0.476,0.576
		c-0.319-0.397-0.643,0.473-0.969,0.111c-0.326-0.491-0.654,0.029-0.983,0.092c-0.329,0.782-0.659-0.23-0.987,0.081
		c-0.302-0.087-0.6,0.799-0.89,0.073c-0.29-0.172-0.574-0.038-0.848,0.078c-0.273-1.6-0.538-0.777-0.789,0.093
		c-0.252,0.543-0.491-0.252-0.715,0.114c-0.27,0.021-0.539-0.112-0.808,0.155c-0.27-0.532-0.537,0.197-0.806,0.159
		c-0.268-0.292-0.535-0.832-0.803,0.161c-0.134-0.43-0.268,0.1-0.4,0.081c-0.134,0.239-0.267,0.308-0.4,0.081
		c-0.134,0.483-0.267,0.039-0.4,0.137c-0.133,0.102-0.267,0.21-0.399,0.026c-0.154,0.207-0.309-0.388-0.464,0.075
		c-0.154,0.156-0.31-0.155-0.464,0.114c-0.154-0.473-0.31,0.476-0.465-0.07c-0.155-0.085-0.311,0.025-0.467,0.259
		c-0.155-0.221-0.311,0.474-0.467,0.466c-0.155-0.152-0.312-0.567-0.468-0.28c-0.156-1.086-0.312-0.611-0.469-0.317
		c-0.156-0.518-0.313,1.002-0.47,0.5c-0.156,0.175-0.313-0.019-0.471,0.256c-0.157,0.686-0.314-0.408-0.472-0.08
		c-0.104,0.338-0.21,0.924-0.314,0.857c-0.105,0.336-0.21,0.431-0.315,0.337c-0.105,0.136-0.211,0.017-0.316-1.025
		c-0.158-0.15-0.315-0.358-0.474,0.122c-0.158-0.543-0.317,0.245-0.476,0.038c-0.158-0.567-0.317-0.466-0.477-0.255
		c-0.159,0.212-0.318,0.533-0.478,0.404c-0.318-0.636-0.638,0.425-0.958,0.139c-0.319-0.441-0.641,0.909-0.961,0.124
		c-0.322-1.303-0.644-0.351-0.967,0.109c-0.322,0.112-0.646,0.016-0.97,0.092c-0.324-0.044-0.649-0.567-0.975,0.074
		c-0.325-0.514-0.651,1.224-0.979,0.055c-0.327-0.505-0.654-0.653-0.983,0.033c-0.328,1.782-0.657-0.296-0.987,0.01
		c-0.33-0.959-0.66,0.781-0.992-0.015c-0.331-1.229-0.664-0.495-0.997-0.04c-0.333-0.374-0.666-0.152-1.001-0.068
		c0,0.804-0.209-0.21-0.419-0.034c-0.209-0.181-0.418,1.028-0.418-0.035c0,0.535-0.02-0.673-0.039-0.418
		c-0.019,1.196-0.038-1.7-0.038-0.418c-0.005-0.541-0.009-0.389-0.013-0.164c-0.256,0.833-0.514,0.478-0.774,0.202
		c-0.261-0.469-0.524-1.726-0.79,0.195c-0.266-1.122-0.533-0.658-0.803,0.188c-0.27-0.392-0.54-0.922-0.813,0.182
		c-0.272-0.246-0.547-0.556-0.823,0.177c-0.275-0.421-0.552-0.179-0.83,0.171c-0.277,0.488-0.557-0.006-0.836,0.167
		c-0.279-0.248-0.56-0.394-0.84,0.163c-0.279-0.291-0.561,0.779-0.841,0.16c-0.157,0.441-0.315-1.399-0.474,0.089
		c-0.157-0.82-0.314-0.423-0.473,0.089c-0.158,0.826-0.315,0.674-0.473,0.097c-0.157-0.153-0.314,0.04-0.471,0.079
		c-0.158,0.471-0.316,0.383-0.473-0.225c-0.157,0.317-0.314-0.45-0.47,0.4c-0.155-0.129-0.311,0.479-0.465,0.09
		c-0.154-0.325-0.308,0.005-0.461,0.084c-0.153,0.461-0.306,0.485-0.457,0.52c-0.151,0.06-0.302-0.026-0.452-0.347
		c-0.301-0.517-0.598,0.311-0.892,0.175c-0.294,0.378-0.585,0.084-0.872,0.177c-0.287,1.146-0.571,0.593-0.852,0.18
		c-0.281-0.433-0.558,2.789-0.831,0.185c-0.366,0.111-0.724,1.471-1.072,0.22c-0.349,1.024-0.688,1.438-1.022,0.161
		c-0.334-0.447-0.66,0.362-0.981,0.107c-0.32,0.306-0.636,1.019-0.946,0.057c-0.311,0.483-0.616,1.29-0.92,0.011
		c-0.303-1.147-0.602-0.416-0.899-0.032c-0.298,0.795-0.594-0.67-0.888-0.069c-0.295-0.497-0.589,1.809-0.884-0.104
		c-0.294,0.244-0.589,1.605-0.886-0.133c-0.296,0.126-0.595,0.406-0.896-0.158c-0.301-2.052-0.605-0.19-0.913-0.181
		c-0.309,0.325-0.621,0.402-0.938-0.197c0,0.421-0.168-0.083-0.393-0.086c-0.225,0.604-0.505-0.481-0.729-0.158
		c-0.225,1.522-0.393,1.948-0.393-0.086c-0.354-0.61-0.698-0.516-1.035-0.227c-0.338-0.104-0.668-0.745-0.992-0.211
		c-0.324,0.273-0.642,1.69-0.953-0.193c-0.312-1.817-0.618,1.665-0.921-0.171c-0.302,1.601-0.599,0.41-0.893-0.146
		c-0.293,0.895-0.583-0.379-0.87-0.116c-0.288-0.182-0.572,0.161-0.854-0.082c-0.283-0.794-0.563,1.1-0.844-0.045
		c-0.28,1.516-0.559,0.596-0.838-0.004c-0.278-0.214-0.558,1.169-0.838,0.04c-0.279-0.359-0.561-0.212-0.843,0.089
		c-0.142,0.698-0.283-0.789-0.426,0.063c-0.143-0.325-0.285-1.265-0.429,0.078c-0.144-0.947-0.288-0.36-0.433,0.252
		c-0.146,0.789-0.291,0.696-0.438-0.056c-0.146-0.016-0.295,0.605-0.443,0.553c-0.148,0.609-0.299-0.432-0.449-0.296
		c-0.15-0.436-0.303,0.287-0.456,0.328c-0.153-0.15-0.308,0.197-0.464-0.008c-0.156,0.145-0.312,0.3-0.472-0.044
		c-0.159-0.228-0.319-0.857-0.48,0.432c-0.162,0.149-0.325,0.362-0.491,0.379c-0.165,0.018-0.332-0.016-0.5,0.079
		c-0.351,1.45-0.682,2.139-0.996,0.483c-0.315-1.192-0.613,1.174-0.899,0.423c-0.285,0.429-0.558,0.031-0.82,0.367
		c-0.264,2.266-0.518-0.334-0.765,0.316c-0.248,0.895-0.49,0.25-0.729,0.27c-0.239-0.569-0.477-0.169-0.714,0.229
		c-0.238,1.062-0.478-0.122-0.721,0.192c-0.244,0.839-0.491-0.15-0.748,0.161c-0.256-0.613-0.52,0.674-0.795,0.135
		c-0.275-0.236-0.562-0.065-0.864,0.113c-0.302-1.662-0.619,0.347-0.954,0.096c-0.335-0.243-0.688-0.442-1.064,0.084
		c-0.082,0.357-0.166,0.67-0.25,0.371c-0.084-1.573-0.168,0.487-0.249,0.339c-0.106,1.516-0.21-0.515-0.302,0.417
		c-0.093,0.329-0.174,0.065-0.234,0.395c0,1.248-0.141,2.163-0.282,0.59c-0.142,1.698-0.282-0.532-0.282,0.589
		c0,0.062-0.248,0.986-0.495-0.427c-0.247-0.3-0.495-0.833-0.495-0.426c-0.215-0.965-0.434-0.843-0.655-0.529
		c-0.222-0.209-0.446,0.655-0.674-0.476c-0.228-1.95-0.457-1.12-0.688-0.422c-0.231-1.498-0.465,1.157-0.699-0.363
		c-0.234-0.937-0.47-0.556-0.706-0.305c-0.077-0.722-0.162-1.053-0.253,0.585c-0.09-0.502-0.185,1.826-0.282,0.551
		c-0.098-2.555-0.197,0.654-0.297,0.529c-0.104-0.185-0.206-2.188-0.303,0.544c-0.098,0.198-0.188,0.387-0.271,0.54
		c-0.082,0.805-0.155,0.638-0.217,0.554c0,1.269-0.113,0.579-0.226,0.7c-0.113,0.324-0.227,1.193-0.227,0.699
		c0,0.132-0.284-0.01-0.568-0.468c-0.283-0.758-0.567-2.491-0.567-0.468c-0.182,0.714-0.369,0.316-0.561-0.459
		c-0.192,0.205-0.389,0.639-0.59-0.475c-0.201,0.405-0.407,1.252-0.618-0.488c-0.211-1.103-0.426-1.674-0.646-0.501
		c-0.22,1.057-0.443-0.814-0.672-0.513c-0.229,1.457-0.461-0.486-0.697-0.521c-0.237-1.581-0.479,0.108-0.723-0.528
		c-0.245-1.702-0.494-1.977-0.747-0.535c-0.253,1.103-0.51,1.231-0.771-0.54c-0.261,0.19-0.525,1.303-0.793-0.542
		c-0.268-0.276-0.539-0.463-0.814-0.544c-0.275-1.146-0.554-1.265-0.836-0.543c-0.281,0.932-0.566-0.181-0.855-0.541
		c-0.288-0.324-0.58,0.123-0.875-0.537c-0.294-0.4-0.592-0.104-0.893-0.532c-0.301,0.143-0.604-0.226-0.911-0.525
		c-0.307,0.696-0.616-0.827-0.928-0.517c-0.312,0.751-0.627-0.103-0.944-0.507c-0.317-0.584-0.637,0.416-0.959-0.495
		c-0.322-0.929-0.646-0.896-0.974-0.48c-0.327-0.261-0.656,1.052-0.987-0.467c-0.279-0.227-0.556-0.186-0.831-0.368
		c-0.274-0.978-0.548-0.617-0.818-0.334c-0.271-1.383-0.541-0.546-0.809-0.301c-0.268-0.432-0.533,0.045-0.798-0.27
		c-0.264,0.807-0.526,0.792-0.788-0.237c-0.261-0.006-0.521-0.729-0.779-0.209c-0.155-0.134-0.311-0.655-0.465-0.111
		c-0.154,0.269-0.308,0.176-0.461-0.103c-0.153-0.398-0.307-0.347-0.459-0.13c-0.152-0.129-0.305-0.301-0.456-0.045
		c-0.151,0.158-0.304-0.632-0.455,0.245c-0.151-0.412-0.302-0.125-0.452-0.385c-0.101-0.211-0.2,0.039-0.301,0.297
		c-0.1-0.622-0.199,0.805-0.3,0.315c-0.1,0.283-0.199-0.435-0.299-0.719c-0.149-0.505-0.299-0.845-0.447-0.392
		c-0.149-0.324-0.298-0.188-0.446,0.316c-0.148,0.278-0.297-0.021-0.444-0.244c-0.148-0.224-0.296-0.374-0.444,0.198
		c-0.296,0.114-0.591-0.875-0.886-0.02c-0.295,1.045-0.59-1.199-0.884,0.005c-0.295,0.102-0.589-0.315-0.884,0.026
		c-0.294-0.569-0.589-0.593-0.884,0.047c-0.295-0.237-0.59,0.188-0.887,0.064c-0.295,1.328-0.592,0.745-0.89,0.079
		c-0.297-0.49-0.595,0.664-0.895,0.093c-0.299-0.524-0.599-0.617-0.9,0.103c-0.302,0.966-0.604,0.234-0.908,0.111
		c-0.305-0.182-0.61-0.838-0.917,0.118c-0.308-0.032-0.617,2-0.928,0.121c-0.292,1.112-0.586,0.459-0.881,0.115
		c-0.296,0.094-0.593,1.358-0.892,0.114c-0.3-1.901-0.601-0.389-0.903,0.112c-0.304,0.435-0.608-0.036-0.917,0.108
		c-0.308-1.077-0.618,0.16-0.932,0.103c-0.313,0.184-0.629,1.772-0.948,0.096c-0.319-1.152-0.641,0.271-0.967,0.086
		c-0.151-0.386-0.304-1.011-0.455,0.034c-0.152-0.771-0.305-0.01-0.458,0.026c-0.152-0.208-0.306,0.646-0.458-0.242
		c-0.153-0.572-0.307,0.419-0.461,0.275c-0.152,2.033-0.307-1.487-0.46,0.006c-0.153-0.243-0.308-0.346-0.462,0.005
		c-0.153-0.465-0.307-0.609-0.461-0.253c-0.154-0.104-0.309-0.39-0.463,0.245c-0.153-0.479-0.308,0.248-0.461-0.07
		c-0.154,0.257-0.309,0.06-0.463,0.047c-0.102-0.889-0.205,0.122-0.307,0.713c-0.104,0.035-0.205,0.147-0.308,0.052
		c-0.103,0.211-0.205-0.553-0.308-0.799c-0.102-0.332-0.204,0.949-0.307,0.335c-0.102-0.619-0.203-0.322-0.305,0.321
		c-0.103,0.23-0.204-0.271-0.306-0.697c-0.152,0.172-0.305,0.046-0.457-0.066c-0.151-0.111-0.304-0.209-0.455,0.021
		c-0.308-0.097-0.616,0.786-0.926-0.045c-0.31-0.503-0.62,0.502-0.93-0.042c-0.311-0.812-0.621,0.955-0.932-0.033
		c-0.312,0.117-0.622-0.457-0.933-0.021c-0.311,1.277-0.62-0.338-0.93-0.006c-0.31-0.878-0.619-0.076-0.927,0.016
		c-0.308-0.655-0.614,0.382-0.921,0.039c-0.307-1.376-0.611-0.139-0.914,0.069c-0.303-0.06-0.604,0.896-0.904,0.101
		c-0.3,0.746-0.598,1.031-0.894,0.139c-0.296-0.031-0.59,0.292-0.881,0.18c-0.294,0.689-0.586-0.145-0.874,0.242
		c-0.289,1.357-0.576,1.553-0.86,0.312c-0.284,0.187-0.565,0.354-0.846,0.372c-0.28-0.672-0.558-0.66-0.833,0.423
		c-0.275-1.36-0.549-0.457-0.821,0.466c-0.272-1.215-0.542,0.879-0.812,0.499c-0.268,0.587-0.535,0.588-0.801,0.522
		c-0.266-0.146-0.53,1.042-0.794,0.536c-0.252,0.513-0.503-0.247-0.755,0.462v-11.304h233v9.452
		C350.763,394.452,350.523,394.483,350.283,394.416z"/>
	<path d="M118.347,374.046c0.255-0.203,0.513-0.018,0.771-0.506c0.259-0.032,0.52-0.229,0.782-0.489
		c0.263,0.267,0.528,0.799,0.796-0.465c0.268,0.89,0.537-0.123,0.811-0.434c0.273-0.281,0.549,0.556,0.828-0.396
		c0.279,0.267,0.562-0.153,0.848-0.351c0.287-0.724,0.576-0.597,0.87-0.3c0.294,0.701,0.592-0.048,0.894-0.241
		c0.289-0.667,0.58-0.235,0.872-0.181c0.292-0.197,0.585,0.144,0.878-0.144c0.294,1.143,0.588-0.994,0.883-0.108
		c0.295-0.83,0.592-1.133,0.888-0.078c0.296,1.071,0.593,0.348,0.89-0.051c0.297-1.29,0.595,1.029,0.893-0.027
		c0.297,0.819,0.595-0.4,0.893-0.007c0.298,1.177,0.596,0.478,0.893,0.011c0.298-0.646,0.596-0.403,0.893,0.023
		c0.297-0.531,0.594,0.772,0.89,0.034c0.296-0.213,0.592-0.12,0.888,0.04c0.295,0.695,0.589,1.612,0.883,0.044
		c0.294-0.363,0.59,0.007,0.887,0.044c0.148-0.109,0.297-0.418,0.445,0.007c0.148-0.245,0.298-0.227,0.447,0.033
		c0.148-0.792,0.298,0.188,0.447-0.035c0.148,0.997,0.298-0.08,0.447,0.069c0.148-0.46,0.298,0.284,0.447,0.203
		c0.148,1.056,0.298-0.571,0.447-0.181c0.148,0.271,0.297,0.805,0.445,0.032c0.148-0.167,0.297,0.574,0.445-0.023
		c0.148,1.574,0.296-0.296,0.443-0.337c0.147,0.039,0.295-0.271,0.441,0.327c0.147-0.896,0.294,0.147,0.44,0.062
		c0.146,0.312,0.292,0.485,0.437-0.095c0.146,0.337,0.291-0.706,0.435-0.025c0.145,0.108,0.288,1.061,0.432-0.032
		c0.319-0.565,0.634,0.135,0.948-0.084c0.312,1.481,0.623-1.328,0.932-0.094c0.308-0.148,0.613-0.809,0.917-0.101
		c0.304-0.62,0.604,1.22,0.903-0.106c0.3,0.555,0.597,1.32,0.893-0.111c0.295-0.457,0.589-1.308,0.881-0.113
		c0.292-1.787,0.582,1.607,0.871-0.114c0.311-0.507,0.62-0.555,0.928-0.121c0.307,0.589,0.612-0.07,0.917-0.118
		c0.305,0.146,0.607-0.279,0.909-0.112c0.302-0.01,0.603-0.921,0.902-0.104c0.3-0.423,0.598-0.277,0.896-0.095
		c0.298-2.099,0.595-1.492,0.892-0.082c0.297-0.434,0.593-0.041,0.889-0.067c0.296,0.965,0.591-1.806,0.887-0.052
		c0.296-1.645,0.591-1.724,0.887-0.032c0.295-1.323,0.591-1.353,0.887-0.013c0.297,1.127,0.593-0.213,0.89,0.011
		c0.297-0.67,0.595-0.42,0.894,0.035c0.1,0.059,0.199,0.298,0.299,0.521s0.199,0.428,0.299,0.418c0.1-0.15,0.2-0.236,0.3-0.876
		c0.15-0.218,0.301-0.058,0.451,0.089c0.15,0.521,0.302-0.025,0.453,0.003c0.151,0.575,0.303-0.051,0.455,0.081
		c0.152-0.511,0.305-0.76,0.457,0.042c0.152,0.206,0.305-0.102,0.459-0.102c0.152-0.733,0.307-0.53,0.461,0.258
		c0.154-0.769,0.309,0.037,0.464-0.265c0.155-0.245,0.311-0.084,0.467,0.457c0.155,0.073,0.312,0.059,0.47,0.109
		c0.156,0.586,0.314,0.248,0.473,0.12c0.264-0.28,0.528,0.035,0.795,0.222c0.266-0.014,0.534,0.062,0.804,0.25
		c0.271,0.104,0.542-0.642,0.815,0.281c0.273,0.854,0.549-0.17,0.826,0.312c0.277-0.251,0.557-0.163,0.838,0.345
		c0.281,0.882,0.564,0.297,0.851,0.379c0.327-0.594,0.653,0.894,0.977,0.461c0.323,0.444,0.645-0.361,0.964,0.475
		c0.318-0.527,0.635-0.718,0.949,0.488c0.314,0.76,0.626,0.703,0.935,0.499c0.31,0.024,0.616,0.286,0.92,0.509
		c0.304-0.638,0.605,0.697,0.903,0.518c0.299,1.445,0.595-0.564,0.887,0.523c0.293,0.198,0.583-0.002,0.87,0.529
		c0.286,0.792,0.57,1.237,0.851,0.533c0.28,1.014,0.558,0.96,0.832,0.535c0.274,2.22,0.545,0.46,0.812,0.536
		c0.268,0.943,0.531-0.042,0.791,0.536c0.261-0.622,0.518,0.693,0.771,0.533c0.253-0.284,0.503,0.782,0.748,0.53
		c0.246,0.835,0.488,0.51,0.727,0.525c0.238-0.021,0.473-0.805,0.702,0.519c0.23,0.411,0.457-0.59,0.679,0.511
		c0.223,1.786,0.44-0.47,0.654,0.501c0.213,2.197,0.423-0.282,0.628,0.49c0.205-2.417,0.405,0.438,0.602,0.479
		c0.064,0.031,0.13,0.713,0.195-0.36c0.066-0.468,0.132-1.081,0.198-0.351c0.133,1.091,0.263-1.744,0.383-0.694
		c0.119-1.053,0.229-2.054,0.318-0.698c0.091,1.225,0.163-1.445,0.208-0.734c0-0.41,0.048,1.859,0.095-0.537
		c0.048,0.104,0.096-1.955,0.096-0.537c0-1.646,0.264,0.83,0.527,0.142c0.263-0.118,0.526,0.224,0.526,0.142
		c0.242,1.098,0.484,0.617,0.727,0.223c0.241,0.737,0.482-0.028,0.723,0.276c0.24,1.929,0.479-0.054,0.718,0.328
		c0.237,0.422,0.474-0.908,0.707,0.378c0.234,0.577,0.467,0.058,0.696,0.426c0.229,0.577,0.456,0.14,0.681,0.474
		c0.025,0.604,0.052-1.929,0.077-0.103c0.114-0.74,0.227,1.163,0.327-0.453c0.1,1.208,0.188,1.232,0.256-0.442
		c0-0.324,0.062,0.083,0.125-0.271c0.062-1.18,0.125-1.036,0.125-0.271c0-0.739,0.148-0.15,0.297-0.019
		c0.148-0.343,0.297,0.81,0.297-0.02c0.42-1.169,0.811,0.025,1.178-0.084c0.366-0.137,0.709-0.904,1.033-0.096
		c0.323,0.17,0.627,0.074,0.917-0.114c0.29-1.396,0.566-0.714,0.833-0.14c0.266,0.826,0.522-0.876,0.775-0.171
		c0.253-0.044,0.501,1.153,0.75-0.212c0.248-0.545,0.497-3.879,0.752-0.257c0.255,1.527,0.515,1.472,0.785-0.312
		c0.27-2.409,0.551,0.022,0.847-0.371c0.296-2.53,0.606,1.208,0.938-0.438c0.332,0.322,0.683-0.745,1.06-0.514
		c0.235,0.49,0.469,0.87,0.698,0.563c0.115-0.152,0.229-0.478,0.344-1.045c0.171,0.073,0.34,0.172,0.508,0.092
		c0.168-0.136,0.335-0.997,0.5-0.502c0.165,0.151,0.329,0.162,0.492,0.091c0.163,0.112,0.325,0.194,0.485-0.434
		c0.16,0.474,0.32,0.518,0.479-0.071c0.159,0.578,0.316-0.642,0.474-0.208c0.156-0.258,0.312,0.259,0.467-0.001
		c0.154-0.168,0.309-0.758,0.462-0.218c0.153-0.257,0.306-0.184,0.457-0.088c0.152-0.161,0.303-0.274,0.453-0.075
		c0.301,0.129,0.599,0.037,0.896-0.11c0.296-0.909,0.591,0.387,0.885-0.062c0.293-0.438,0.585-0.567,0.877-0.017
		c0.291,0.153,0.582-0.573,0.873,0.023c0.292-0.415,0.583-1.146,0.874,0.062c0.292,1.471,0.585,1.402,0.879,0.094
		c0.293-1.105,0.589-1.181,0.886,0.124c0.297,1.763,0.596,1.19,0.897,0.149c0.302,0.181,0.605,0.174,0.913,0.172
		c0.308,1.951,0.618,1.13,0.933,0.189c0.314,0.29,0.633-0.195,0.956,0.204c0.322,0.693,0.65,0.245,0.982,0.215
		c0-0.134,0.167,1.493,0.391,0.085c0.223-0.533,0.502-0.874,0.725,0.158c0.224,1.68,0.391,0.566,0.391,0.085
		c0.334-0.392,0.659-0.13,0.979,0.206c0.319-0.238,0.633-0.973,0.941,0.184c0.309-1.053,0.612-1.824,0.914,0.158
		c0.301-0.318,0.6-1.011,0.896,0.128c0.297-0.82,0.593,0.934,0.89,0.092c0.296-1.018,0.593-0.833,0.893,0.053
		c0.299-0.193,0.601,0.396,0.906,0.008c0.305-1.588,0.614-0.086,0.93-0.041c0.314-0.866,0.635-0.387,0.963-0.095
		c0.328,0.552,0.663-1.314,1.008-0.152c0.344,1.201,0.697-0.027,1.062-0.216c0.279-0.349,0.562-0.423,0.847-0.188
		c0.285-0.492,0.574,0.546,0.866-0.183c0.291,0.34,0.586,1.087,0.884-0.179c0.298-0.582,0.598,0.123,0.901-0.177
		c0.151-0.026,0.305,0.023,0.458,0.033c0.152,0.01,0.307,0.289,0.461-0.209c0.154-0.398,0.311,0.396,0.466-0.159
		c0.156,0.41,0.312-0.521,0.47-0.017c0.104,0.928,0.21,0.336,0.315,0.47c0.105-0.638,0.211-0.124,0.317-0.482
		c0.105,0.514,0.212-0.85,0.318-0.164c0.148-0.329,0.297-1.056,0.446-0.195c0.149,0.533,0.299-0.219,0.448,0.028
		c0.299-0.22,0.598,0.234,0.896-0.168c0.299,0.604,0.598,0.216,0.896-0.171c0.299,1.1,0.597-0.658,0.894-0.174
		c0.298,0.556,0.594-0.006,0.889-0.178c0.296,0.573,0.589,0.471,0.882-0.183c0.292,0.469,0.582,0.87,0.87-0.188
		c0.289,1.605,0.575-0.045,0.858-0.194c0.283,0.571,0.564-0.82,0.843-0.201c0.278-0.373,0.553-0.687,0.824-0.21
		c0.272-0.315,0.54,0.699,0.805-0.217c0.265-0.698,0.525,0.139,0.781-0.228c0-1.015,0.16-0.007,0.373-0.113
		c0.214,0.646,0.48-0.428,0.694-0.209c0.213-0.045,0.373,0.386,0.373-0.113c0,0.048-0.018,0.912-0.041,0.388
		c-0.023,0.056-0.052-0.669-0.075,0.722c-0.003,0.262-0.006,0.472-0.009,0.64c0.299-0.562,0.598,0.188,0.895,0.152
		c0.316-1.908,0.633-0.934,0.948,0.018c0.314,0.633,0.629,0.619,0.942-0.007c0.313-0.383,0.626-0.657,0.938-0.028
		c0.312,0.592,0.624-0.625,0.935-0.051c0.312,0.599,0.622,0.525,0.933-0.069c0.31-1.169,0.619-0.812,0.929-0.088
		c0.31,0.629,0.619-0.447,0.928-0.104c0.31-0.574,0.618,0.298,0.928-0.12c0.309,0.284,0.617,0.329,0.926-0.134
		c0.309,0.128,0.618-0.442,0.927-0.146c0.155-0.393,0.31-0.473,0.464-0.434c0.154-0.229,0.309-0.271,0.464,0.276
		c0.104,0.855,0.206,0.981,0.31,0.5c0.104-0.025,0.207-0.325,0.31-0.37c0.104,0.358,0.207-0.253,0.311-0.297
		c0.155-0.491,0.31-0.44,0.465-0.218c0.155-0.443,0.311-0.56,0.466,0.043c0.156-0.019,0.312,0.35,0.467,0.198
		c0.156,0.631,0.312,0.007,0.468-0.38c0.104,0.838,0.208,0.014,0.312,0.518c0.104,0.038,0.208-0.914,0.312-0.092
		c0.104,0.249,0.209,0.163,0.313-0.613c0.156-0.962,0.312,0.051,0.47-0.537c0.157,0.28,0.314,0.409,0.472,0.347
		c0.158-0.164,0.315-0.161,0.474,0.104c0.157-0.452,0.315,0.473,0.474-0.297c0.135-0.495,0.269-0.682,0.402-0.082
		c0.134-0.538,0.268-0.343,0.402-0.083c0.269,0.651,0.538,0.794,0.807-0.164c0.27-0.114,0.539-0.638,0.809-0.162
		c0.271-0.273,0.54-0.267,0.811-0.159c0.271,1.134,0.542-0.664,0.813-0.156c0.25,0.385,0.513,0.757,0.784-0.126
		c0.272-0.511,0.555,0.307,0.845-0.101c0.291-0.838,0.589-0.117,0.894-0.084c0.305-0.011,0.616,0.166,0.932-0.076
		c0.327-1.909,0.66,0.304,0.996-0.082c0.335,0.288,0.672-1.454,1.007-0.096c0.224-0.911,0.445-0.343,0.665-0.074
		c0.11,0.134,0.22,0.368,0.328-0.046c0.162-0.597,0.323,0.573,0.482-0.462c0.158-0.398,0.314,0.023,0.469,0.309
		c0.103-0.454,0.204-0.694,0.304,0.025c0.101,0.29,0.198,0.802,0.296,0.376c0.097,1.32,0.192,0.345,0.286-0.6
		c0.14,0.76,0.276-0.417,0.409,0.164c0.132,0.88,0.26,1.008,0.383-0.417c0.082,0.499,0.162-1.948,0.239-0.75
		c0.077-0.861,0.152,0.394,0.225-0.281c0.072-1.078,0.143,1.45,0.21,0.713c0.066,0.643,0.131-0.676,0.194,0.18
		c0.063-0.203,0.126,1.651,0.187-0.533c0.061,0.555,0.12,0.232,0.18,0.007c0.059,0.135,0.117,0.155,0.176-0.545
		c0.059,1.021,0.116,0.836,0.174-0.064c0.059,1.04,0.117,0.488,0.176-0.58c0.106-1.273,0.219,0.325,0.341-0.631
		c0.121-2.06,0.253-0.446,0.397-0.645c0.146-1.481,0.304-0.256,0.481-0.614c0.178,0.271,0.373-0.354,0.591-0.538
		c0.219-0.451,0.46-0.877,0.728-0.417c0.223-0.521,0.451,0.595,0.684-0.229c0.232-0.085,0.469,0.035,0.709-0.13
		c0.24-0.967,0.484-0.324,0.73-0.04c0.259,0.171,0.52,0.52,0.783,0.04c0.264-0.431,0.529,1.817,0.796,0.112
		c0.267,0.669,0.534,0.944,0.802,0.171c0.269-0.541,0.536,0.496,0.804,0.217c0.268-0.162,0.535,0.728,0.8,0.249
		c0.266-0.186,0.529,0.338,0.79,0.269c0.261,0.488,0.52,0.512,0.774,0.273c0.284-0.169,0.563,0.446,0.833,0.294
		c0.27-0.023,0.529,0.559,0.776,0.256c0.247-0.497,0.48-0.665,0.696,0.192c0.328-0.052,0.652-1.1,0.973,0.225
		c0.321-1.453,0.639,0.1,0.953,0.217c0.314,0.3,0.627,1.685,0.937,0.209c0.311,0.228,0.618-0.034,0.925,0.199
		c0.306,0.938,0.61,0.133,0.915,0.19c0.304-0.457,0.606,0.689,0.909,0.179c0.303,1.308,0.605,0.124,0.908,0.169
		c0.302,1.777,0.605-1.2,0.909,0.157c0.304,0.165,0.608-0.999,0.915,0.146c0.307,0.997,0.614,0.567,0.924,0.132
		c0.311,1.168,0.623,1.015,0.938,0.119c0.314,0.894,0.633,0.941,0.953,0.104c0.321,1.774,0.646-1.023,0.974,0.091
		c0.259,0.314,0.518-0.148,0.776,0.056c0.259-0.591,0.518,0.354,0.775,0.041c0.258,0.559,0.515-0.642,0.77,0.031
		c0.256-0.185,0.51,0.381,0.762,0.025c0.302-0.85,0.604,1.13,0.906,0.031c0.15-0.016,0.302-0.197,0.452-0.279
		c0.151-0.082,0.302-0.063,0.452,0.319c0.15-0.116,0.3-0.062,0.449,0.027c0.15-0.173,0.299,0.408,0.448,0.032
		c0.298,0.621,0.593,0.088,0.886,0.088c0.293,0.15,0.583,0.263,0.869,0.125c0.287-0.174,0.569,0.069,0.848,0.173
		c0.278,0.113,0.552,1.047,0.82,0.229c0.268-0.716,0.531-0.051,0.788,0.295c0.257-0.451,0.507,0.463,0.75,0.37
		c0.243-0.932,0.479-0.537,0.708,0.454c0.229,1.775,0.449-0.183,0.661,0.548c0.212,0.202,0.414-1.164,0.607,0.651
		c0.193,2.235,0.377,0.5,0.55,0.765c0.173-0.593,0.336,1.324,0.487,0.886c0.151,1.104,0.291-1.332,0.418,1.018
		c0.128-1.032,0.243,1.579,0.346,1.158c0.304-1.594,0.608,0.033,0.913-0.048c0.305-0.497,0.609-0.161,0.915-0.106
		c0.306,1.105,0.612-0.585,0.918-0.156c0.306-0.981,0.611-0.011,0.917-0.198c0.307-1.978,0.611-2.239,0.917-0.23
		c0.305-0.056,0.609,0.571,0.913-0.254c0.304-0.641,0.607-0.126,0.91-0.27c0.302-0.307,0.604-0.633,0.903-0.276
		c0.262-0.122,0.524-0.744,0.789-0.241c0.265,0.078,0.529-0.362,0.795-0.237c0.266-0.14,0.532-0.916,0.798-0.228
		c0.266-0.717,0.532-0.724,0.798-0.21c0.266,0.056,0.53,0.942,0.795-0.188c0.265-0.324,0.527-0.72,0.789-0.157
		c0.259,0.536,0.523,0.483,0.793-0.132c0.271,0.179,0.546,0.634,0.826-0.118c0.279-0.591,0.564-0.177,0.854-0.106
		c0.289-0.715,0.582,0.276,0.879-0.092c0.297,0.411,0.597,0.285,0.9-0.079c0.304,1.2,0.61-0.349,0.919-0.066
		c0.31-0.234,0.621-0.454,0.935-0.052c0.313,0.841,0.629,0.139,0.945-0.039c0.317,0.045,0.635,1.177,0.954-0.024
		c0.319-0.659,0.639,0.521,0.959-0.012c0.32-0.701,0.641,0.063,0.961,0.003c0.319,0.975,0.64,0.327,0.958,0.017
		c0.319,0.223,0.637,1.23,0.953,0.03c0.316,1.147,0.632-0.724,0.945,0.045c0.312-0.112,0.624-0.263,0.933,0.06
		c0.309-0.654,0.614-0.282,0.918,0.073c0.303,0.409,0.603-0.01,0.898,0.088c0.333,0.729,0.663,0.77,0.992,0.096
		c0.154-0.105,0.309-0.202,0.463-0.227v11.477H118v-9.449C118.115,374.428,118.231,374.222,118.347,374.046z"/>
</g>
</svg>
