<?xml version="1.0" encoding="utf-8"?>
<!-- Generator: Adobe Illustrator 16.0.0, SVG Export Plug-In . SVG Version: 6.00 Build 0)  -->
<!DOCTYPE svg PUBLIC "-//W3C//DTD SVG 1.1//EN" "http://www.w3.org/Graphics/SVG/1.1/DTD/svg11.dtd">
<svg version="1.1" xmlns="http://www.w3.org/2000/svg" xmlns:xlink="http://www.w3.org/1999/xlink" x="0px" y="0px" width="233px"
	 height="89px" viewBox="0 0 233 89" enable-background="new 0 0 233 89" xml:space="preserve">
<g id="Layer_1">
</g>
<g id="_x3C_torn_paper_x3E_">
	<path d="M232.537,8.617c-0.329,0.674-0.659,0.633-0.992-0.096c-0.296-0.098-0.596,0.321-0.898-0.088
		c-0.304-0.355-0.609-0.728-0.918-0.073c-0.309-0.322-0.62-0.172-0.933-0.06c-0.313-0.769-0.629,1.103-0.945-0.045
		c-0.316,1.2-0.634,0.192-0.953-0.03c-0.318,0.311-0.639,0.958-0.958-0.017c-0.32,0.061-0.641-0.704-0.961-0.003
		c-0.32,0.533-0.64-0.647-0.959,0.012c-0.319,1.201-0.637,0.069-0.954,0.024c-0.316,0.178-0.632,0.88-0.945,0.039
		c-0.313-0.402-0.625-0.183-0.935,0.052c-0.309-0.282-0.615,1.267-0.919,0.066c-0.304,0.364-0.604,0.49-0.9,0.079
		c-0.297,0.368-0.59-0.623-0.879,0.092c-0.289-0.07-0.574-0.484-0.854,0.106c-0.28,0.752-0.556,0.297-0.826,0.118
		c-0.27,0.615-0.534,0.668-0.793,0.132c-0.262-0.562-0.524-0.167-0.789,0.157c-0.265,1.13-0.529,0.243-0.795,0.188
		c-0.266-0.514-0.532-0.507-0.798,0.21c-0.266-0.688-0.532,0.088-0.798,0.228c-0.266-0.125-0.53,0.315-0.795,0.237
		c-0.265-0.503-0.527,0.119-0.789,0.241c-0.3-0.356-0.602-0.03-0.903,0.276c-0.303,0.144-0.606-0.371-0.91,0.27
		c-0.304,0.825-0.608,0.198-0.913,0.254c-0.306-2.009-0.61-1.747-0.917,0.23c-0.306,0.188-0.611-0.783-0.917,0.198
		c-0.306-0.429-0.612,1.262-0.918,0.156c-0.306-0.055-0.61-0.391-0.915,0.106c-0.305,0.081-0.609-1.546-0.913,0.048
		c-0.103,0.421-0.218-2.19-0.346-1.158c-0.127-2.35-0.267,0.087-0.418-1.018c-0.151,0.438-0.314-1.479-0.487-0.886
		c-0.173-0.265-0.356,1.471-0.55-0.765c-0.193-1.815-0.396-0.449-0.607-0.651c-0.212-0.73-0.433,1.228-0.661-0.548
		c-0.229-0.991-0.465-1.386-0.708-0.454c-0.243,0.093-0.493-0.821-0.75-0.37c-0.257-0.346-0.521-1.011-0.788-0.295
		c-0.269,0.818-0.542-0.115-0.82-0.229c-0.278-0.104-0.561-0.347-0.848-0.173c-0.286,0.138-0.576,0.025-0.869-0.125
		c-0.293,0-0.588,0.533-0.886-0.088c-0.149,0.376-0.298-0.205-0.448-0.032c-0.149-0.09-0.299-0.144-0.449-0.027
		c-0.15-0.383-0.301-0.401-0.452-0.319c-0.15,0.082-0.302,0.264-0.452,0.279c-0.303,1.099-0.604-0.881-0.906-0.031
		c-0.252,0.355-0.506-0.21-0.762-0.025c-0.255-0.673-0.512,0.527-0.77-0.031c-0.258,0.312-0.517-0.632-0.775-0.041
		c-0.259-0.204-0.518,0.259-0.776-0.056c-0.328-1.114-0.652,1.684-0.974-0.091c-0.32,0.837-0.639,0.789-0.953-0.104
		c-0.314,0.896-0.627,1.049-0.938-0.119c-0.31,0.436-0.617,0.865-0.924-0.132c-0.307-1.145-0.611,0.02-0.915-0.146
		c-0.304-1.357-0.607,1.62-0.909-0.157c-0.303-0.045-0.605,1.139-0.908-0.169c-0.303,0.511-0.605-0.636-0.909-0.179
		c-0.305-0.058-0.609,0.747-0.915-0.19c-0.307-0.233-0.614,0.028-0.925-0.199c-0.31,1.476-0.622,0.091-0.937-0.209
		c-0.314-0.117-0.632-1.67-0.953-0.217c-0.32-1.324-0.645-0.276-0.973-0.225c-0.216-0.857-0.449-0.689-0.696-0.192
		c-0.247,0.303-0.507-0.279-0.776-0.256c-0.27,0.152-0.549-0.463-0.833-0.294c-0.255,0.238-0.514,0.215-0.774-0.273
		c-0.261,0.069-0.524-0.454-0.79-0.269c-0.265,0.479-0.532-0.411-0.8-0.249c-0.268,0.279-0.535-0.758-0.804-0.217
		c-0.268,0.773-0.535,0.498-0.802-0.171c-0.267,1.705-0.532-0.543-0.796-0.112c-0.264,0.479-0.524,0.131-0.783-0.04
		c-0.246-0.284-0.49-0.927-0.73,0.04c-0.24,0.165-0.477,0.045-0.709,0.13c-0.232,0.824-0.461-0.291-0.684,0.229
		c-0.268-0.46-0.509-0.034-0.728,0.417c-0.218,0.185-0.413,0.81-0.591,0.538c-0.178,0.358-0.336-0.867-0.481,0.614
		c-0.145,0.198-0.276-1.415-0.397,0.645c-0.122,0.956-0.234-0.643-0.341,0.631c-0.059,1.068-0.117,1.62-0.176,0.58
		c-0.058,0.9-0.115,1.085-0.174,0.064c-0.059,0.7-0.117,0.68-0.176,0.545c-0.06,0.226-0.119,0.548-0.18-0.007
		c-0.061,2.185-0.123,0.33-0.187,0.533c-0.063-0.855-0.128,0.463-0.194-0.18c-0.067,0.737-0.138-1.791-0.21-0.713
		c-0.072,0.675-0.147-0.58-0.225,0.281c-0.077-1.198-0.157,1.249-0.239,0.75c-0.123,1.425-0.251,1.297-0.383,0.417
		c-0.133-0.581-0.27,0.596-0.409-0.164c-0.094,0.944-0.189,1.92-0.286,0.6c-0.098,0.426-0.195-0.086-0.296-0.376
		c-0.1-0.72-0.201-0.479-0.304-0.025c-0.154-0.285-0.311-0.707-0.469-0.309c-0.159,1.035-0.32-0.135-0.482,0.462
		c-0.108,0.414-0.218,0.18-0.328,0.046c-0.22-0.269-0.441-0.837-0.665,0.074c-0.335-1.358-0.672,0.384-1.007,0.096
		c-0.336,0.386-0.669-1.827-0.996,0.082c-0.315,0.242-0.627,0.065-0.932,0.076c-0.305-0.033-0.603-0.754-0.894,0.084
		c-0.29,0.407-0.572-0.41-0.845,0.101c-0.271,0.883-0.534,0.511-0.784,0.126c-0.271-0.508-0.542,1.29-0.813,0.156
		c-0.271-0.107-0.54-0.114-0.811,0.159c-0.27-0.476-0.539,0.048-0.809,0.162c-0.269,0.958-0.538,0.815-0.807,0.164
		c-0.135-0.26-0.269-0.455-0.402,0.083c-0.134-0.6-0.268-0.413-0.402,0.082c-0.158,0.77-0.316-0.155-0.474,0.297
		c-0.158-0.265-0.315-0.268-0.474-0.104c-0.157,0.062-0.314-0.066-0.472-0.347c-0.157,0.588-0.313-0.425-0.47,0.537
		c-0.104,0.776-0.209,0.862-0.313,0.613c-0.104-0.822-0.208,0.13-0.312,0.092c-0.104-0.504-0.208,0.32-0.312-0.518
		c-0.155,0.387-0.312,1.011-0.468,0.38c-0.155,0.151-0.311-0.217-0.467-0.198c-0.155-0.603-0.311-0.486-0.466-0.043
		c-0.155-0.223-0.31-0.273-0.465,0.218c-0.104,0.044-0.207,0.655-0.311,0.297c-0.103,0.045-0.206,0.345-0.31,0.37
		c-0.104,0.481-0.206,0.355-0.31-0.5c-0.155-0.548-0.31-0.506-0.464-0.276c-0.154-0.039-0.309,0.041-0.464,0.434
		c-0.309-0.296-0.618,0.274-0.927,0.146c-0.309,0.463-0.617,0.418-0.926,0.134c-0.31,0.418-0.618-0.454-0.928,0.12
		c-0.309-0.343-0.618,0.733-0.928,0.104c-0.31-0.724-0.619-1.081-0.929,0.088c-0.311,0.595-0.621,0.668-0.933,0.069
		c-0.311-0.574-0.622,0.643-0.935,0.051c-0.312-0.629-0.625-0.354-0.938,0.028c-0.313,0.626-0.628,0.64-0.942,0.007
		c-0.315-0.951-0.632-1.926-0.948-0.018c-0.297,0.036-0.596-0.715-0.895-0.152c0.003-0.168,0.006-0.378,0.009-0.64
		c0.023-1.391,0.052-0.666,0.075-0.722c0.023,0.524,0.041-0.34,0.041-0.388c0,0.499-0.16,0.068-0.373,0.113
		c-0.214-0.219-0.48,0.855-0.694,0.209c-0.213,0.106-0.373-0.901-0.373,0.113c-0.256,0.366-0.517-0.471-0.781,0.228
		c-0.265,0.916-0.532-0.099-0.805,0.217c-0.271-0.477-0.546-0.163-0.824,0.21c-0.278-0.619-0.56,0.772-0.843,0.201
		c-0.283,0.149-0.569,1.8-0.858,0.194c-0.288,1.059-0.578,0.657-0.87,0.188c-0.293,0.653-0.586,0.756-0.882,0.183
		c-0.295,0.172-0.591,0.733-0.889,0.178c-0.297-0.484-0.595,1.273-0.894,0.174c-0.299,0.387-0.598,0.775-0.896,0.171
		c-0.299,0.402-0.598-0.052-0.896,0.168c-0.149-0.247-0.299,0.505-0.448-0.028c-0.149-0.86-0.298-0.134-0.446,0.195
		c-0.106-0.686-0.213,0.678-0.318,0.164c-0.106,0.358-0.212-0.155-0.317,0.482c-0.105-0.134-0.211,0.458-0.315-0.47
		c-0.157-0.505-0.313,0.427-0.47,0.017c-0.155,0.556-0.312-0.239-0.466,0.159c-0.154,0.498-0.309,0.219-0.461,0.209
		c-0.153-0.01-0.307-0.06-0.458-0.033c-0.304,0.3-0.604-0.405-0.901,0.177c-0.298,1.266-0.593,0.519-0.884,0.179
		c-0.292,0.729-0.581-0.31-0.866,0.183c-0.285-0.234-0.567-0.16-0.847,0.188c-0.364,0.188-0.718,1.417-1.062,0.216
		c-0.345-1.162-0.68,0.704-1.008,0.152c-0.328-0.292-0.648-0.771-0.963,0.095c-0.315-0.045-0.625-1.547-0.93,0.041
		c-0.306,0.389-0.607-0.201-0.906-0.008c-0.3-0.886-0.597-1.07-0.893-0.053c-0.297,0.842-0.593-0.912-0.89-0.092
		c-0.297-1.139-0.596-0.446-0.896-0.128c-0.302-1.982-0.605-1.211-0.914-0.158c-0.309-1.156-0.622-0.422-0.941-0.184
		c-0.319-0.336-0.645-0.598-0.979-0.206c0,0.481-0.167,1.595-0.391-0.085c-0.223-1.032-0.502-0.691-0.725-0.158
		c-0.224,1.408-0.391-0.219-0.391-0.085c-0.332,0.03-0.66,0.479-0.982-0.215c-0.323-0.399-0.642,0.086-0.956-0.204
		c-0.314,0.94-0.625,1.762-0.933-0.189c-0.308,0.002-0.611,0.009-0.913-0.172c-0.302,1.041-0.601,1.613-0.897-0.149
		c-0.297-1.305-0.593-1.229-0.886-0.124c-0.294,1.309-0.587,1.377-0.879-0.094c-0.291-1.207-0.582-0.477-0.874-0.062
		c-0.291-0.597-0.582,0.13-0.873-0.023c-0.292-0.551-0.584-0.422-0.877,0.017c-0.294,0.448-0.589-0.848-0.885,0.062
		c-0.297,0.147-0.595,0.239-0.896,0.11c-0.15-0.199-0.301-0.086-0.453,0.075c-0.151-0.096-0.304-0.169-0.457,0.088
		c-0.153-0.54-0.308,0.05-0.462,0.218c-0.155,0.26-0.311-0.257-0.467,0.001c-0.157-0.434-0.314,0.786-0.474,0.208
		c-0.158,0.589-0.318,0.545-0.479,0.071c-0.16,0.628-0.322,0.546-0.485,0.434c-0.163,0.071-0.327,0.061-0.492-0.091
		c-0.165-0.495-0.332,0.366-0.5,0.502c-0.168,0.08-0.337-0.019-0.508-0.092c-0.114,0.567-0.229,0.893-0.344,1.045
		c-0.229,0.307-0.463-0.073-0.698-0.563c-0.377-0.231-0.728,0.836-1.06,0.514c-0.331,1.646-0.642-2.092-0.938,0.438
		c-0.296,0.394-0.577-2.038-0.847,0.371c-0.271,1.783-0.53,1.839-0.785,0.312c-0.255-3.622-0.504-0.288-0.752,0.257
		c-0.249,1.365-0.497,0.168-0.75,0.212c-0.253-0.705-0.51,0.997-0.775,0.171c-0.267-0.574-0.543-1.257-0.833,0.14
		c-0.29,0.188-0.594,0.284-0.917,0.114c-0.324-0.809-0.667-0.041-1.033,0.096c-0.367,0.109-0.758-1.085-1.178,0.084
		c0,0.829-0.148-0.323-0.297,0.02c-0.148-0.132-0.297-0.721-0.297,0.019c0-0.766-0.062-0.909-0.125,0.271
		c-0.062,0.354-0.125-0.054-0.125,0.271c-0.068,1.675-0.156,1.65-0.256,0.442c-0.101,1.616-0.213-0.287-0.327,0.453
		c-0.025-1.826-0.052,0.706-0.077,0.103c-0.225-0.334-0.451,0.104-0.681-0.474c-0.229-0.368-0.462,0.151-0.696-0.426
		c-0.233-1.286-0.47,0.044-0.707-0.378c-0.238-0.382-0.478,1.601-0.718-0.328c-0.24-0.305-0.481,0.461-0.723-0.276
		c-0.242,0.395-0.484,0.875-0.727-0.223c0,0.082-0.264-0.26-0.526-0.142c-0.264,0.688-0.527-1.788-0.527-0.142
		c0-1.418-0.048,0.642-0.096,0.537c-0.047,2.396-0.095,0.127-0.095,0.537c-0.045-0.711-0.117,1.959-0.208,0.734
		c-0.09-1.355-0.199-0.354-0.318,0.698c-0.12-1.05-0.25,1.785-0.383,0.694c-0.066-0.73-0.132-0.117-0.198,0.351
		c-0.065,1.073-0.131,0.392-0.195,0.36c-0.196-0.041-0.396-2.896-0.602-0.479c-0.205-0.772-0.415,1.707-0.628-0.49
		c-0.214-0.971-0.432,1.285-0.654-0.501c-0.222-1.101-0.448-0.1-0.679-0.511c-0.229-1.323-0.464-0.539-0.702-0.519
		c-0.238-0.016-0.48,0.31-0.727-0.525c-0.245,0.252-0.495-0.814-0.748-0.53c-0.254,0.16-0.511-1.155-0.771-0.533
		c-0.26-0.578-0.523,0.407-0.791-0.536c-0.268-0.076-0.538,1.684-0.812-0.536c-0.274,0.425-0.552,0.479-0.832-0.535
		c-0.28,0.704-0.564,0.259-0.851-0.533c-0.287-0.531-0.577-0.331-0.87-0.529c-0.292-1.088-0.588,0.922-0.887-0.523
		c-0.298,0.18-0.6-1.155-0.903-0.518c-0.304-0.223-0.61-0.484-0.92-0.509c-0.309,0.204-0.62,0.261-0.935-0.499
		c-0.314-1.206-0.631-1.016-0.949-0.488c-0.319-0.836-0.641-0.03-0.964-0.475c-0.323,0.433-0.649-1.055-0.977-0.461
		c-0.286-0.082-0.569,0.503-0.851-0.379c-0.281-0.508-0.561-0.596-0.838-0.345c-0.277-0.481-0.553,0.542-0.826-0.312
		c-0.273-0.923-0.545-0.178-0.815-0.281c-0.27-0.188-0.538-0.264-0.804-0.25c-0.267-0.187-0.531-0.502-0.795-0.222
		c-0.158,0.128-0.316,0.466-0.473-0.12c-0.157-0.051-0.314-0.036-0.47-0.109c-0.156-0.541-0.312-0.702-0.467-0.457
		c-0.155,0.302-0.31-0.504-0.464,0.265c-0.154-0.788-0.309-0.991-0.461-0.258c-0.154,0-0.307,0.308-0.459,0.102
		c-0.152-0.802-0.305-0.553-0.457-0.042c-0.152-0.132-0.304,0.494-0.455-0.081c-0.151-0.028-0.303,0.519-0.453-0.003
		c-0.15-0.146-0.301-0.307-0.451-0.089c-0.1,0.64-0.2,0.726-0.3,0.876c-0.1,0.01-0.199-0.195-0.299-0.418s-0.199-0.462-0.299-0.521
		c-0.299-0.455-0.597-0.705-0.894-0.035c-0.297-0.224-0.593,1.116-0.89-0.011c-0.296-1.34-0.592-1.311-0.887,0.013
		c-0.296-1.691-0.591-1.612-0.887,0.032c-0.296-1.754-0.591,1.017-0.887,0.052c-0.296,0.026-0.592-0.366-0.889,0.067
		c-0.297-1.41-0.594-2.017-0.892,0.082c-0.299-0.183-0.597-0.328-0.896,0.095c-0.3-0.817-0.601,0.094-0.902,0.104
		c-0.302-0.167-0.604,0.258-0.909,0.112c-0.305,0.048-0.61,0.707-0.917,0.118c-0.308-0.434-0.617-0.386-0.928,0.121
		c-0.289,1.722-0.579-1.673-0.871,0.114c-0.292-1.194-0.586-0.344-0.881,0.113c-0.296,1.432-0.593,0.666-0.893,0.111
		c-0.299,1.326-0.6-0.514-0.903,0.106C27.166,5.34,26.86,6,26.553,6.148c-0.309-1.234-0.619,1.575-0.932,0.094
		c-0.314,0.219-0.629-0.481-0.948,0.084c-0.144,1.093-0.287,0.141-0.432,0.032c-0.144-0.681-0.289,0.362-0.435,0.025
		c-0.145,0.58-0.291,0.407-0.437,0.095c-0.146,0.085-0.293-0.959-0.44-0.062c-0.146-0.599-0.294-0.288-0.441-0.327
		C22.341,6.13,22.193,8,22.045,6.426c-0.148,0.598-0.297-0.144-0.445,0.023c-0.148,0.772-0.297,0.239-0.445-0.032
		c-0.149-0.391-0.299,1.236-0.447,0.181c-0.149,0.081-0.299-0.663-0.447-0.203c-0.149-0.149-0.299,0.928-0.447-0.069
		c-0.149,0.224-0.299-0.757-0.447,0.035c-0.149-0.26-0.299-0.278-0.447-0.033c-0.148-0.425-0.297-0.116-0.445-0.007
		c-0.297-0.037-0.593-0.407-0.887-0.044c-0.294,1.568-0.588,0.651-0.883-0.044c-0.296-0.16-0.592-0.253-0.888-0.04
		c-0.296,0.738-0.593-0.565-0.89-0.034c-0.297-0.427-0.595-0.67-0.893-0.023c-0.297,0.467-0.595,1.166-0.893-0.011
		c-0.298-0.394-0.596,0.826-0.893,0.007c-0.298,1.057-0.596-1.263-0.893,0.027c-0.297,0.398-0.594,1.122-0.89,0.051
		C10.17,5.154,9.873,5.457,9.578,6.287C9.283,5.401,8.989,7.538,8.695,6.396C8.402,6.683,8.109,6.342,7.817,6.539
		C7.525,6.484,7.234,6.053,6.945,6.72c-0.302,0.193-0.6,0.942-0.894,0.241c-0.294-0.297-0.583-0.424-0.87,0.3
		C4.896,7.458,4.613,7.878,4.334,7.611C4.055,8.563,3.779,7.727,3.506,8.008C3.232,8.318,2.963,9.331,2.695,8.441
		C2.428,9.705,2.162,9.173,1.899,8.906c-0.263,0.26-0.523,0.457-0.782,0.489C0.859,9.884,0.602,9.698,0.347,9.901
		C0.231,10.077,0.115,10.283,0,10.418v69.897c0.251-0.709,0.503,0.051,0.755-0.462c0.264,0.506,0.528-0.683,0.794-0.536
		c0.266,0.065,0.533,0.064,0.801-0.522c0.27,0.38,0.539-1.714,0.812-0.499c0.272-0.923,0.546-1.826,0.821-0.466
		c0.275-1.083,0.553-1.095,0.833-0.423c0.28-0.019,0.562-0.186,0.846-0.372c0.284,1.241,0.571,1.046,0.86-0.312
		c0.288-0.387,0.58,0.447,0.874-0.242c0.291,0.112,0.585-0.211,0.881-0.18c0.296,0.893,0.594,0.607,0.894-0.139
		c0.3,0.796,0.602-0.16,0.904-0.101c0.303-0.208,0.607-1.445,0.914-0.069c0.307,0.343,0.613-0.694,0.921-0.039
		c0.308-0.092,0.617-0.894,0.927-0.016c0.31-0.332,0.619,1.283,0.93,0.006c0.311-0.436,0.621,0.139,0.933,0.021
		c0.311,0.988,0.621-0.779,0.932,0.033c0.31,0.544,0.62-0.461,0.93,0.042c0.31,0.831,0.618-0.052,0.926,0.045
		c0.151-0.23,0.304-0.133,0.455-0.021c0.152,0.112,0.305,0.238,0.457,0.066c0.102,0.427,0.203,0.928,0.306,0.697
		c0.102-0.644,0.203-0.94,0.305-0.321c0.103,0.614,0.205-0.667,0.307-0.335c0.103,0.246,0.205,1.01,0.308,0.799
		c0.103,0.096,0.204-0.017,0.308-0.052c0.102-0.591,0.205-1.602,0.307-0.713c0.154,0.013,0.309,0.21,0.463-0.047
		c0.153,0.318,0.308-0.409,0.461,0.07c0.154-0.635,0.309-0.349,0.463-0.245c0.154-0.356,0.308-0.212,0.461,0.253
		c0.154-0.351,0.309-0.248,0.462-0.005c0.153-1.493,0.308,2.027,0.46-0.006c0.154,0.144,0.308-0.848,0.461-0.275
		c0.152,0.888,0.306,0.034,0.458,0.242c0.153-0.036,0.306-0.797,0.458-0.026c0.151-1.045,0.304-0.42,0.455-0.034
		c0.326,0.185,0.647-1.238,0.967-0.086c0.319,1.677,0.635,0.088,0.948-0.096c0.313,0.058,0.624-1.18,0.932-0.103
		c0.309-0.145,0.613,0.326,0.917-0.108c0.303-0.501,0.604-2.014,0.903-0.112c0.299,1.244,0.596-0.021,0.892-0.114
		c0.295,0.344,0.589,0.997,0.881-0.115c0.311,1.879,0.62-0.153,0.928-0.121c0.307-0.956,0.612-0.3,0.917-0.118
		c0.304,0.123,0.606,0.854,0.908-0.111c0.302-0.72,0.602-0.627,0.9-0.103c0.3,0.571,0.598-0.583,0.895-0.093
		c0.298,0.666,0.595,1.249,0.89-0.079c0.297,0.124,0.592-0.302,0.887-0.064c0.295-0.64,0.59-0.616,0.884-0.047
		c0.295-0.342,0.589,0.075,0.884-0.026c0.294-1.204,0.589,1.04,0.884-0.005c0.295-0.855,0.59,0.134,0.886,0.02
		c0.148-0.572,0.296-0.422,0.444-0.198c0.147,0.224,0.296,0.522,0.444,0.244c0.148-0.504,0.297-0.641,0.446-0.316
		c0.148-0.453,0.298-0.113,0.447,0.392c0.1,0.284,0.199,1.002,0.299,0.719c0.101,0.489,0.2-0.938,0.3-0.315
		c0.101-0.258,0.2-0.508,0.301-0.297c0.15,0.26,0.301-0.027,0.452,0.385c0.151-0.877,0.304-0.087,0.455-0.245
		c0.151-0.256,0.304-0.084,0.456,0.045c0.152-0.217,0.306-0.269,0.459,0.13c0.153,0.278,0.307,0.371,0.461,0.103
		c0.154-0.544,0.31-0.022,0.465,0.111c0.259-0.52,0.519,0.203,0.779,0.209c0.262,1.029,0.524,1.044,0.788,0.237
		c0.265,0.314,0.53-0.162,0.798,0.27c0.268-0.245,0.537-1.082,0.809,0.301c0.271-0.283,0.544-0.644,0.818,0.334
		c0.275,0.183,0.552,0.142,0.831,0.368c0.331,1.519,0.66,0.206,0.987,0.467c0.327-0.415,0.651-0.448,0.974,0.48
		c0.322,0.911,0.642-0.089,0.959,0.495c0.317,0.404,0.632,1.258,0.944,0.507c0.312-0.311,0.621,1.213,0.928,0.517
		c0.307,0.3,0.61,0.668,0.911,0.525c0.301,0.428,0.599,0.132,0.893,0.532c0.295,0.66,0.587,0.213,0.875,0.537
		c0.289,0.36,0.574,1.473,0.855,0.541c0.282-0.722,0.561-0.603,0.836,0.543c0.275,0.081,0.547,0.268,0.814,0.544
		c0.268,1.845,0.532,0.732,0.793,0.542c0.261,1.771,0.518,1.643,0.771,0.54c0.253-1.441,0.502-1.167,0.747,0.535
		c0.244,0.637,0.485-1.053,0.723,0.528c0.236,0.035,0.469,1.979,0.697,0.521c0.229-0.302,0.452,1.569,0.672,0.513
		c0.22-1.173,0.435-0.602,0.646,0.501c0.211,1.74,0.417,0.894,0.618,0.488c0.201,1.113,0.397,0.68,0.59,0.475
		c0.191,0.775,0.379,1.173,0.561,0.459c0-2.023,0.284-0.29,0.567,0.468c0.284,0.458,0.568,0.6,0.568,0.468
		c0,0.494,0.113-0.375,0.227-0.699c0.112-0.121,0.226,0.568,0.226-0.7c0.062,0.084,0.135,0.251,0.217-0.554
		c0.083-0.153,0.174-0.342,0.271-0.54c0.097-2.731,0.198-0.729,0.303-0.544c0.1,0.125,0.199-3.084,0.297-0.529
		c0.098,1.275,0.192-1.053,0.282-0.551c0.091-1.638,0.176-1.307,0.253-0.585c0.236-0.251,0.472-0.632,0.706,0.305
		c0.234,1.521,0.468-1.135,0.699,0.363c0.231-0.698,0.461-1.528,0.688,0.422c0.228,1.131,0.452,0.267,0.674,0.476
		c0.222-0.313,0.44-0.436,0.655,0.529c0-0.407,0.248,0.126,0.495,0.426c0.247,1.413,0.495,0.488,0.495,0.427
		c0-1.121,0.141,1.109,0.282-0.589c0.142,1.573,0.282,0.658,0.282-0.59c0.061-0.329,0.142-0.065,0.234-0.395
		c0.092-0.932,0.195,1.099,0.302-0.417c0.081,0.148,0.165-1.912,0.249-0.339c0.084,0.299,0.168-0.014,0.25-0.371
		c0.376-0.526,0.729-0.327,1.064-0.084c0.335,0.251,0.652-1.758,0.954-0.096c0.302-0.179,0.589-0.35,0.864-0.113
		c0.275,0.539,0.539-0.748,0.795-0.135c0.257-0.312,0.504,0.678,0.748-0.161c0.243-0.314,0.482,0.869,0.721-0.192
		c0.237-0.398,0.475-0.799,0.714-0.229c0.239-0.02,0.481,0.625,0.729-0.27c0.247-0.65,0.501,1.949,0.765-0.316
		c0.263-0.336,0.535,0.062,0.82-0.367c0.286,0.751,0.584-1.615,0.899-0.423c0.314,1.655,0.646,0.967,0.996-0.483
		c0.168-0.095,0.335-0.062,0.5-0.079c0.166-0.017,0.329-0.229,0.491-0.379c0.161-1.289,0.321-0.659,0.48-0.432
		c0.159,0.344,0.315,0.188,0.472,0.044c0.156,0.205,0.311-0.143,0.464,0.008c0.153-0.041,0.306-0.764,0.456-0.328
		c0.15-0.136,0.301,0.905,0.449,0.296c0.148,0.053,0.297-0.568,0.443-0.553c0.146,0.752,0.292,0.845,0.438,0.056
		c0.145-0.612,0.289-1.199,0.433-0.252c0.144-1.343,0.286-0.403,0.429-0.078c0.143-0.853,0.284,0.635,0.426-0.063
		c0.282-0.301,0.563-0.448,0.843-0.089c0.28,1.129,0.56-0.254,0.838-0.04c0.279,0.6,0.558,1.52,0.838,0.004
		c0.28,1.145,0.561-0.749,0.844,0.045c0.282,0.243,0.566-0.1,0.854,0.082c0.287-0.263,0.577,1.011,0.87,0.116
		c0.294,0.556,0.591,1.746,0.893,0.146c0.303,1.836,0.608-1.646,0.921,0.171c0.312,1.884,0.629,0.467,0.953,0.193
		c0.324-0.534,0.654,0.107,0.992,0.211c0.337-0.289,0.682-0.384,1.035,0.227c0,2.034,0.168,1.608,0.393,0.086
		c0.225-0.323,0.505,0.763,0.729,0.158c0.225,0.003,0.393,0.507,0.393,0.086c0.317,0.6,0.63,0.522,0.938,0.197
		c0.308-0.01,0.612-1.871,0.913,0.181c0.301,0.564,0.6,0.284,0.896,0.158c0.297,1.738,0.592,0.377,0.886,0.133
		c0.295,1.912,0.589-0.394,0.884,0.104c0.294-0.601,0.59,0.864,0.888,0.069c0.298-0.384,0.597-1.115,0.899,0.032
		c0.304,1.279,0.609,0.473,0.92-0.011c0.311,0.962,0.626,0.249,0.946-0.057c0.321,0.255,0.647-0.555,0.981-0.107
		c0.334,1.276,0.674,0.863,1.022-0.161c0.349,1.251,0.706-0.108,1.072-0.22c0.273,2.604,0.55-0.617,0.831-0.185
		c0.28,0.413,0.564,0.966,0.852-0.18c0.287-0.093,0.578,0.201,0.872-0.177c0.294,0.136,0.591-0.691,0.892-0.175
		c0.15,0.32,0.301,0.406,0.452,0.347c0.151-0.034,0.304-0.059,0.457-0.52c0.153-0.079,0.307-0.409,0.461-0.084
		c0.154,0.389,0.31-0.219,0.465-0.09c0.155-0.851,0.312-0.083,0.47-0.4c0.156,0.607,0.314,0.695,0.473,0.225
		c0.156-0.039,0.313-0.232,0.471-0.079c0.157,0.577,0.314,0.729,0.473-0.097c0.158-0.512,0.315-0.909,0.473-0.089
		c0.158-1.488,0.316,0.353,0.474-0.089c0.28,0.619,0.562-0.451,0.841-0.16c0.28-0.557,0.561-0.411,0.84-0.163
		c0.279-0.173,0.559,0.321,0.836-0.167c0.278-0.35,0.555-0.592,0.83-0.171c0.276-0.732,0.551-0.423,0.823-0.177
		c0.273-1.104,0.544-0.573,0.813-0.182c0.27-0.846,0.537-1.31,0.803-0.188c0.266-1.921,0.529-0.664,0.79-0.195
		c0.261,0.275,0.519,0.631,0.774-0.202c0.004-0.225,0.008-0.377,0.013,0.164c0-1.282,0.02,1.614,0.038,0.418
		c0.02-0.255,0.039,0.953,0.039,0.418c0,1.063,0.209-0.146,0.418,0.035c0.21-0.176,0.419,0.838,0.419,0.034
		c0.335-0.084,0.668-0.306,1.001,0.068c0.333-0.455,0.666-1.188,0.997,0.04c0.332,0.796,0.662-0.944,0.992,0.015
		c0.33-0.306,0.659,1.772,0.987-0.01c0.329-0.687,0.656-0.538,0.983-0.033c0.327,1.169,0.653-0.568,0.979-0.055
		c0.325-0.642,0.65-0.118,0.975-0.074c0.324-0.076,0.647,0.021,0.97-0.092c0.323-0.46,0.645-1.412,0.967-0.109
		c0.32,0.785,0.642-0.565,0.961-0.124c0.32,0.286,0.64-0.774,0.958-0.139c0.159,0.129,0.318-0.192,0.478-0.404
		c0.159-0.211,0.318-0.312,0.477,0.255c0.158,0.207,0.317-0.581,0.476-0.038c0.158-0.48,0.315-0.272,0.474-0.122
		c0.105,1.042,0.211,1.161,0.316,1.025c0.105,0.094,0.21-0.001,0.315-0.337c0.104,0.066,0.21-0.52,0.314-0.857
		c0.157-0.328,0.314,0.766,0.472,0.08c0.157-0.274,0.314-0.081,0.471-0.256c0.156,0.502,0.313-1.018,0.47-0.5
		c0.156-0.294,0.312-0.769,0.469,0.317c0.156-0.287,0.312,0.128,0.468,0.28c0.156,0.008,0.312-0.687,0.467-0.466
		c0.156-0.233,0.312-0.344,0.467-0.259c0.155,0.546,0.311-0.402,0.465,0.07c0.154-0.27,0.31,0.042,0.464-0.114
		c0.155-0.463,0.31,0.132,0.464-0.075c0.133,0.184,0.267,0.075,0.399-0.026c0.134-0.098,0.267,0.347,0.4-0.137
		c0.134,0.227,0.267,0.158,0.4-0.081c0.133,0.019,0.267-0.511,0.4-0.081c0.268-0.993,0.535-0.453,0.803-0.161
		c0.269,0.038,0.536-0.691,0.806-0.159c0.269-0.268,0.538-0.135,0.808-0.155c0.224-0.366,0.463,0.429,0.715-0.114
		c0.251-0.87,0.516-1.692,0.789-0.093c0.273-0.116,0.558-0.25,0.848-0.078c0.29,0.726,0.588-0.16,0.89-0.073
		c0.328-0.312,0.658,0.701,0.987-0.081c0.329-0.062,0.657-0.583,0.983-0.092c0.326,0.361,0.649-0.509,0.969-0.111
		c0.16-0.338,0.318-0.541,0.476-0.576c0.157,0.243,0.312,0.164,0.467,0.435c0.153-0.317,0.307-0.292,0.457-0.597
		c0.151,0.625,0.3-0.03,0.446,0.415c0.146,0.386,0.292-0.06,0.434-0.104c0.143-1.314,0.283-0.049,0.42-0.128
		c0.137-0.15,0.271-1.305,0.404-0.39c0.132,1.688,0.262,1.604,0.388,0.101c0.126,0.265,0.249-0.664,0.369-0.066
		c0.119-0.1,0.235-0.78,0.349-0.293c0.111,0.507,0.217,0.227,0.316-0.346c0.1-0.479,0.193,1.121,0.282-0.114
		c0.089-0.965,0.174-0.176,0.254-0.258c0.081,0.964,0.157-1.202,0.229-0.31c0.072,0.815,0.143,0.162,0.209-0.312
		c0.066-0.099,0.131,0.208,0.194-0.325c0.062,1.896,0.123,0.256,0.183-0.332c0.061-1.179,0.119-2.128,0.178-0.334
		c0.111-0.324,0.221-2.556,0.334-0.618c0.112-1.393,0.229,0.135,0.352-0.558c0.123,1.048,0.254-1.304,0.396-0.453
		c0.143,0.335,0.297-1.197,0.468-0.306c0.228-0.208,0.475-0.261,0.737-0.197c0.263-0.201,0.541,0.08,0.831-0.033
		c0.289,0.286,0.591,1.309,0.898,0.099c0.308,0.351,0.623,1.101,0.94,0.201c0.317,0.707,0.638-0.124,0.956,0.272
		c0.318,0.077,0.636,1.017,0.946,0.312c0.311-0.855,0.615,0.244,0.91,0.321c0.227,1.017,0.45-0.365,0.67,0.236
		c0.22-1.146,0.437,0.696,0.647,0.221c0.211-0.364,0.418-1.419,0.619,0.192c0.201-0.557,0.396,1.175,0.586,0.155
		c0.311,0.874,0.617,0.242,0.922,0.213c0.304-0.801,0.604,0.864,0.903,0.206c0.299-0.457,0.596-0.016,0.89,0.199
		c0.294-0.712,0.587-0.747,0.878,0.191c0.291-0.013,0.581-1.32,0.87,0.183c0.288-0.215,0.576,0.292,0.864,0.174
		c0.287-0.477,0.574-1.542,0.861,0.165c0.288-0.395,0.575,0.795,0.863,0.154c0.288-0.312,0.577,0.505,0.867,0.145
		c0.29-0.665,0.581,1.33,0.873,0.134c0.293,0.815,0.588-0.287,0.884,0.123c0.297,1.106,0.596,0.188,0.897,0.11
		c0.301-1.465,0.605-0.404,0.913,0.099c0.307,0.471,0.617-0.638,0.932,0.086c0.271-0.154,0.541,0.194,0.811,0.059
		c0.269-0.358,0.536-0.021,0.802,0.043c0.266-0.486,0.53-0.449,0.793,0.032c0.262,0.187,0.522,0.078,0.78,0.026
		c0.356-0.034,0.706-1.209,1.049,0.036c0.171,0.456,0.34,0.51,0.508,0.429c0.167-0.327,0.333,0.081,0.496-0.381
		c0.163,0.088,0.325-0.092,0.484,0.031c0.159-0.566,0.316,0.245,0.472,0.039c0.311,0.587,0.613,1.263,0.907,0.107
		c0.294-0.012,0.579-0.273,0.854,0.155c0.276-0.698,0.544-0.304,0.801,0.217c0.258-1.265,0.506,1.326,0.744,0.291
		c0.238-0.386,0.466,1.048,0.684,0.376c0.219-0.827,0.426-0.369,0.623,0.476c0.197,1.395,0.383,0.813,0.559,0.586
		c0.175-1.109,0.339,0.938,0.491,0.71c0.153-0.131,0.294,0.446,0.423,0.846c0.13-1.03,0.247,0.236,0.352,0.995
		c0.105,1.394,0.198,1.082,0.278,1.155c0-0.189,0.037,1.523,0.075,0.385c0.037,2.036,0.074,0.706,0.074,0.386
		c0-0.24,0.196,0.184,0.393,0.019c0.195-0.424,0.392-0.856,0.392,0.02c0.302,0.065,0.603-1.165,0.902,0.015
		c0.3,0.647,0.599,2.281,0.896-0.042c0.298-0.001,0.595,0.726,0.89-0.091c0.296-0.777,0.591-1.025,0.884-0.136
		c0.294-0.654,0.586-0.031,0.878-0.172c0.291,0.276,0.582,0.731,0.871-0.203c0.29,0.309,0.578-0.718,0.866-0.227
		c0.287,0.151,0.574,0.074,0.859-0.244c0.286-0.312,0.57-0.55,0.854-0.255c0.283-0.221,0.565-0.48,0.848-0.26
		c0.264,0.572,0.524-0.636,0.784-0.239c0.259,0.142,0.516,0.404,0.771-0.23c0.255,0.277,0.507,0.042,0.758-0.217
		c0.251-0.438,0.5-0.272,0.748-0.197c0.247-0.156,0.493,0.438,0.737-0.174c0.244-0.358,0.487-0.008,0.729-0.146
		c0.265,0.443,0.535-0.206,0.812-0.134c0.276-0.854,0.559,0.039,0.846-0.12c0.287-0.106,0.58,0.671,0.877-0.105
		c0.297-0.067,0.599-0.439,0.904-0.091c0.305,0.353,0.614-0.267,0.927-0.077c0.312,0.243,0.628,0.197,0.946-0.062
		c0.317,0.115,0.639,0.686,0.961-0.047c0.322,0.767,0.646,0.403,0.973-0.033c0.325,0.159,0.652-0.84,0.979-0.018
		c0.328-0.002,0.656-0.216,0.983-0.003c0.328,0.177,0.656-0.486,0.983,0.013c0.327,1.014,0.654-0.36,0.979,0.027
		c0.325,0.522,0.648,0.213,0.971,0.043c0.321,0.138,0.642-0.241,0.959,0.059c0.316-0.052,0.631,0.154,0.942,0.073
		c0.312,0.456,0.619,0.36,0.923,0.09c0.319,0.293,0.637,0.579,0.951,0.094c0.24,0.067,0.479,0.036,0.717,0.048V8.391
		C232.846,8.415,232.691,8.512,232.537,8.617z"/>
</g>
</svg>
