<svg xmlns="http://www.w3.org/2000/svg" width="500" height="2400"><path fill="#383333" d="M499.816 4.162c-.155-.335-.298-.112-.446-.082-.149-.096-.295.08-.447-.062-.136.584-.31-.498-.449-.044-.159-.419-.313-.569-.451-.03-.138.548-.297.184-.453-.016-.165-.65-.289.53-.453-.003-.142.42-.307-.196-.453.007-.138.602-.298.249-.453.016-.159-.324-.308-.197-.454.022-.156-.267-.291.399-.45.028-.153-.105-.303-.055-.451.03-.142.356-.28.825-.447.032-.154-.181-.3.01-.45.033-.077-.054-.155-.209-.226.008-.079-.122-.154-.111-.228.022-.084-.4-.148.1-.228-.013-.063.508-.151-.037-.226.041-.08-.232-.148.146-.226.107-.062.538-.157-.286-.229-.086-.071.14-.141.412-.225.021-.077-.084-.145.295-.228-.006-.057.8-.153-.148-.228-.167-.075.021-.153-.134-.221.171-.085-.453-.147.078-.224.037-.07.16-.143.25-.223-.043-.069.173-.156-.355-.222-.008-.071.057-.133.542-.219-.012-.169-.283-.32.076-.482-.031-.142.756-.332-.667-.475-.037-.157-.071-.32-.402-.467-.04-.162-.312-.293.626-.46-.044-.146.285-.287.678-.454-.046-.155-.229-.314-.657-.449-.048-.169-.904-.277.823-.443-.048-.164-.253-.321-.274-.473-.05-.148.303-.312-.029-.467-.05l-.464-.046c-.152-.002-.316-.461-.459-.043-.157-.211-.307-.134-.456-.037-.176-1.062-.32-.752-.454-.031-.155-.217-.302-.014-.452-.024-.139.493-.32-.91-.45-.016-.17-.832-.32-.868-.452-.007-.164-.668-.315-.68-.45.004-.138.576-.304-.101-.451.016-.159-.336-.307-.205-.453.028-.05.031-.098.153-.146.269-.047.114-.096.219-.146.216-.053-.075-.104-.118-.162-.441-.079-.109-.153-.026-.228.05-.07.267-.154-.01-.23.007-.07.294-.154-.022-.23.046-.083-.257-.163-.381-.231.027-.075.106-.156-.048-.234-.047-.087-.37-.162-.265-.231.137-.087-.389-.155.022-.238-.129-.082-.123-.158-.039-.232.237l-.236.062c-.072.299-.157.129-.239.066-.137-.139-.269.023-.401.121-.135-.003-.271.039-.404.137-.137.056-.283-.319-.411.152-.13.437-.281-.08-.416.168-.145-.125-.284.432-.421.693-.133.451-.284.156-.428.201-.174-.297-.321.462-.491.246-.159.229-.331-.684-.484-.256-.167-.264-.33-.357-.476.259-.151.39-.31-.144-.47-.243-.155.016-.309.152-.46.269-.162-.32-.3.361-.454.273-.135.737-.309-.28-.443.276-.146.104-.297.006-.436.279-.137.404-.275.635-.427.28-.131.519-.271 1.001-.416.789-.113 1.13-.271.239-.406.282-.125.481-.27-.016-.396.281-.139-.312-.255.357-.385.279-.132-.142-.247.404-.374.278-.115.427-.242.265-.363.274-.121-.008-.249-.402-.351.271-.112.213-.239-.293-.339.268-.093.91-.229-1.248-.327-.754-.082 1.119-.217-.139-.312.257-.133-1.226-.201.227-.3.25-.032.017-.058.363-.104-.181-.039-.237-.079-.548-.105-.176l-.201.668c-.073-.533-.141-1.041-.171-.352-.031.623-.099-.732-.114-.37-.004-.208-.003.944-.055-.272-.022.055-.07-.991-.054-.271-.02-.836-.124.426-.267.078-.135-.057-.265.628-.266.586-.11.561-.239.32-.366.121-.114.378-.245-.008-.364.149-.099.982-.244-.021-.359.175-.116.218-.252-.455-.355.2-.112.296-.236-.474-.349-.284-.11.297-.229.077-.34.249-.006.307-.049-.979-.041-.051-.066-.375-.101.593-.171-.227-.036.614-.081.628-.136-.222l-.066-.136c-.047-.592-.077-.518-.068-.129-.009-.376-.077-.075-.15-.006-.08-.173-.143.414-.151-.007-.227-.589-.411.022-.599-.028-.188-.066-.371-.452-.526-.037-.162.09-.317.045-.467-.048-.163-.706-.296-.355-.425-.062-.125.424-.275-.438-.396-.077-.129-.02-.239.591-.383-.099-.132-.273-.298-1.965-.385-.122-.112.778-.244.753-.402-.149-.165-1.22-.279.019-.434-.178-.181-1.282-.295.619-.481-.213-.166.168-.356-.37-.545-.248-.113.252-.228.447-.348.294-.06-.075-.122-.239-.188-.526-.085.039-.169.092-.257.053-.086-.067-.181-.503-.259-.25-.082.08-.165.086-.249.053-.081.059-.162.103-.251-.215-.076.242-.157.267-.244-.031-.074.296-.168-.321-.243-.1l-.236.004c-.081-.082-.166-.381-.237-.104-.082-.129-.158-.09-.233-.039-.079-.081-.158-.137-.231-.033-.15.068-.304.025-.456-.047-.161-.458-.296.204-.449-.021-.154-.22-.304-.281-.445.002-.147.081-.303-.284-.444.022-.152-.208-.31-.575-.443.041-.131.75-.28.719-.445.058-.16-.558-.312-.593-.447.073-.13.898-.289.612-.454.086-.151.096-.306.096-.462.099-.134.994-.301.581-.471.106-.157.151-.325-.092-.483.115-.156.355-.328.132-.497.121-.002-.068-.067.76-.197.047-.119-.268-.266-.438-.366.089-.095.856-.191.292-.197.048-.175-.195-.336-.059-.494.115-.166-.117-.333-.486-.477.104-.169-.53-.332-.919-.462.091-.157-.158-.316-.506-.454.076l-.451.057c-.162-.514-.311-.416-.452.037-.154-.095-.301.209-.461.015-.172-.804-.312-.036-.472-.011-.17-.436-.327-.188-.49-.037-.161.285-.353-.659-.514-.064-.161.613-.354-.006-.541-.098-.146-.174-.291-.209-.433-.086-.15-.246-.286.283-.442-.083-.144.176-.285.559-.45-.08-.159-.292-.303.069-.461-.079l-.232.021c-.077.007-.151.15-.235-.1-.084-.201-.153.203-.238-.076-.075.21-.166-.262-.239-.004-.043.473-.103.174-.154.243-.062-.322-.108-.061-.167-.241-.048.262-.118-.43-.164-.08-.079-.165-.162-.533-.229-.094-.07.271-.154-.107-.228.02-.154-.107-.301.125-.457-.074-.145.311-.301.115-.458-.077-.139.562-.311-.327-.455-.078-.146.286-.302.004-.453-.079-.145.295-.294.245-.45-.083-.143.241-.285.448-.444-.086-.128.819-.292-.017-.438-.089-.137.294-.296-.41-.43-.092-.146-.187-.289-.342-.422-.098-.142-.156-.266.361-.41-.101-.143-.352-.266.077-.4-.106-.012-.515-.081-.002-.19-.053-.101.33-.249-.212-.354-.099-.108-.021-.147-.196-.118.509l.011.325c-.158-.282-.302.103-.452.087-.183-.965-.332-.466-.481.021-.152.325-.312.321-.479.008-.163-.19-.325-.326-.477-.003l-.476-.016c-.151.307-.31.273-.476-.024-.169-.59-.323-.405-.472-.034-.15.323-.319-.22-.473-.042-.164-.288-.311.158-.472-.051-.154.147-.311.175-.473-.056-.155.068-.318-.219-.473-.064-.083-.198-.162-.236-.24-.215-.081-.115-.159-.135-.231.146-.043.436-.094.501-.152.257l-.161-.184c-.049.184-.107-.126-.161-.147-.084-.247-.163-.22-.239-.104-.083-.224-.163-.281-.235.027-.08-.008-.154.18-.234.105-.073.322-.159.008-.242-.188-.044.428-.106.01-.153.267-.053.021-.115-.462-.159-.043-.05.128-.104.085-.167-.308-.09-.487-.157.029-.244-.268-.077.145-.154.211-.236.182-.082-.082-.161-.078-.238.059-.086-.229-.155.242-.244-.146-.075-.249-.145-.342-.206-.037-.074-.271-.14-.17-.205-.037-.129.334-.264.41-.412-.073-.138-.056-.28-.317-.411-.073-.141-.136-.278-.129-.414-.072-.125.58-.282-.33-.415-.068-.123.197-.252.39-.399-.056-.145-.257-.277.162-.431-.041-.156-.423-.3-.053-.454-.032-.155-.002-.311.092-.475-.028-.188-.966-.331.161-.507-.03-.167.15-.357-.73-.512-.037-.124-.459-.23-.169-.34-.029-.054.068-.106.189-.166-.02-.09-.302-.158.295-.25-.229-.086-.201-.16.016-.234.161-.059-.229-.112-.35-.155.017-.047.148-.091.41-.146.195-.034.671-.093.177-.151-.302-.062.388-.146-.209-.207.088-.057.448-.12.515-.199-.208-.035.255-.105-.986-.13-.377-.049-.438-.072.201-.117-.141-.05-.547-.056.738-.099.364-.026.327-.074-.341-.096.093-.035-.102-.046.841-.102-.268-.024.282-.059.119-.091.006-.028.068-.059.08-.097-.275-.018.52-.048.426-.088-.031-.018.529-.055.25-.097-.291-.068-.646-.106.167-.181-.317-.085-1.044-.134-.224-.209-.323-.091-.75-.156-.125-.252-.306-.086.14-.192-.175-.307-.267-.116-.227-.243-.439-.374-.203-.119-.262-.222.308-.35-.107-.118-.041-.237.021-.361-.059-.134-.488-.25.349-.371.496-.13.09-.258.27-.397.029-.139-.215-.248.93-.402.066-.128.343-.261.485-.406.096-.143-.271-.267.258-.405.119-.138-.079-.263.377-.403.137-.137-.092-.265.178-.397.145-.127.252-.259.266-.391.148l-.42-.35c-.137-.008-.262.291-.391.14-.132-.249-.252-.333-.352.105-.168-.022-.345-.551-.491.126-.181-.734-.323.058-.482.121-.155.155-.299.862-.473.117l-.468.111c-.144.479-.308.074-.462.107-.16-.229-.3.357-.46.102-.139.668-.307.069-.459.096-.133.906-.321-.602-.459.09-.153.088-.322-.5-.464.086-.144.51-.306.295-.468.077-.145.597-.304.522-.475.071-.149.458-.311.485-.483.064-.143.904-.339-.513-.493.057-.128.163-.265-.069-.394.038-.138-.298-.259.186-.393.03-.124.286-.27-.32-.392.024-.132-.091-.254.199-.386.021-.164-.428-.294.581-.46.026-.077-.006-.156-.097-.233-.137s-.154-.028-.226.168c-.078-.058-.152-.029-.228.02-.079-.087-.147.21-.228.021-.144.319-.3.052-.448.056-.146.079-.294.14-.44.073-.148-.085-.288.042-.428.098-.141.062-.268.538-.415.126-.144-.361-.27-.021-.396.158-.135-.227-.252.241-.376.197-.134-.471-.25-.775-.355-.27-.094.904-.229-.088-.328.285-.106.105-.225-.586-.302.339-.071 1.137-.186.258-.27.395-.096-.3-.156-.34-.237-.561-.064.562-.164-.673-.2.521-.078-.522-.105.805-.163.592-.173-.806-.309.532-.464.494-.16-.248-.312-.583-.466-.551-.143.565-.318.726-.468.947-.167-.495-.311.001-.469-.09-.179-1.001-.336-1.13-.469-.106-.154-.025-.302.297-.466-.119-.162-.321-.31.451-.466.383-.156-.153-.313-.314-.462-.131-.134-.059-.274-.371-.403-.113-.134.043-.273-.178-.406-.111-.137-.068-.281-.459-.408-.105-.143-.361-.278-.362-.407-.098-.134.031-.258.484-.406-.086-.138-.162-.276-.36-.402-.07-.125.275-.26.251-.404-.059-.136.094-.27.328-.421-.051-.148-.297-.288-.082-.435-.043-.155-.361-.293.146-.448-.037-.146.213-.299.152-.458-.029-.14.612-.313-.17-.467-.023-.16-.115-.321-.223-.475-.016-.149.431-.318.078-.481-.009-.16.026-.309.604-.485-.001-.168-.331-.317.272-.486.005-.171-.353-.325.04-.488.013-.15.499-.32.174-.486.02-.159.117-.309.633-.483.026-.147.587-.329-.36-.48.034-.159-.053-.319-.127-.472.041-.165-.328-.315-.137-.466.047-.148.212-.306.002-.455.056-.161.374-.327.399-.503.061-.169-.109-.337-.208-.496.05-.175-.424-.332-.179-.49.041-.167-.15-.328-.104-.486.031-.169-.327-.319.11-.481.025-.157.156-.321-.01-.479.017-.145.685-.317.021-.477.012-.158.036-.323-.229-.477.007-.166-.365-.316.018-.476.001-.164-.253-.315.041-.477-.001-.161-.144-.32-.133-.477-.006-.157.133-.322-.087-.48-.006-.152.368-.311.441-.483-.007l-.4-.006c-.132.131-.273-.155-.405-.005-.122.592-.257.662-.41-.005-.127.429-.281-.341-.412-.003-.134.23-.288-.386-.42-.002-.141-.081-.268.543-.423.002-.153-.455-.272.594-.431.003-.146-.104-.29-.079-.436.007-.006.166-.013.311-.029.001-.138.407-.305-.415-.443.017-.17-.872-.296.202-.451.031-.151-.001-.297.275-.456.041-.151.038-.292.639-.459.051-.158-.16-.302.344-.464.06-.139.743-.315-.165-.465.066-.142.647-.305.352-.468.073-.164-.387-.303.432-.466.076-.165-.383-.291.924-.466.078-.151.18-.312-.041-.464.079-.163-.097-.308.656-.482.083-.16.034-.321.094-.483.082-.169-.324-.318.24-.483.078-.177-.631-.332-.332-.484.074-.097-.462-.183-.457-.266-.328l.009.768-.02-.023c-.162-.379-.321-.318-.476.057-.163-.395-.321-.372-.477.063-.163-.323-.318-.058-.477.068-.156.217-.318.056-.477.071-.156.32-.324-.552-.477.076-.156.146-.314.262-.475.076-.163-.373-.322-.422-.473.075-.158-.069-.317-.286-.469.073-.16-.481-.314-.331-.462.068-.151.256-.306.082-.458.064-.146.361-.307-.41-.452.059-.151-.186-.3-.1-.445.051-.148-.097-.291.32-.44.045-.148-.225-.289.209-.435.035-.139.37-.288-.068-.429.025-.144-.156-.274.68-.423.014-.163.117-.326.16-.49.003-.164-.253-.322.075-.482-.001-.169-.671-.315.31-.477-.006-.164-.445-.316-.143-.472-.008-.151.298-.312-.115-.464-.01-.148.384-.31-.127-.46-.01-.152-.005-.304-.062-.455-.013-.147.403-.307-.177-.456-.011l-.454-.011c-.155-.353-.295.534-.452-.009-.15-.026-.299.132-.451-.008-.146.233-.3.087-.45-.004-.148.138-.289.955-.45-.002-.155-.377-.299.152-.452.004-.159-.648-.312-.777-.454.008-.15.096-.301.279-.456.016-.157-.299-.31-.204-.462.02-.156-.229-.302.562-.464.028-.154.149-.305.646-.471.035l-.475.044c-.163-.244-.323-.098-.483.055-.156-.137-.312-.183-.469.051l-.478.043c-.159.154-.324-.037-.486.035-.165-.084-.332-.239-.493.028-.163.198-.337-.497-.497.019-.164.256-.334-.078-.5.014-.165.109-.332.004-.499.004-.161.42-.333-.085-.498-.002-.168-.22-.335-.402-.494-.012-.168-.369-.327-.078-.488-.018-.164-.13-.323-.151-.481-.025-.157.098-.318-.215-.471-.034-.153.18-.309-.009-.461-.04-.154-.393-.299.004-.445-.049-.146-.08-.284.377-.431-.056-.14.038-.281-.29-.412-.063-.124-.068-.245.111-.372-.068-.127-.311-.248-.006-.375-.084-.125.04-.251.125-.381-.096-.13-.131-.26-.248-.387-.105-.134-.321-.263-.186-.393-.112-.13.202-.27-.409-.4-.116-.142.113-.286-.018-.432-.128-.144.151-.289.032-.436-.124-.147-.16-.293-.197-.438-.118-.145.251-.297-.269-.442-.11-.152-.473-.297-.24-.444-.098-.148-.069-.293.757-.446.427-.144.453-.295.329-.449-.064-.155-.413-.302-.041-.452-.04-.166-1.18-.308-.348-.456-.016-.145.602-.306-.022-.458.013.005.444-.098.226-.198.012-.102-.083-.198-.373-.2-.495-.002-.163-.028-.838-.035.195-.027-.578-.035.292-.036.195-.039.039-.089-.119-.134.59-.049.386-.1 1.03-.173.508-.062.203-.131.497-.209.432-.078-.114-.149.926-.246.363-.09-.113-.188-.408-.279.301-.095.431-.197.665-.313.245-.114-.339-.222.391-.345.196-.128-.524-.238.793-.377.152-.127.266-.26.468-.405.115-.137.22-.283.088-.434.084-.155-.585-.306-.24-.459.06-.08-.104-.155.31-.239.022l-.246.02c-.086-.233-.167-.024-.255-.19-.086-.04-.172-.012-.255.221-.167.635-.351.04-.532.024-.132-.024-.266-.078-.396.019-.131.247-.265.267-.402.021-.135.033-.27.208-.407.026l-.411.035c-.155.369-.32-.7-.473-.459-.154.258-.302.798-.463.056-.154-.037-.312-.502-.456.062-.147.211-.305-.348-.448.068-.154-.605-.291.409-.442.074-.15-.183-.292.234-.439.077-.15-.323-.289.283-.438.084-.135.868-.288.329-.437.089-.147-.058-.291.201-.438.094-.139.766-.294.104-.44.098-.144.479-.292.463-.446.104-.147.111-.296.337-.45.106-.155-.333-.299.515-.457.11-.155-.014-.314-.332-.468.114-.102-.518-.19.363-.296.082-.093.819-.205.285-.313.102-.11-.241-.209.696-.328.116-.107.307-.229-.395-.338.123-.15.042-.298.603-.461.17-.162-.355-.317.123-.479.164-.16.203-.328-.218-.483.144-.168-.454-.323-.071-.478.108-.163-.613-.311-1.107-.455-.961-.148-.055-.288.09-.423-.012-.133.034-.259.01-.376-.096-.081.455-.169-.322-.239-.151-.067.433-.147-.761-.204-.229-.066-.351-.116.427-.182-.28-.046.984-.115-.148-.174-.312-.019.911-.055.43-.092-.168-.034-.299-.074-1.132-.096-.168-.035-.271-.065.901-.1.853-.037-.241-.077-.573-.108-.158-.032.454-.083-.646-.118-.155-.042-.042-.079.359-.131-.131-.053-.625-.09.188-.144-.055-.055-.291-.11-.432-.164-.174-.054.248-.117-.098-.179-.147-.058.305-.125-.166-.188-.032-.073-.762-.14-.803-.196.055-.062.466-.138-.119-.207-.195-.071-.039-.135.604-.215-.062-.072-.021-.148-.247-.221-.051-.072.227-.151-.104-.225.215l-.235-.301-.235.224c-.079-.018-.161-.119-.245-.29l-.491-.05c-.163.251-.334-.011-.5-.042-.173-.395-.335.122-.503-.034-.152.046-.309-.402-.452-.032-.146.09-.292.023-.432-.034-.128.813-.269.398-.4-.042-.131-.274-.248.131-.364-.053-.137-.01-.272.059-.411-.075-.134.272-.274-.097-.41-.075-.134.149-.267.426-.409-.078-.064.219-.137-.049-.203-.038-.069-.12-.138-.155-.204-.038-.071-.246-.137-.019-.205-.067-.067-.052-.136-.105-.202-.011-.079-.104-.154.199-.236-.035-.079-.079-.155.08-.236-.056-.075.241-.16-.239-.235.038-.079.045-.158-.011-.238-.129-.078.113-.161-.238-.24-.233-.078.079-.155.291-.236.146-.072.553-.154.312-.236.164l-.241-.251c-.081-.089-.159.012-.24-.128-.085-.346-.158.21-.239.044-.056-.171-.113-.468-.165-.433-.057-.17-.11-.218-.162-.17-.055-.068-.107-.007-.155.523-.079.076-.157.184-.241-.061-.077.277-.162-.122-.242-.016-.076.289-.157.238-.24.133-.082-.107-.165-.27-.244-.203-.158.326-.327-.212-.487-.064-.16.227-.332-.457-.489-.057-.156.664-.325.182-.492-.049-.165-.056-.327-.005-.493-.042-.165.024-.326.293-.495-.031-.163.263-.338-.617-.498-.022-.163.259-.327.337-.499-.011-.178-.903-.332.155-.502.001-.162.489-.341-.393-.504.014-.16.627-.335.256-.506.027-.167.191-.338.08-.509.041-.005-.408-.104.107-.212.02-.105.094-.219-.52-.212.021l-.018.212c-.017-.607-.009.864-.017.213l-.006.084c-.135-.422-.264-.24-.395-.098-.129.238-.255.879-.402-.096-.128.572-.267.338-.408-.09-.136.201-.27.473-.415-.087-.137.126-.274.285-.419-.085-.138.215-.279.094-.423-.082-.144-.246-.282.007-.426-.079-.141.128-.281.203-.427-.077-.142.148-.29-.394-.429-.077-.082-.223-.152.714-.241-.042-.075.418-.157.216-.241-.043-.085-.418-.164-.34-.24-.045-.079.078-.159-.019-.24-.039-.082-.237-.162-.191-.237.117-.083-.159-.158.231-.241-.199-.079.066-.161-.241-.237-.044-.076.167-.156 0-.234-.04-.08-.232-.159-.244-.235-.26-.077-.029-.153.016-.228.179-.149.265-.305-.154-.454-.083-.151-.189-.297-.04-.444-.086-.152-.58-.294-.297-.434-.085-.14.222-.301-1.413-.423-.089-.188-.055-.377-.742-.546-.104-.183-.519-.358-.726-.521-.075-.166.229-.337-.182-.499-.05-.164-.153-.329-.513-.481-.022-.16-.244-.32-.651-.467 0-.146.585-.304.215-.456.021-.157-.4-.298.344-.451.041-.146.254-.311-.914-.448.059-.15-.123-.31-.812-.449.072-.15-.062-.305-.203-.453.086-.142 1.044-.307.101-.464.098-.158-.164-.317-.201-.475.105-.003-.213-.085.044-.199.047-.118-.307-.254.247-.37.084-.123-.771-.211-.986-.198.047-.177.312-.352.266-.524.122-.171.054-.335.382-.503.112-.166-.137-.336-.855-.482.104l-.468.093c-.162-.812-.306-.205-.452.078-.153-.452-.294.196-.441.064-.145.095-.292-.078-.433.047-.14.405-.294-.555-.429.029-.151-.769-.287-.301-.426.006-.14.111-.29-.59-.426-.015-.14.184-.283.111-.428-.04-.077-.354-.14.402-.218-.029-.07.166-.137.644-.218-.037-.066.482-.145.185-.222-.125-.078-.4-.151-.353-.222.03l-.229-.278c-.079-.309-.149.222-.227.154-.073.221-.155-.145-.233-.164l-.235.007c-.081-.073-.161-.151-.239.024-.079.116-.157.438-.247-.217-.083-.074-.167-.181-.252-.189-.083-.008-.169.01-.254-.037-.187-.733-.36-1.082-.509-.239-.153.608-.319-.593-.46-.209-.147-.216-.283-.013-.419-.181-.147-1.149-.261.172-.391-.156-.132-.453-.251-.125-.372-.133-.118.291-.241.089-.364-.112-.128-.538-.242.064-.367-.093-.129-.425-.248.079-.381-.078-.126.313-.268-.339-.404-.062-.139.121-.285.036-.439-.053-.144.846-.316-.174-.485-.042-.169.125-.348.228-.541-.037-.044-.182-.089-.339-.13-.188-.032.801-.088-.246-.128-.17-.063-.77-.104.263-.155-.21l-.122-.199c-.009-.635-.085-.082-.147.719-.082-.863-.14.271-.146-.299 0-.03-.132-.498-.249.221-.124.154-.246.427-.249.219-.104.492-.216.432-.329.273-.111.107-.23-1.346-.34-.771-.103.993-.226.573-.347.22l-.354.189c-.113.477-.235.284-.356.159-.034.365-.076.535-.132-.296-.043.255-.105-.419-.146.23-.035 1.298-.104-.332-.155-.268-.052.095-.09 1.112-.156-.274l-.142-.273c-.046-.408-.083.186-.113.229-.008-.645-.061-.293-.119-.354-.06-.164-.122.41-.119.661-.001-.067-.145.007-.286.241-.139.387-.272.762-.284-.267-.098-.361-.191-1.175-.283-.78-.099-.102-.2-.321-.296.245-.104-.204-.215-.633-.312.253-.1.561-.206.852-.324.258-.119-.535-.221.416-.338.264-.125-.738-.231.251-.352.271-.111.804-.243-.054-.364.272-.113.865-.238 1.006-.376.276-.135-.559-.267-1.132-.388-.229-.133-.096-.275-.658-.4.28-.134.142-.271.238-.409.28-.133.584-.274.646-.422.281-.148-.471-.287.096-.431.281-.145.166-.296-.059-.441.278l-.45.274c-.154-.07-.306.119-.46.273-.159-.352-.308.424-.468.269-.164-.38-.317.056-.477.263-.157.299-.325-.207-.484.258-.157.475-.322.459-.49.249-.165.135-.341-.53-.5.243-.141.117-.28.098-.419.191-.134.499-.275.318-.414.176-.13.705-.271.281-.409.158-.133.221-.271-.02-.403.143-.139-.409-.271-.4-.398.124-.134.005-.261.374-.396.111-.078.069-.153.335-.234.06-.08-.135-.158-.088-.234.055-.074.203-.153.178-.232.068-.076.066-.151.154-.231.026-.077-.079-.149.321-.231-.122-.075.211-.153-.443-.228-.31-.051.107-.103-.019-.155-.149-.047.316-.105-.406-.153-.158-.053-.144-.1.222-.147.367-.073.257-.147.431-.226.202-.073.165-.149.097-.229-.159-.077-.141-.15.014-.224.128-.075.114-.148.19-.228-.099-.15-.057-.295.449-.449.016-.157-.529-.293.612-.449.004-.15-.051-.297.162-.449-.01-.146.291-.295.305-.449-.018-.147.123-.301-.092-.45-.027-.158-.672-.306-.375-.452-.035-.149.251-.307-.334-.456-.041-.148.268-.301.316-.458-.047-.159-.488-.309-.115-.462-.051-.153.094-.304.429-.466-.055-.157.019-.326-1.013-.472-.056-.155-.563-.301-.229-.449-.054-.15-.045-.31-.686-.453-.052-.141.968-.303.2-.459-.052-.157-.219-.309.022-.466-.05-.15.549-.315-.077-.474-.046-.161-.092-.331-.896-.482-.043-.155.588-.326-.134-.492-.038-.074.197-.147.515-.231-.015-.072.393-.154.007-.232-.01-.076.106-.16-.326-.231.125-.074.293-.159-.211-.236-.137-.089-1.032-.147.758-.233 0-.077.124-.155.178-.235 0-.075.237-.151.312-.232.132-.079.053-.155.199-.237-.122-.075.244-.158-.123-.233.039-.081-.13-.158-.028-.236-.021-.045.452-.105-.061-.16-.36-.053-.017-.105-.073-.157-.024-.054-.106-.101.282-.151.408-.05.169-.11-.48-.158-.168-.048.315-.101.164-.157-.162-.054-.115-.102.14-.152.357-.078-.088-.155-.023-.231.036-.077.057-.153.107-.231-.009-.156.051-.317-.395-.47.028-.155.258-.318-.251-.472.026-.153.415-.32.027-.472.531-.16-.057-.313.236-.474.017-.166-.646-.312.177-.473.009-.151.447-.314.043-.47-.002-.153.334-.314-.19-.468-.015-.146.701-.31.075-.464-.028-.154.031-.312-.453-.46-.047-.157-.377-.311-.52-.455-.064-.151.018-.302-.146-.45-.086-.152-.349-.296.077-.445-.117-.155-.688-.302-.786-.438-.153-.145-.093-.289-.177-.432-.185-.138.344-.279.339-.426-.209-.132.693-.275.235-.419-.232-.132.62-.281-.442-.416-.248-.14-.297-.276-.295-.41-.261-.134.077-.275-.526-.407-.267-.137-.27-.264.17-.403-.271-.122-.138-.245-.268-.367-.246-.127-.522-.246-.193-.37-.244-.123-.094-.248-.12-.373-.239-.122.161-.245.327-.378-.231-.125.047-.261-.746-.383-.22-.122.347-.266-.823-.388-.204-.126.254-.261-.052-.394-.186-.129.215-.266-.09-.401-.164-.128.525-.269.02-.408-.138-.143-.534-.28-.396-.416-.11-.166-.254-.323-.303-.47-.074-.152-.047-.304-.057-.438.494-.143-.024-.288-.734-.412.04-.132.134-.257.401-.388.081-.12.486-.251-.53-.37-.399-.127-.454-.242-.083-.357.13-.121-.225-.231.305-.349.141-.112.021-.224.021-.338.135-.111.344-.232-.047-.349.13-.124-.279-.251-.716-.367.113-.121.421-.257-.072-.39.09-.149-.434-.286.444-.44.072-.146.266-.302-.015-.457.055-.164-.815-.311.007-.469.038-.156.237-.313.449-.48.025-.16.054-.329-.441-.487.014-.159.352-.335-.589-.493.004-.166-.109-.329.021-.494-.006-.16.495-.324.447-.495-.011-.165-.116-.322.375-.49-.016-.164-.089-.323.117-.485-.02-.167-.418-.32.036-.478-.02l-.287-.014c-.091.306-.196-.593-.283-.012-.085.612-.189-.358-.277-.011-.145.325-.285 1.025-.445-.021-.15-.119-.294.217-.443-.031-.149-.123-.296-.111-.442-.039-.151-.434-.285.611-.438-.047-.152-.518-.287.326-.437-.051-.164-.121-.305.147-.452-.053-.146-.233-.291-.396-.43-.058-.138.371-.291-.46-.426-.059-.143-.108-.281.334-.429-.059-.139.359-.293-.554-.432-.058-.146-.159-.291-.155-.435-.054-.147-.11-.303-.898-.438-.052-.139.685-.288.448-.441-.047-.156-.614-.294.216-.446-.04-.157-.612-.293.438-.449-.033-.146.318-.304-.229-.452-.022-.153-.04-.309-.294-.458-.013-.151.105-.307-.051-.461-.002l-.014.001c-.155.005-.315-.56-.463.007-.157-.24-.309.057-.463.009-.15.333-.312-.206-.464.011-.148.541-.312-.336-.462.013-.161-.448-.306.388-.463.013-.144.908-.308.139-.463.016-.16-.359-.312-.354-.462.016-.155.041-.311-.137-.462.018-.149.319-.312-.4-.46.02-.147.503-.311-.244-.459.018-.158-.386-.31-.285-.459.019-.165-1.021-.315-.924-.457.021l-.456.02c-.149.206-.297.5-.454.021-.157-.438-.304-.097-.452.021-.108-.103-.211.231-.322.015-.106.121-.213.055-.322.014-.103.295-.212.216-.323.016-.081-.051-.148 1.047-.243.01-.074.529-.165-.219-.243.012-.082-.063-.159.241-.241.104-.079.313-.159.367-.246-.083-.082-.029-.162.088-.245-.162-.085-.262-.162.094-.242.182-.081.107-.17-.588-.246-.154-.083.021-.164.033-.244.176-.052.221-.108.022-.157.471-.052.272-.107.18-.164.025-.056-.198-.111-.127-.169-.479-.085-.34-.162.134-.249-.243-.083-.108-.162.128-.242.262-.087-.432-.161.33-.246-.005-.084-.167-.161.318-.247.021-.06-.445-.111-.238-.165-.117-.057-.079-.112-.209-.167-.199l-.161.332c-.048.517-.105.402-.161.315-.053.135-.105.368-.166-.054-.051.303-.108.1-.167-.249l-.163.15c-.053.087-.107.178-.163.185-.055.006-.11-.071-.168-.323-.173-.647-.338-.733-.494.009-.164.079-.332-.051-.495.008-.165.02-.333-.268-.495.005-.161.341-.336-.453-.495.003-.17-.416-.329.146-.495 0-.165-.002-.328.131-.495-.004-.171-.566-.328.119-.495-.005-.157-.833-.292.173-.44-.001-.148-.083-.292.125-.439.009-.146.026-.29.198-.438.017-.144.065-.29.027-.435.021-.139.453-.288.087-.433.025-.143.078-.288-.078-.43.031-.138.416-.286-.045-.426.032-.145-.231-.28.223-.423.035-.163.308-.333-.098-.497.04-.167-.079-.321.698-.493.038-.153.95-.324.292-.49.033-.167-.331-.326-.042-.487.027-.159.291-.324.058-.485.018-.166-.433-.323-.132-.482.009-.15.831-.321.008-.481-.004-.164-.362-.317.11-.479-.02-.156.254-.322-.242-.479-.036-.159-.001-.326-.646-.478-.054-.165-.399-.311.64-.479-.074-.157.207-.321-.287-.478-.097-.156.378-.316.188-.48-.122-.127-.193-.25-.162-.373-.117l-.373-.141c-.126-.249-.243.35-.374-.158-.128-.313-.247.18-.378-.173-.129-.288-.257-.3-.384-.181-.133-.139-.27-.592-.397-.186-.138-.422-.273-.67-.401-.182-.137-.207-.271-.137-.407-.172-.133.254-.273.006-.413-.154-.145-.541-.283-.46-.419-.131-.139.094-.288-.589-.424-.102-.15-.06-.305-.326-.452-.076-.152.084-.312-.461-.461-.055-.154.043-.313-.276-.466-.037-.15.6-.306.665-.473-.021-.159-.141-.319-.318-.473-.01-.158.153-.314.305-.475-.001-.158.11-.317-.036-.475.005-.158.073-.322-.526-.471.008-.141.018-.286-.375-.419.008-.142-.275-.276.002-.412.006l-.404.002-.398-.005c-.13.13-.258.308-.391-.013-.122.596-.249.763-.386-.023-.146.095-.303-.744-.441-.032-.151-.421-.292.052-.438-.026-.137.716-.284.6-.436-.025-.144.135-.283.553-.433-.023-.133.867-.289-.222-.43-.021-.144-.177-.289-.468-.424-.02-.161-.097-.322-.222-.478-.022-.154.453-.31.617-.475-.023-.154.305-.314.062-.474-.024-.146.802-.315-.208-.469-.028-.157.01-.306.512-.468-.033-.157-.05-.308.232-.467-.037-.158-.272-.31-.001-.464-.043-.157-.131-.315-.414-.464-.049-.158-.254-.317-.625-.464-.059-.159-.385-.31-.197-.463-.066-.153.034-.309-.078-.462-.078-.148.523-.312-.371-.463-.088-.155-.081-.303.499-.464-.102-.157-.275-.312-.32-.464-.113-.148.617-.31.029-.466-.127-.145.807-.318-.68-.467-.143-.15.689-.316-.133-.474-.145-.169-.911-.317-.143-.477-.13-.163-.403-.305.906-.477-.116-.156.234-.328-.831-.478-.104-.154.473-.327-.651-.48-.09-.164-.363-.312.592-.48-.076-.16.132-.312.716-.482-.066-.158.199-.315.498-.482-.055-.162.004-.316.486-.484-.044-.165-.347-.324-.151-.484-.034-.164-.176-.329-.43-.485-.024-.166-.33-.329-.498-.485-.015-.154.609-.328-.345-.485-.008-.157.422-.31 1.19-.486.002-.157.45-.315.711-.486.008-.149 1.111-.323.223-.486.014-.165-.178-.324-.037-.486.021-.161.146-.328-.316-.486.025-.164-.139-.334-.891-.485.031-.165-.18-.319.424-.486.036-.163-.081-.317.548-.484.038-.166-.256-.322.037-.485.044-.158.251-.315.552-.483.046-.154.572-.32.195-.482.047-.159.236-.32.137-.482.049-.16.127-.326-.342-.481.051-.161-.023-.318.17-.479.051-.153.244-.312.012-.468.049-.159-.207-.312.047-.469.049-.155.212-.319-.322-.472.049-.154.258-.318-.172-.473.047-.15.58-.324-.676-.474.045-.16-.067-.318-.141-.475.043-.166-.522-.327-.684-.476.041-.165-.422-.316.296-.479.036-.163-.325-.32-.175-.477.032-.149.865-.312.475-.478.027-.162-.082-.317.211-.479.021-.155.328-.318-.023-.478.018-.166-.57-.323-.332-.479.01-.161-.141-.315.189-.477.004-.151.463-.315-.238-.469-.005-.157.005-.319-.476-.47-.013-.158-.125-.312.131-.469-.023-.156.041-.318-.445-.469-.031-.16-.311-.312.021-.468-.039-.162-.453-.31.184-.469-.047-.162-.56-.313-.217-.467-.052-.155-.038-.304.532-.465-.061-.15.374-.307.251-.466-.063-.152.145-.31-.047-.464-.07-.164-.713-.31-.045-.464-.074-.155-.074-.298.829-.462-.077l-.461-.081c-.153.031-.294.998-.46-.084-.153-.039-.3.427-.458-.085-.15.125-.302.188-.457-.087-.152-.007-.309-.396-.457-.088-.146.318-.305-.209-.454-.088-.151.04-.308-.248-.457-.09-.153.004-.313-.632-.459-.088-.154-.062-.312-.543-.46-.087-.156-.19-.311-.302-.462-.087-.149.41-.312-.241-.464-.084-.158-.322-.311-.107-.465-.082-.118.627-.254-.127-.382-.178v.671l-.019-.023c-.158-.38-.316-.322-.476.051-.159-.396-.317-.375-.477.058-.159-.325-.318-.061-.478.062-.16.216-.318.053-.478.066-.159.318-.317-.557-.476.07-.159.144-.317.258-.477.07-.159-.375-.316-.427-.474.07-.157-.072-.313-.291-.468.066-.156-.482-.311-.335-.463.063-.154.253-.307.079-.458.059-.151.359-.302-.413-.452.054-.15-.188-.299-.104-.446.045-.148-.1-.295.316-.442.039-.146-.227-.291.205-.435.029-.144.369-.287-.071-.428.021-.142-.158-.283.677-.423.009-.165.115-.328.155-.49-.003-.163-.256-.323.07-.484-.008-.16-.672-.319.307-.477-.011-.158-.447-.314-.147-.47-.014-.156.296-.311-.12-.464-.015-.154.381-.307-.132-.459-.018-.153-.006-.304-.064-.455-.016-.153.4-.306-.182-.458-.018l-.453-.017c-.151-.354-.302.531-.452-.015-.151-.027-.301.129-.451-.013-.15.231-.3.083-.451-.01-.15.138-.299.952-.45-.007-.15-.379-.301.148-.452-.002-.152-.65-.303-.781-.454.004-.152.094-.304.275-.457.009-.154-.302-.307-.208-.461.015-.154-.231-.309.558-.464.022-.156.147-.312.643-.47.03l-.477.037c-.16-.246-.321-.101-.483.048-.154-.138-.311-.187-.468.046l-.479.037c-.161.152-.324-.04-.487.029-.164-.086-.328-.243-.493.022-.165.196-.332-.501-.497.014-.167.253-.333-.083-.5.007-.166.107-.333-.001-.499-.002-.167.418-.333-.09-.498-.009-.166-.222-.331-.406-.494-.017-.164-.372-.326-.082-.488-.023-.162-.133-.321-.156-.48-.032-.159.097-.316-.218-.471-.04s-.309-.012-.459-.045c-.151-.395-.3 0-.445-.055-.146-.08-.289.373-.43-.061-.14.037-.278-.293-.412-.068-.123-.069-.247.108-.371-.073-.124-.312-.249-.009-.374-.089-.126.039-.253.123-.38-.1-.128-.132-.256-.251-.385-.11-.13-.322-.26-.188-.392-.117-.132.202-.264-.412-.398-.122-.144.113-.287-.02-.431-.131-.145.149-.289.029-.435-.13-.145-.161-.291-.201-.437-.124-.146.25-.293-.271-.439-.115-.147-.475-.295-.243-.443-.104-.148-.07-.296.754-.446.421-.167.455-.317.329-.467-.066-.15-.414-.301-.045-.453-.045-.151-1.181-.303-.859-.454-.529-.153.599-.306-.026-.458.007 0 .444-.1.226-.2.01-.099-.083-.199.132-.199.01 0-.163-.019-.839-.038.196-.019-.579-.038.291-.038.195-.041.037-.088-.121-.142.586-.053.386-.112 1.029-.179.506-.065.203-.137.496-.214.43-.077-.115-.161.924-.25.361-.089-.116-.184-.411-.284.297-.1.43-.205.662-.316.242-.11-.342-.226.387-.347.19-.121-.526-.247.79-.378.147-.13.265-.266.465-.407.111-.14.217-.285.084-.434.078-.15-.587-.304-.244-.461.055-.079-.104-.159.308-.239.02l-.246.016c-.083-.234-.167-.027-.252-.193-.085-.041-.171-.014-.258.219-.175.632-.352.035-.533.018-.131-.026-.264-.081-.397.014-.133.244-.268.264-.403.016-.135.033-.271.205-.407.022l-.412.03c-.16.367-.317-.195-.474.043-.157.256-.312.795-.464.051-.153-.039-.305-.506-.456.056-.151.208-.301-.352-.45.062-.147-.608-.295.405-.443.067-.146-.183-.293.232-.44.074-.144-.327-.289.277-.436.077-.146.867-.292.326-.438.084-.146-.061-.293.197-.438.088-.147.764-.295.1-.442.093-.148.478-.297.459-.446.098-.15.108-.3.333-.452.101-.152-.334-.305.512-.458.105-.155-.016-.311-.336-.468.107-.096-.518-.195.361-.298.079-.102.818-.207.282-.314.098-.107-.241-.217.694-.329.112-.111.306-.226-.396-.34.12-.15.039-.305.598-.462.163-.158-.358-.318.119-.48.158-.162.201-.324-.221-.486.139-.161-.457-.322-.584-.478-.406-.157-.614-.31-.095-.456.051-.148-.059-.289.085-.423-.018-.133.033-.259.006-.374-.1-.09.454-.168-.326-.241-.156-.072.433-.139-.762-.201-.229-.062-.352-.121.425-.179-.283-.058.984-.113.358-.169.194-.03.91-.06.937-.09.338-.03-.299-.061-1.132-.092-.169-.033-.271-.065-.114-.099-.165-.034-.241-.07-.572-.106-.158-.037.453-.075-.647-.116-.158-.041-.041-.084.359-.129-.131-.045-.627-.093.186-.144-.058-.051-.29-.104-.433-.161-.176-.058.247-.116-.606-.177-.657-.062.305-.124-.168-.188-.033-.064-.764-.13-.807-.198.051-.067.465-.136-.121-.205-.197-.069-.041-.141.603-.213-.065-.071-.022-.146-.249-.22-.052-.074.226-.15-.107-.226.21l-.232-.303-.237.221c-.081-.019-.161-.121-.242-.293-.162.202-.327-.239-.492-.057-.166.25-.333-.015-.499-.046-.167-.398-.335.117-.502-.041-.153.043-.305-.406-.452-.038-.147.087-.292.02-.431-.04-.139.812-.273.396-.4-.047-.128-.275-.25.129-.363-.058-.137-.011-.274.058-.411-.079-.137.271-.273-.1-.409-.08-.136.147-.272.422-.408-.082-.068.218-.136-.051-.203-.041-.068-.122-.136-.156-.204-.042-.068-.245-.136-.02-.203-.069-.067-.052-.136-.106-.204-.014-.078-.105-.157.197-.235-.038-.079-.079-.158.079-.236-.058-.078.24-.157-.242-.236.035-.078.043-.158-.013-.237-.131-.079.111-.158-.24-.237-.236-.078.077-.158.287-.237.143-.08.551-.159.311-.238.16l-.239-.254c-.079-.088-.159.01-.239-.13-.08-.349-.16.208-.239.041-.054-.172-.107-.47-.16-.436-.054-.171-.107-.219-.161-.171-.054-.069-.107-.009-.161.521-.08.076-.16.183-.24-.062-.081.275-.162-.125-.242-.02-.081.288-.161.236-.242.129-.08-.107-.162-.271-.242-.205-.162.322-.324-.216-.487-.07-.162.225-.326-.462-.488-.062-.164.661-.327.178-.491-.057-.164-.057-.327-.008-.492-.047-.165.023-.33.289-.495-.037-.166.261-.332-.621-.497-.027-.167.256-.333.332-.5-.018-.167-.904-.333.15-.501-.005-.167.487-.335-.396-.504.008-.168.624-.337.251-.507.021-.169.189-.338.077-.508.034 0-.408-.106.106-.213.018-.106.092-.212-.522-.212.019l-.02.212c-.009-.608-.019.863-.019.212l-.007.084c-.13-.424-.261-.243-.393-.104-.133.238-.267.877-.402-.099-.135.569-.271.334-.408-.096-.137.199-.274.469-.413-.092-.139.125-.278.282-.418-.09-.14.214-.28.091-.422-.087-.141-.248-.283.003-.424-.085-.142.126-.284.2-.427-.083-.142.148-.285-.396-.427-.081-.08-.224-.161.711-.241-.046-.08.418-.16.215-.24-.045-.081-.42-.16-.342-.24-.049-.079.078-.16-.02-.239-.04-.08-.239-.161-.194-.24.114-.08-.161-.16.229-.238-.203-.08.064-.158-.244-.236-.046-.078.165-.157-.003-.234-.043-.079-.233-.156-.247-.232-.264-.077-.03-.154.013-.23.176-.153.263-.304-.157-.453-.089-.149-.191-.297-.043-.443-.09-.146-.582-.29-.301-.433-.091-.143.22-.283-1.417-.421-.094-.187-.057-.368-.747-.545-.112-.177-.52-.35-.729-.52-.081-.169.228-.335-.185-.498-.055-.163-.155-.323-.518-.481-.028-.158-.246-.312-.656-.467-.006-.154.583-.306.211-.457.016-.152-.403-.301.341-.451.035-.15.253-.299-.918-.449.053-.149-.123-.299-.814-.45.068-.15-.064-.302-.207-.455.08-.153 1.042-.308.097-.464.092-.157-.165-.315-.205-.476.1 0-.213-.085.043-.199.044-.114-.307-.257.245-.371.081-.114-.773-.2-.99-.2.043-.18.311-.354.262-.526.115-.171.053-.339.379-.504.107-.165-.139-.325-.859-.484.098l-.467.087c-.154-.813-.305-.208-.454.074-.149-.454-.297.192-.442.06-.146.092-.291-.082-.434.041-.144.403-.287-.559-.429.023-.143-.771-.284-.303-.426.002-.142.107-.284-.594-.425-.021-.142.184-.285.108-.429-.045-.071-.354-.144.401-.216-.031-.072.164-.145.642-.217-.04-.073.481-.147.183-.22-.128-.073-.401-.148-.354-.222.027l-.226-.28c-.075-.31-.151.22-.228.15-.076.222-.154-.146-.231-.167l-.236.004c-.079-.073-.159-.152-.239.022-.081.116-.163.437-.244-.219-.083-.076-.166-.185-.25-.192-.083-.01-.169.008-.254-.041-.179-.735-.348-1.085-.508-.244-.16.606-.312-.597-.457-.215-.145-.218-.284-.016-.417-.187-.133-1.149-.262.171-.388-.159-.126-.455-.249-.127-.37-.137-.122.289-.242.085-.363-.117-.121-.539-.242.062-.366-.098-.124-.426-.249.076-.38-.082-.13.312-.264-.342-.404-.068-.14.12-.286.033-.438-.058-.154.845-.314-.177-.485-.049-.169.124-.349.226-.541-.042-.042-.182-.084-.341-.127-.189-.043.8-.085-.247-.126-.172-.055-.77-.107.262-.154-.211l-.119-.201c0-.634-.071-1.099-.143-.299-.072-.863-.144.27-.144-.3 0-.031-.126-.501-.251.217-.126.152-.252.423-.252.216-.109.49-.22.429-.333.27-.113.105-.227-.333-.342.241-.116.991-.232.569-.35.214l-.355.186c-.119.476-.238.281-.358.154-.04.367-.083.535-.129-.298-.045.255-.093-.928-.143-.279-.05 1.297-.1-.333-.151-.27-.054.094-.105 1.112-.154-.276l-.138-.274c-.042-.408-.08-.324-.11-.281 0-.645-.058-.294-.115-.355-.057-.165-.115-.606-.115-.355 0-.066-.144.005-.289.238-.144.385-.288 1.266-.288.237-.092-.362-.188-.161-.285.233-.098-.104-.197-.324-.3.24-.102-.205-.207-.636-.314.248-.106.56-.216.851-.326.255-.112-.536-.225.413-.341.261-.116-.74-.234.246-.354.265-.121.804-.243-.056-.367.269-.125.864-.251 1.004-.38.271-.128-.561-.259-.625-.391.274-.133-.097-.267-.661-.403.275-.136.141-.274.235-.414.276-.14.582-.282.643-.425.275-.143-.473-.288.092-.435.275-.147.164-.295-.062-.444.272l-.454.271c-.153-.072-.308.115-.463.268-.156-.354-.312.42-.471.262-.159-.381-.318.053-.479.258-.162.297-.324-.211-.487.251-.164.472-.329.455-.495.244-.166.133-.333-.534-.501.237-.142.115-.283.094-.423.188-.139.496-.278.312-.416.169-.138.702-.275.277-.411.153-.136.219-.271-.023-.405.137-.134-.41-.268-.402-.401.121-.132.002-.264.369-.396.105-.078.068-.158.333-.236.057-.079-.137-.156-.09-.234.052-.077.202-.156.177-.233.066-.077.065-.154.152-.231.022-.077-.08-.155.321-.231-.125-.078.21-.154.064-.23.196-.05.106-.101-.021-.153-.151-.05.316-.101-.408-.152-.16-.05-.144-.101.221-.151.365-.077.257-.152.43-.228.199-.076.164-.152.096-.227-.16-.076-.143-.151.01-.225.123-.076.113-.151.19-.227-.101-.149-.058-.299.444-.449.011-.15-.531-.3.608-.449-.003-.15-.052-.299.16-.449-.014-.15.289-.3.302-.449-.024-.15.121-.3-.096-.451-.032-.15-.675-.301-.378-.451-.04-.151.249-.303-.338-.455-.047-.152.266-.305.313-.458-.053-.154-.49-.308-.119-.461-.057-.155.093-.311.426-.467-.06-.155.017-.313-1.017-.471-.062-.146-.562-.296-.23-.446-.056-.15-.047-.301-.689-.453-.059-.152.967-.305.198-.459-.057-.154-.221-.309.019-.465-.055-.157.547-.314-.082-.474-.053-.16-.093-.319-.9-.482-.048-.162.585-.325-.138-.491-.044-.076.195-.154.514-.231-.018-.078.392-.155.006-.232-.014-.077.106-.156-.327-.233.123-.078.291-.156-.213-.234-.139-.077-1.033-.156.755-.233-.004-.079.124-.157.176-.235-.002-.077.236-.156.309-.234.128-.079.053-.157.198-.235-.124-.077.243-.156-.126-.234.035-.079-.13-.157-.029-.235-.023-.052.451-.104-.062-.156-.362-.053-.018-.104-.075-.156-.026-.053-.107-.104.281-.157.406-.052.168-.103-.482-.156-.17-.052.317-.103.165-.155-.162-.052-.117-.103.138-.155.355-.077-.087-.155-.024-.232.034-.077.056-.155.105-.231-.012-.157.05-.313-.398-.47.023-.158.256-.316-.255-.473.022-.157.412-.315-.485-.473.017-.159-.06-.317.231-.475.011-.157-.649-.314.171-.472.002-.157.446-.314.039-.47-.008-.157.333-.312-.194-.468-.02-.156.699-.311.071-.464-.035-.154.031-.307-.455-.46-.051-.152-.379-.304-.523-.453-.07-.151.016-.3-.148-.448-.092-.15-.35-.297.074-.444-.122-.147-.69-.292-.789-.437-.159-.145-.094-.287-.179-.429-.189-.143.341-.284.335-.424-.215-.14.691-.279.232-.417-.236-.138.617-.275-.446-.412-.253-.136-.299-.272-.299-.407-.266-.135.075-.269-.529-.403-.273-.134-.271-.267.168-.4-.274l-.153-.16v2385.99c.114-.102.229.135.345.311.129.104.26.01.391.258.132.016.264.116.398.248.133-.135.268-.406.403.236.136-.452.273.062.412.221.139.143.279-.283.42.201.142-.136.286.078.431.178.146.367.292.303.442.152.149-.356.301.023.454.123.147.338.294.119.443.092.148.1.297-.074.445.072.15-.58.299.505.449.055.15.422.301.576.451.04.15-.544.301-.177.452.026.151.654.303-.523.453.014.151-.416.303.203.454.003.152-.598.303-.243.454-.005.152.328.302.205.453-.012.151.27.302-.393.453-.018.15.107.3.061.45-.021.15-.353.3-.818.449-.021.149.185.299-.004.45-.022.076.056.151.212.226-.003.076.124.152.115.228-.018.075.402.152-.096.227.018.075-.506.152.041.227-.035.076.234.152-.145.228-.104.075-.535.152.291.227.092.075-.137.151-.408.226-.016.076.085.151-.291.226.012.076-.799.151.15.226.172.075-.021.15.137.224-.166.075.455.15-.076.224-.033.074-.158.148-.246.221.049.075-.172.148.359.221.014.074-.056.146-.539.22.016.162.287.321-.068.481.043.159-.753.316.674.473.047.157.076.312.411.466.051.154.316.307-.619.458.055.153-.281.304-.67.453.057.15.232.3.664.448.058.149.907.295-.816.442.058.158.258.315.282.471.062.156-.3.312.035.466.06l.461.058c.154.004.307.467.458.052.153.215.304.142.455.048.152 1.066.303.758.454.042.151.22.301.021.452.034.149-.49.299.918.45.026.15.835.3.876.451.017.149.672.299.688.45.006.151-.572.301.108.451-.005.151.341.303.214.455-.019.051-.029.101-.15.152-.264s.101-.217.152-.213c.05.076.101.121.152.445.076.111.153.029.229-.045.077-.266.154.013.23-.002.077-.292.154.025.231-.041.077.26.155.387.232-.021.078-.104.155.052.233.052.077.372.156.27.234-.131.079.39.157-.019.236.134.079.125.158.043.237-.231l.238-.056c.08-.297.16-.126.24-.061.134.143.269-.018.404-.113.135.008.272-.031.409-.127.137-.053.275.326.414-.143.139-.434.279.086.42-.158.141.127.283.082.426-.176.143-.447.287-.15.433-.191.166.301.331-.455.496-.234.164-.227.327.184.489-.241.162.268.323.364.482-.248.16-.386.318-.357.475-.253.157-.014.312-.146.467-.26.154.324.308-.354.458-.262.152-.734.303.286.45-.267.149-.101.297.001.443-.269.145-.402.29-.629.431-.271.143-.515.284-.487.423-.271.14-1.127.277-.234.413-.272.136-.479.27.021.402-.272.133.316.263-.352.392-.271.129.144.256-.397.38-.27.125-.425.248-.259.369-.267.121.01.24.408.357-.264.117-.209.232.3.344-.26.113-.906.225.238.333-.254.108-1.116.215.143.319-.249.104 1.228.206-.223.306-.243.033-.016.065-.362.099.184.034.236.067.549.101.178.067-.555.134.886.194.353.061.534.116 1.043.162.354.047-.622.083.734.106.373 0 .209.023-.944.047.273.025-.054.049.992.049.272 0 .837.134-.422.268-.072.134.06.268-.113.268-.071.123-.559.246-.314.369-.113.122-.375.245.014.367-.141.122-.98.243.027.364-.166.121-.215.241.461.359-.193.119-.293.237-.029.354-.216.116-.293.231-.071.345-.24.013-.307.027.979.04.052.057.376.115-.591.166.23.051-.613.095-.626.13.225l.063.137c.032.6.063.527.063.139 0 .375.076.076.151.009.075.175.151-.411.151.01.213.595.412-.013.598.043.187.069.36.46.525.048.165-.086.318-.037.466.059.147.709.288.363.422.07.135-.419.266.445.394.088.129.021.255-.586.381.107.126.277.253 1.971.382.131.13-.776.262-.748.399.158.137 1.223.28-.012.43.188.15 1.285.308-.613.477.223.168-.163.346.379.538.262.12-.249.238-.442.355-.287.059.078.116.243.175.531.086-.037.173-.087.258-.047.085.069.17.507.254.256.083-.077.167-.082.25-.047.082-.057.165-.098.246.221.082-.24.163-.264.243.036.082-.294.161.325.241.105l.237.001c.078.085.157.385.234.11.079.13.156.093.232.044.077.082.154.141.23.039.153-.066.305-.02.456.056.15.462.299-.196.449.031.149.224.297.288.445.009.148-.078.296.291.444-.012.147.211.295.582.443-.031.149-.748.298-.713.446-.048.149.562.3.6.451-.063.151-.895.303-.604.455-.076.154-.092.308-.088.464-.086.156-.992.313-.574.474-.098.16-.146.321.1.486-.104.164-.352.331-.124.499-.109 0 .068.084-.758.199-.043.113.271.255.445.368-.08.113-.854.198-.287.198-.043.169.199.334.066.497-.104.162.121.321.494.478-.093.157.534.311.926.464-.081.153.161.305.514.456-.065l.451-.046c.151.517.302.423.454-.026.152.098.306-.202.46-.004.155.807.312.043.472.02.16.441.322.197.489.049.167-.28.337.668.512.077.175-.61.354.015.54.11.142.177.285.215.43.096.145.25.292-.277.44.092.148-.172.298-.552.449.092.152.295.304-.062.458.09l.232-.018c.078-.005.156-.146.234.106.078.202.158-.202.237.081.08-.209.159.265.238.008.054-.471.107-.17.161-.238.054.324.107.062.161.245.054-.261.108.432.162.083.076.168.151.537.228.1.075-.271.152.111.227-.015.152.112.304-.119.456.085.152-.307.303-.109.455.088.152-.559.304.334.455.088.151-.283.302.003.451.09.15-.291.299-.238.448.093.149-.237.295-.442.442.097.147-.816.292.021.436.098.144-.29.287.417.429.103.141.189.281.349.418.106.138.16.274-.355.409.11.134.354.267-.07.397.116 0 .515.082.003.189.057.108-.328.244.217.353.106.108.022.189-.196.189.058 0-.024-.009-.463-.021-.197-.012-.027-.026.34-.038-.366l-.005-.325c.152.285.303-.096.454-.077.161.97.322.474.482-.009.16-.322.319-.314.478.004.16.193.318.333.478.014l.474.025c.159-.304.316-.267.474.035.157.594.314.412.471.045.158-.319.314.228.471.053.158.293.314-.15.472.062.156-.145.313-.167.47.067.157-.064.314.225.471.075.078.199.157.239.235.22.079.117.157.139.236-.141.053-.434.104-.498.157-.254l.158.188c.053-.183.105.128.158.151.079.249.157.223.236.109.078.227.158.285.236-.021.08.01.159-.178.237-.1.079-.321.159-.004.238.192.052-.426.105-.007.159-.263.052-.02.105.464.159.047.052-.127.106-.084.159.311.079.488.159-.025.239.273.079-.143.16-.208.239-.176.081.083.161.082.241-.053.08.229.16-.24.24.15.068.252.137.346.204.041.069.273.136.175.205.043.137-.331.274-.403.41.083.137.058.274.324.411.083.138.139.275.135.412.08.138-.576.275.338.414.08.127-.195.26-.385.398.063.139.26.282-.155.429.052.148.426.299.059.454.042.155.005.313-.084.473.038.167.971.335-.153.506.043.17-.146.341.738.512.049.113.462.226.174.337.037.057-.068.112-.188.167.023.083.303.165-.291.245.234.081.203.16-.012.238-.156.052.23.104.352.155-.014.05-.146.1-.407.15-.191.049-.67.098-.174.146.305.07-.385.14.213.208-.082.067-.447.132-.513.194.211.042-.254.083.99.122.381.039.438.078-.199.114.143.037.549.072-.736.106-.361.034-.326.066.344.099-.092.032.104.063-.838.094.271.031-.282.062-.119.091-.004.03-.068.06-.078.089.277.03-.52.06.083.088.54.03-.528.06-.247.089.295.055.647.111-.165.173.32.062 1.046.128.228.202.327.074.753.155.131.245.312.09-.139.189-.328.299-.234.111.229.234-.062.37-.297.113.265.229-.302.347.117.118.043.238-.018.36.066.122.49.246.164.371.02.131-.086.264-.264.398-.02.134.219.269-.416.404.45.136-.34.271-.479.408-.087.136.275.272-.252.408-.109.136.082.272-.37.407-.127.135.094.269-.172.401-.137.133-.248.264-.26.394-.139l.422-.149c.137.012.269-.284.395-.13.125.252.244.338.353-.098.167.025.332.559.494-.114.164.738.325-.051.484-.11.16-.152.318-.855.476-.105l.469-.102c.156-.477.311-.067.465-.097.154.231.308-.351.461-.091.154-.664.308-.062.461-.086.154-.902.308.609.462-.08.154-.084.309.508.464-.074.156-.506.312-.287.469-.066.158-.594.316-.516.476-.061.16-.454.321-.479.484-.053.164-.902.329.52.495-.047.131-.159.263.076.394-.027.132.299.263-.18.394-.021.131-.283.262.326.391-.016.13.094.259-.193.387-.014.154.432.307-.573.46-.016.076.008.154.101.23.143.076.041.153.031.229-.162.077.059.153.031.229-.014.076.088.152-.208.228-.018.151-.314.301-.044.45-.044.148-.077.296-.134.441-.063.146.088.29-.035.431-.088.142-.058.281-.531.417-.116.136.364.27.026.401-.149.13.229.257-.235.381-.188.123.474.243.272.359-.23.116-.901.228.093.336-.278.107-.103.21.592.309-.331.099-1.136.191-.254.279-.388.088.301.171-.674.248-.451.077-.561.148.678.212-.516.064.523.123-.803.176-.589.154.81.309.491.463.532.155.252.31.082.465.055.155-.562.311.297.466.078.155.499.311-.502.465-.406.156 1.004.311 1.137.466.117.155.027.31-.291.463.129.154.324.308.063.462.137.154.155.307.321.459.141.133.062.266.377.401.122.134-.04.269.185.404.12.135.071.27.466.405.115.135.365.271.368.406.107.135-.028.269-.479.404.096.134.164.268.365.401.08.131-.273.266-.246.403.066.137-.091.277-.322.419.061.142.299.287.09.434.053.147.363.296-.14.447.047.151-.209.302-.145.457.041.154-.609.31.177.466.033.158.119.316.23.476.026.159-.427.319-.07.48.021.161-.023.322-.598.484.012.163.335.324-.266.487.006.163.356.326-.032.488-.002.163-.494.326-.166.487-.008.162-.113.323-.625.484-.016.161-.582.321.367.48-.022.159.058.316.134.473-.03.157.332.312.143.466-.037.154-.208.307.005.457-.045.169-.37.337-.391.504-.049.167.113.333.215.497-.039.165.429.328.188.491-.029.164.154.325.111.487-.021.161.331.322-.103.482-.014.161-.153.32.017.479-.006.16-.681.318-.013.477-.001.159-.031.318.236.477.005.159.368.316-.011.475.009.159.258.317-.033.476.014.159.146.319.139.478.015.16-.128.319.095.48.018.161-.365.322-.435.483.019l.401.014c.134-.127.269.162.404.016.136-.59.271-.656.41.014.137-.426.275.346.413.013.139-.228.279.392.418.011.14.084.282-.536.424.009.143.458.286-.587.43.006.145.108.29.087.437.003.01-.166.02-.311.03 0 .147-.403.294.422.443-.007.15.876.3-.194.452-.021.151.004.304-.27.456-.03.153-.034.307-.632.461-.04.154.162.309-.338.464-.049.155-.74.311.172.466-.057.157-.645.312-.344.468-.062.157.39.312-.425.468-.065.157.385.312-.918.467-.068.156-.176.311.049.465-.068.162.1.323-.649.484-.072.162-.03.323-.087.486-.07.162.328.324-.233.485-.068.162.637.323.34.485-.062.162.869.323.104.484-.057.096.129.193.15.29.108l.02-.383c.094.046.186-.052.275-.269.154-.705.325.246.484.083.156-.364.318-.168.481.087.165.451.321.199.479.09.16.022.326.557.478.09.161.096.315-.133.477.092.162.372.314-.072.474.092.152-.074.302-.49.461.09.155.033.304-.39.464.089.157.167.304-.45.465.089.163.605.307-.33.467.087.162.486.308-.319.468.085.158.074.308-.42.47.082.164.574.318.365.473.08.154-.147.319.422.473.074.151-.627.32.434.474.07.156-.215.312-.34.476.066.158-.104.312-.373.478.061.167.652.315-.29.479.054.161.097.32.097.48.048.159-.029.318-.098.481.039.167.558.325.43.482.032.169.622.316-.511.484.024l.484.013c.163.017.322-.062.486.005.16-.16.333.699.486-.005.163-.031.326.079.487-.013.168.539.322-.174.487-.018.168.498.325-.02.486-.022.167.341.327.27.486-.028.155-.492.317-.519.486-.031.159-.237.322-.191.484-.037.167.369.328.443.484-.039.156-.475.317-.381.482-.043.161-.048.319-.172.481-.047.165.271.321-.027.48-.047.151-.703.317-.148.477-.049.162.199.324.502.475-.049.164.387.327.775.475-.049.173.334.332-.512.507-.055.172.35.345.677.505-.053.163-.424.337.12.502-.05.161-.598.33-.411.501-.05.157-.793.336.273.499-.046.172.483.327-.384.497-.044.168.256.333.197.494-.039.164-.065.335.441.493-.037.156-.711.326-.229.491-.029.165.109.33.187.49-.025.162-.113.33.44.487-.019.166.251.32-.47.486-.012.165.211.324.087.485-.005.168.664.322.004.483.002.157-.346.315-.393.481.012.167.541.323.228.481.02.157-.172.313-.383.477.031.156-.314.327.592.479.039.167.686.308-.771.476.053.165.552.318.181.475.062.156-.129.307-.739.474.072.164.549.318.314.473.088.158.113.305-.762.471.1.159.227.315.238.47.114.158.091.318.561.469.128.158.182.311-.072.468.143.165.082.34 1.047.491.15.164.083.322-.215.489.134.16-.126.329.601.485.118l.483.105c.164.281.321.068.481.094.158-.233.326.477.481.08.16.086.312-.494.479.07.162.111.319-.018.479.061.165.429.325.476.48.053.157-.119.312-.584.479.045.16.009.326.6.48.037.163.197.316-.377.482.034.167.485.325.261.484.029.175 1.081.317-.442.485.026.156-.553.326.081.488.023.162-.177.321-.545.491.023.144.308.29.805.421.02.138-.246.289.518.424.021.149.517.289.268.429.022.146.221.295.726.431.025.147.198.286-.202.434.026.147.206.292.302.435.03.134-.105.277.434.41.024.134-.276.277.066.416.015.14.07.28.039.419.005.136-.409.282.033.42-.001.138-.229.286.362.421-.006.146.478.289.701.417-.008.148-.232.297-.392.454-.008.148-.258.302-.097.454-.004.146-.393.299-.23.453 0 .154.33.301.021.45.008.146-.294.301.273.445.02.153.52.295.256.437.033.14-.271.288.15.427.051.149.77.281.163.415.069.112-.766.228-1.224.365.087.134.939.244.094.367.116.12-.096.249.538.367.139.121-.117.246.11.37.157.123-.061.252.338.375.17l.379.178c.124-.548.264.045.397.188.138.433.266-.02.403.182.132-.147.277.544.409.172.15 1.129.278.393.414.155.139.057.271-.499.42.134.165.305.327.426.483.123.148-.983.328.594.482.1l.482.079c.16-.019.322.194.479.06.159-.141.318-.061.479.041.163.295.324.434.479.025.152-.549.321.318.476.012.157-.088.317.117.474 0 .157-.109.313-.162.474-.012.161.295.316.131.471-.02.152-.449.31-.287.469-.028.149-.644.311-.138.468-.032.16.31.311.001.465-.036.159.286.319.869.463-.038.141.29.268-.629.415-.033.137-.102.28.246.417-.033.134-.482.284.324.419-.029.138-.223.285.289.422-.027.14-.088.291.666.422-.021.141-.029.276-.621.424-.015.144.202.281-.141.425-.007.145.283.286.302.422.001.152-.585.311-.499.475.005.158-.046.32.312.475.004.154-.361.313-.207.474-.002.153-.455.317.062.474-.002.162.34.317.079.474-.004.153-.457.309-.622.474-.007.154-.327.309-.487.473-.008.083.326.161.255.238.136.078-.119.155-.284.235-.146.074-.295.152-.435.233-.266.078-.127.158.069.239.254.075-.348.158.006.235-.064.085.506.159.162.236.051.045-.615.104-.185.155-.24.049-.266.104-.006.156-.062.053.051.104-.01.161.287.073-.427.161.396.237.164.083.402.155-.133.233-.18.081.361.159.246.235.108.082.209.157.019.233-.126.06.625.108.281.161.41.052-.037.108.311.158.062.046-.414.094-.752.15-.49.082.311.157.075.234-.008.072-.48.15-.49.233-.012.078.031.157.178.233-.015.085.71.153-.136.232-.005.079.074.153-.207.232-.08.081.277.167 1.012.233.061.077.02.158.279.232-.012.072-.391.151-.303.23-.01.099-.367.215.734.309-.014.104.084.205.017.307-.013.105.26.202-.32.307-.015.15-.035.298-.263.452-.02.152.119.3-.01.451-.021.15-.088.307.308.455-.02.15-.069.303-.104.456-.021.16.605.306.23.456-.019.146-.628.304-.11.458-.019.149-.299.294-.938.459-.019.154.114.306.015.459-.017.149-.332.306-.042.459-.016.155.016.311.184.46-.016.158.248.308-.064.461-.014.161.541.308.021.461-.012.148-.396.304-.299.46-.012.152-.165.319.955.461-.008.153-.028.303-.294.459-.007-.007-.913.01.034.015-.001.158-.405.324-.068.486.002.164.312.323.157.48.015.158-.071.325.702.476.026.157-.111.316.064.473.039.157-.002.312-.096.471.047.166.768.308-.586.473.053.154-.242.326.994.473.061.165.557.317.127.476.062.164.396.325.43.481.065.145.052.286-.255.436.06.151.482.296.363.439.059.146-.146.286-.764.444.057.148.014.295-.096.446.053l.452.045c.152.048.307.328.455.042.147-.458.305-.008.459.032.154.096.307-.043.462.023-.002-.213.089-.385.218.008l.406.018c.119-.34.215-.139.217.01.149.04.289-.805.451.018.155.316.307.264.457.02.156.121.312.24.464.016.162.544.307-.407.467.012.158-.007.313-.096.47.007.165.603.32.386.472 0 .165.692.309-.378.469-.008.157.075.309-.116.464-.019.146-.645.302-.465.459-.029.145-.548.305.174.453-.042.146-.256.298.147.441-.056.149.215.293.228.431-.07.16.004.314.096.459-.105.143-.325.284-.355.423-.131.13-.535.268.054.393-.145.117-.711.251.266.364-.145l.437.334c.14-.139.278-.225.417-.14.152 1.024.274-.29.417-.091.146.375.285-.6.437-.529.152.26.302-.296.472.062.141.511.271.213.402.109.131-.074.266.169.396.141.134.319.256-.34.392.169.13.017.261.208.39.194.13.122.261.3.388.216.132.252.262.396.389.233.136.637.25-.551.389.248.128-.086.264.5.391.259.126-.407.267.446.396.265.131.318.266.966.386.26.126-.211.258.063.39.259.131.101.26.005.395.253.131.014.265.112.4.243.132-.138.264-.409.408.23.13-.453.274.06.414.216.141.141.276-.286.424.195.14-.137.287.076.433.174.15.365.295.299.443.146.145-.358.301.021.456.117.151.337.296.115.443.086.15.1.297-.076.447.068.143-.582.305.501.45.049.155.421.307.572.45.035.145-.546.3-.181.453.02.159.654.295-.525.454.008.146-.417.304.201.454-.001.144-.601.3-.247.454-.011.155.326.305-.307.452-.525.154.268.298-.396.453-.023.151.107.3.059.45-.025.145-.354.289-.823.448-.027.151.182.299-.008.45-.029.077.056.154.211.226-.006.078.124.153.113.228-.019.08.401.15-.099.227.015.069-.508.152.039.226-.037.079.232.151-.146.226-.107.07-.536.155.289.229.09.074-.139.147-.411.226-.02.077.084.148-.293.226.01.067-.801.153.148.228.168.075-.021.152.137.222-.168.082.454.149-.077.224-.035.071-.159.145-.248.222.045.072-.172.152.357.22.012.074-.057.14-.541.219.013.166.286.322-.072.483.037.149-.755.323.671.473.042.157.072.316.406.466.045.158.313.3-.623.459.049.149-.283.294-.674.454.051.153.23.307.662.448.052.16.907.287-.819.443.054.161.255.319.277.472.055.152-.3.312.033.467.055l.462.052c.154.003.312.464.459.048.155.213.306.137.456.043.164 1.063.312.753.453.035.154.219.302.018.452.029.145-.492.311.913.451.021.16.833.311.872.45.011.157.67.309.684.45.001.144-.575.303.104.451-.011.156.338.305.209.455-.023.051-.029.099-.152.148-.266.049-.114.099-.22.148-.215.052.076.104.119.158.443.077.109.152.027.229-.048.073-.267.153.519.229.504.074-.293.155.022.231-.044.08.258.159.384.232-.025.075-.104.154.051.233.049.082.373.158.268.232-.134.083.39.156-.021.237.133.08.124.158.04.234-.235l.238-.059c.075-.298.157-.128.239-.063.136.142.268-.021.401-.118.136.006.271-.035.408-.132.136-.055.278.323.411-.147.134-.436.28.083.418-.163.143.125.283.079.424-.181.138-.449.284-.154.43-.197.169.299.326-.459.493-.24.161-.229.329.18.486-.247.165.266.327.36.479-.254.155-.388.313-.362.472-.259.156-.015.312-.149.464-.264.158.321.303-.359.455-.27.144-.735.306.283.448-.271.147-.102.295-.002.438-.273.141-.404.281-.633.429-.277.136-.516.276-.49.419-.276.126-1.129.274.271.409.231.131-.481.271.018.398-.277.137.314.26-.355.39-.276.13.144.251-.4.376-.274.121-.424.246-.261.365-.27.122.008.245.404.354-.268.114-.211.235.296.342-.265.102-.909.226.236.329-.259.094-1.117.216 1.156.315.764.119 1.227.203.283.303.262.032-.018.062-.363.102.182.036.236.074.549.103.176l.198-.666c.067.535.13.534.167-.154.038-.623.092.732.11.372.002.208.012-.945.051.272.024-.054.062.992.052.271.011.838.13-.423.268-.074.134.059.266-.626.266-.584.117-.559.243-.316.368-.117.118-.377.245.012.365-.145.111-.982.244.023.363-.172.118-.215.246 1.475.355.82.116-.295.237-.033.353-.221.112-.295.23-.074.343-.244.009-.307.037.979.039.051.062.375.108-.592.169.229.044-.615.088-1.645.133-.794l.065.138c.039.598.069.525.064.137.005.375.076.074.151.007.078.173.146-.413.151.009.221.591.412-.019.599.035.188.067.366.455.525.043.163-.09.317-.042.467.051.155.709.291.359.423.066.13-.422.271.441.396.082.129.021.247-.589.383.104.129.275.275 1.967.383.125.12-.777.252-.75.4.154.152 1.221.28-.016.432.184.167 1.282.302-.618.479.217.167-.166.352.374.542.254.116-.25.233-.444.352-.29.059.077.118.241.18.528.087-.039.172-.089.259-.05.086.067.176.504.257.251.083-.076.165-.083.249-.049.082-.057.164-.101.249.219.079-.242.159-.266.244.032.077-.294.164.323.242.104l.236-.003c.079.084.161.383.235.107.08.131.157.092.233.043.078.08.155.137.23.035.151-.067.305-.022.455.05.156.46.299-.2.45.025.152.222.301.285.445.003.147-.079.3.288.443-.017.151.208.303.578.444-.036.139-.75.288-.717.445-.053.155.559.307.596.449-.068.14-.898.296-.609.455-.082.152-.094.307-.092.463-.093.144-.993.308-.577.472-.103.158-.149.323.096.484-.109.16-.354.329-.129.498-.114.001.067.075-.76.197-.046.117.27.261.439.367-.086.104-.854.195-.289.198-.045.172.197.336.062.495-.111.165.119.329.491.479-.098.163.531.321.922.463-.088.154.16.311.511.455-.068l.45-.053c.156.515.307.42.453-.033.153.098.303-.205.461-.009.164.804.312.039.472.015.166.439.325.193.49.043.164-.283.345.664.513.07.167-.611.354.01.54.104.145.176.289.211.432.09.147.248.289-.279.441.088.146-.174.291-.555.45.086.154.293.303-.066.459.085l.232-.021c.077-.006.154-.148.234.104.082.201.156-.203.238.078.076-.209.162.263.239.006.047-.473.104-.173.156-.241.058.323.108.062.165.243.05-.262.112.431.162.082.077.166.157.533.228.096.074-.271.154.109.228-.018.154.111.303-.123.457.08.148-.309.302-.113.457.082.145-.561.307.33.454.082.148-.284.302 0 .452.086.147-.295.297-.243.449.086.146-.239.291-.445.444.092.137-.818.291.019.437.094.141-.293.291.412.43.096.144.188.284.346.419.102.142.158.271-.357.411.105.138.354.266-.074.397.111.006.516.082.002.19.055.104-.33.246.215.354.102.109.021.188-.197.19.056 0-.024-.015-.463-.022-.196-.013-.029-.023.34-.044-.365l-.008-.326c.155.283.303-.1.453-.083.173.968.327.471.482-.015.155-.323.314-.318.479-.003.161.192.322.331.477.009l.475.021c.154-.306.313-.271.475.03.164.591.319.407.472.039.154-.322.317.223.473.047.16.289.312-.156.472.055.155-.146.312-.171.471.062.155-.066.317.222.472.068.082.199.16.238.238.219.081.115.159.135.234-.145.047-.436.099-.5.154-.256l.159.188c.051-.184.106.125.159.148.082.248.16.221.238.107.081.225.16.282.235-.025.081.01.157-.178.236-.104.075-.32.159-.004.24.19.048-.427.105-.009.155-.265.053-.021.111.463.159.045.052-.127.105-.085.163.31.085.487.158-.028.243.271.077-.144.156-.211.235-.18.083.082.162.08.241-.056.083.229.157-.242.242.147.071.251.14.345.204.039.072.273.139.174.206.041.132-.333.268-.408.41.078.138.057.278.32.412.076.139.138.275.133.413.076.131-.577.278.334.413.074.125-.196.256-.387.4.06.141.259.279-.159.43.046.152.424.299.056.454.037.154.004.312-.088.473.033.178.967.334-.158.507.035.168-.148.35.735.513.043.119.461.227.172.337.033.056-.068.109-.188.168.021.086.303.16-.293.248.231.082.202.159-.014.236-.159.055.23.106.352.153-.016.05-.147.097-.407.148-.191.04-.672.095-.178.148.303.066-.387.143.21.206-.086.062-.449.127-.514.198.209.038-.254.094.988.125.38.045.437.076-.2.116.142.044.547.063-.738.103-.363.029-.328.07.342.099-.093.033.103.054-.839.098.27.027-.282.06-.118.091-.005.029-.068.059-.079.093.275.022-.518.054-.426.089.032.023-.528.057-.249.093.294.062.646.109-.166.177.318.074 1.045.131.225.206.324.083.751.156-.887.248-.707.089-.139.191.178.304.27.114.228.239.443.372.207.116.264.226-.305.349.113.118.042.238-.021.361.061.128.49.247.162.37.017.13-.088.262.749.398.991.136.218.258-.926.402-.062.132-.342.267-.483.407-.092.14.272.269-.255.406-.115.138.08.269-.374.405-.132.136.093.267-.175.399-.141.129-.25.262-.264.393-.145l.421-.154c.137.011.266-.287.393-.135.129.252.248.335.353-.102.167.024.338.555.492-.121.173.736.324-.055.483-.115.158-.154.308-.859.475-.111l.468-.107c.15-.478.309-.071.464-.103.157.23.305-.354.461-.096.146-.667.307-.067.46-.091.143-.905.315.605.461-.086.153-.086.315.503.464-.08.15-.508.308-.291.469-.072.15-.596.31-.52.476-.066.154-.455.315.025.483.449.152-.904.334.516.493-.053.13-.161.264.072.396-.033.134.299.26-.183.393-.025.127-.285.266.322.391-.02.131.092.257-.197.387-.018.159.429.3-.578.46-.022l.232.14c.077.041.152.03.228-.166.076.059.152.031.228-.016.077.088.149-.209.227-.02.148-.316.302-.047.45-.049.147-.079.294-.139.44-.07.146.087.289-.038.43-.092.141-.061.273-.535.415-.121.141.361.271.021.398-.154.134.227.255-.239.38-.193.129.472.246.27.356-.235.104-.903.229.091.332-.282.106-.104.218 1.097.305.174.084-1.137.188-.258.273-.393.093.301.163-.674.243-.452.069-.562.156.675.205-.52.072.523.114-.804.169-.591.165.809.309-.021.465.019.157.251.311.078.465.049.149-.563.314-.214.468-.435.161.496.311.002.467.096.168 1.002.324 1.133.468.11.154.027.306-.293.464.124.159.323.31.061.465.131.155.154.311.318.461.135.133.061.271.375.402.118.134-.042.271.181.404.116.136.068.275.461.407.11.14.362.274.364.406.102.135-.03.264-.481.405.09.137.163.271.362.401.075.128-.273.263-.248.404.062.136-.092.272-.325.42.055.146.299.287.086.434.049.152.361.294-.145.446.041.149-.211.303-.148.459.035.146-.611.312.174.467.027.159.118.318.229.476.021.153-.43.318-.074.48.014.16-.024.315-.602.485.008.165.331.321-.27.486-.002.167.355.325-.035.488-.008.156-.496.322-.169.486-.013.161-.116.315-.63.484-.021.153-.585.324.363.479-.028.16.055.32.129.475-.037.161.331.313.141.466-.043.15-.209.306.002.455-.049.165-.372.332-.395.504-.056.168.11.334.212.496-.045.17.427.33.183.491-.035.165.151.326.106.486-.026.165.328.32-.107.481-.02.159-.156.321.013.479-.012.151-.683.318-.018.478-.006.158-.034.32.232.476-.002.163.365.317-.016.476.004.163.255.317-.038.478.007.159.145.319.134.477.01.158-.13.321.091.479.012.157-.367.316-.438.484.012l.4.009c.133-.129.271.16.404.012.129-.592.265-.66.409.008.133-.426.279.344.414.008.135-.229.283.389.419.006.141.083.274-.539.424.004.147.456.277-.591.43.001.146.106.29.083.437-.003.007-.166.016-.311.029 0 .141-.404.3.418.443-.013.16.874.297-.198.451-.025.151.003.299-.272.455-.036.153-.036.3-.635.461-.045.157.16.305-.342.464-.055.146-.742.313.168.466-.062.149-.646.309-.348.468-.066.16.387.308-.43.467-.072.162.384.302-.922.468-.073.152-.179.311.044.464-.074.163.098.314-.653.483-.079.16-.031.322-.09.484-.075.165.325.32-.237.484-.074.17.634.328.337.485-.069.161.811.303.195.451-.021l-.01-.411.02.022c.167.377.324.315.475-.061.168.392.327.367.477-.068.167.32.319.053.477-.074.153-.219.316-.061.476-.078.152-.32.331.55.475-.08.155-.146.312-.266.475-.08.167.37.326.418.472-.082.159.068.32.283.468-.077.166.479.317.327.462-.075.147-.256.305-.084.456-.068.144-.363.312.406.452-.062.153.184.301.096.445-.057.149.096.286-.323.439-.049.151.223.286-.212.434-.04.136-.372.289.065.429-.03.146.154.268-.684.423-.019.161-.118.324-.163.489-.007.168.25.322-.079.483-.005.176.669.312-.313.478 0 .168.443.317.141.471.003.148-.299.312.113.465.005.144-.386.31.124.459.005.152.004.305.059.455.008.144-.405.309.174.457.006l.453.006c.16.352.29-.537.453.005.15.024.296-.136.45.003.145-.235.299-.091.451-.002.146-.14.278-.958.449-.004.16.377.299-.154.453-.008.165.646.319.773.453-.014.149-.097.298-.282.457-.02.16.299.311.201.461-.025.158.229.295-.564.463-.033.153-.15.298-.649.47-.04l.476-.048c.165.242.323.094.482-.061.158.135.314.18.468-.055l.477-.049c.159-.156.325.033.487-.041.166.082.333.236.492-.033.161-.201.343.494.497-.025.16-.257.335.076.499-.018.164-.111.333-.008.5-.01.157-.421.334.082.497-.002.172.217.34.398.495.005.173.368.328.075.488.013.164.129.325.148.481.021.156-.1.32.212.471.028.152-.18.31.005.461.035.159.392.299-.006.446.045.147.076.281-.381.432.051.14-.041.283.287.413.059.124.066.244-.113.372.064.131.309.249.004.376.08.126-.041.25-.128.382.092.132.129.263.245.389.102.137.318.265.184.394.107.128-.204.273.406.4.112.142-.114.288.015.434.122.142-.152.289-.543.437-.388.149.158.296.194.441.113.14-.253.297.266.441.105.157.472.3.236.444.093.15.068.291-.251.448.078.139-.457.292-.842.45-.449.16.41.302-.47.454-.473.177 1.176.31 1.359.454 1.027.139-.604.306.018.458-.02-.011-.443.095-.227.198-.014.103.082.197-.137.2-.014.004.162.037.838.032-.197.033.578.032-.293.035-.196.038-.038.09.119.127-.589.044-.387.089-.523.167-.002.061-.205.125-.5.205-.434.08.112.14-.929.241-.367.092.113.193.406.276-.305.091-.432.19-.666.312-.248.118.338.218-.393.343-.199.133.523.229-.795.375-.156.124-.268.256-.471.403-.119.135-.221.283-.092.433-.089.163.583.309.236.459-.065.082.104.152-.311.239-.025l.245-.021c.089.232.168.023.257.188.087.039.172.01.253-.223.159-.637.351-.044.532-.031.131.023.265.076.396-.023.128-.246.263-.269.403-.023.134-.037.266-.211.405-.031l.412-.04c.15-.371.321.188.472-.054.15-.26.293-.802.463-.062.153.037.316.5.454-.065.146-.212.308.345.447-.073.162.605.287-.412.442-.078.151.18.288-.238.438-.083.153.321.286-.285.437-.089.126-.869.284-.332.436-.094.147.057.288-.203.438-.098.129-.768.291-.105.439-.104.137-.479.285-.465.443-.107.146-.111.293-.34.449-.111.16.331.293-.518.456-.115.156.012.319.328.467-.119.108.516.187-.365.296-.085.083-.821.2.22.312.403.112.238.201-.699.326-.12.104-.308.234.392.337-.128.15-.042.292-.604.459-.173.165.354.316-.128.477-.17.158-.204.33.214.482-.149.172.453.323.069.477-.113.17.611.312-.42.454-.568.149.055.287-.092.423.008.133-.035.259-.012.376.092.077-.455.174.32.242.148.062-.432.155.76.206.227.07.35.112-.427.185.279.036-.986.117.146.178.311.009-.912.05-.432.095.167.036.298.086 1.13.096.166.039.271.067.114.103.163.038.24.082.571.109.156.026-.454.09.645.12.154.042.041.076-.36.133.129.059.626.088-.188.145.055.057.289.113.43.164.171.052-.248.118.097.18.146.055-.305.128.165.188.029.082.762.149.803.197-.056.055-.466.138.118.209.193.07.038.127-.606.214.06.073.021.152.245.223.047.068-.227.151.104.221-.215l.239.297.232-.226c.08.016.163.118.248.287.158-.206.331.233.493.046.16-.254.333.007.501.035.177.393.332-.125.502.029.152-.048.313.398.452.027.146-.092.292-.027.432.029.12-.816.266-.4.402.038.134.272.247-.134.364.05.138.008.272-.063.411.068.131-.272.276.096.412.072.132-.151.262-.429.408.072.064-.219.138.048.206.037.07.119.138.152.203.035.073.245.136.018.205.066.068.049.139.104.203.008.081.104.152-.2.236.033.081.077.156-.082.237.053.072-.242.163.238.235-.041.077-.045.158.01.24.126.075-.114.163.237.242.231.077-.08.151-.293.233-.148.068-.553.152-.314.234-.166l.245.248c.082.088.159-.014.242.125.087.346.155-.211.238-.047.058.171.118.467.17.432.058.17.112.217.163.168.056.068.108.006.15-.524.078-.078.155-.186.241.056.074-.277.164.121.241.015.074-.29.156-.24.239-.136.084.106.169.268.248.2.154-.325.329.208.487.06.158-.229.337.455.49.053.148-.666.322-.186.492.043.165.054.328.001.493.035.165-.025.323-.295.496.027.159-.266.345.613.498.016.159-.26.324-.34.499.006.188.901.33-.158.502-.007.155-.49.344.39.503-.019.155-.628.332-.26.506-.031.165-.195.338-.086.508-.047.011.408.104-.109.213-.022.104-.095.224.517.211-.022l.016-.213c.023.607-.001-.864.015-.213l.005-.084c.139.421.266.237.396.094.127-.24.246-.882.404.09.121-.572.263-.34.408.086.133-.201.264-.474.416.084.135-.129.271-.289.421.08.134-.217.277-.098.422.076.147.246.283-.009.427.075.139-.129.28-.206.429.073.138-.15.294.39.429.072.085.223.144-.715.242.039.07-.418.153-.219.24.041.09.417.168.338.242.043.077-.08.159.016.238.034.087.237.166.19.238-.119.084.159.155-.232.243.198.077-.068.164.238.237.039.074-.166.157 0 .235.037.083.232.16.244.238.26.077.027.152-.018.225-.182.147-.266.308.15.456.078.153.188.297.035.444.08.159.578.296.294.435.081.138-.224.315 1.409.425.084.188.052.385.739.546.099.189.518.366.723.521.07.164-.23.34.177.5.043.165.152.334.51.48.018.164.242.329.648.468-.005.141-.586.301-.218.456-.026.161.4.294-.348.451-.045.144-.256.319.911.447-.063.151.12.317.809.447-.078.152.061.308.2.453-.091.129-1.045.306-.104.462-.102.16.161.32.197.475-.111.004.213.085-.044.198-.049.12.305.251-.25.368-.088.133.77.223.984.199-.049.172-.314.348-.27.522-.127.171-.057.331-.387.501-.119.169.136.347.852.482-.109l.466-.097c.172.81.309.2.452-.085.158.451.291-.199.439-.068.145-.096.292.074.434-.053.135-.406.298.553.427-.031.161.766.291.295.426-.012.14-.112.297.587.427.01.138-.186.282-.113.429.035.08.354.135-.402.218.027.068-.166.13-.645.218.035.062-.482.142-.186.224.123.082.398.155.35.221-.033l.231.275c.083.309.146-.223.226-.155.071-.224.156.142.234.161l.235-.01c.082.072.163.149.24-.027.077-.117.15-.439.249.214.083.073.169.181.253.187.084.007.169-.012.255.034.194.732.371 1.079.512.233.146-.609.325.59.462.205.149.215.283.01.421.177.16 1.147.259-.176.392.151.136.451.252.122.374.129.115-.291.24-.092.365.109.133.535.241-.068.368.088.134.424.248-.082.382.074.123-.314.271.336.404.059.138-.123.285-.04.44.047.135-.848.319.17.485.038.168-.128.346-.233.542.03.047.181.092.338.132.186.023-.801.091.246.13.169.071.769.102-.264.159.208l.123.198c.015.634.096 1.097.149.296.093.861.137-.273.15.297.002.031.138.498.246-.223.122-.156.242.078.246.285.099-.492.212-.434.328-.276.109-.108.233.327.336-.249.094-.993.22-.574.346-.223l.35-.192c.108-.478.232-.288.355-.163.031-.367.07-1.045.136-.213.04-.257.114.925.149.275.02-1.298.107.33.157.266.051-.095.078-1.113.16.273l.144.271c.051.407.086.322.117.278l.122-.663c.062.163.129.604.124.353.001.066.144-.008.282-.244.136-.389.26-1.271.283-.244.101.36.19.156.278-.239.101.102.206 1.335.295.769.106.203.222.631.308-.256.095-.562.196-.855.322-.262.124.533.216-.418.336-.269.133.737.228-.252.348-.272.103-.806.244.049.361-.277.104-.867.228-1.01.373-.279.141.557.272.619.385-.283.134.094.282.654.396-.285.133-.144.269-.75.407-.793.126-.586.268-.649.418-.285.153.469.285-.1.429-.285.143-.168.296.055.438-.283l.447-.281c.155.069.305.387.456.23.164.351.304-.427.466-.272.168.378.317.448.474.239.154-.301.328.204.481-.263.152-.475.317-.462.488-.255.164-.137.347.019.496-.756.139-.119.28-.102.418-.197.128-.5.271-.32.411-.18.122-.705.27-.283.408-.162.13-.223.271.018.401-.146.144.406.276.396.398-.13.132-.006.255-.375.393-.115.077-.069.149-.336.235-.062.081.134.157.085.232-.058.073-.203.151-.18.231-.071.076-.067.151-.156.231-.028.078.078.146-.324.234.119.071-.211.15-.066.224-.201.049-.107.104.018.157.148.044-.317.11.406.155.156.054.143.097-.223.144-.369.07-.258.143-.432.223-.203.072-.166.149-.1.23.156.079.139.15-.016.224-.131.072-.115.146-.193.227.097.152.054.291-.452.45-.021.162.527.286-.616.449-.008.15.048.295-.167.449.003.142-.293.292-.308.449.014.147-.124.302.089.45.022.166.67.31.371.454.029.145-.252.31.33.454.037.146-.27.298-.32.459.041.164.488.31.113.463.047.152-.096.301-.433.467.049.156-.02.337 1.009.473.051.161.562.303.227.448.049.151.044.316.683.454.047.131-.969.3-.203.461.047.158.217.309-.025.466.045.145-.551.315.074.475.041.162.09.34.893.483.038.147-.589.328.13.492.032.071-.197.142-.518.23.012.069-.393.155-.008.233.008.074-.107.162.324.229-.129.071-.291.16.21.237.135.101 1.031.139-.758.233-.002.076-.125.152-.179.235-.003.072-.237.148-.312.23-.134.077-.055.152-.201.238.119.072-.245.158.123.232-.041.082.129.158.027.236.019.041-.452.105.06.164.358.054.017.106.072.156.023.055.105.099-.284.147-.41.048-.17.115.48.159.167.045-.315.1-.167.159.159.055.117.101-.14.146-.357.079.086.156.02.231-.039.076-.059.151-.109.231.006.155-.053.322.393.47-.033.151-.26.32.247.472-.033.148-.416.326.479.473-.027.16.057.311-.238.474-.021.173.645.311-.179.473-.014.146-.449.313-.046.47-.003.149-.337.316.187.469.009.14-.701.309-.077.465.025.153-.034.317.447.461.039.16.377.315.518.455.061.149-.019.303.143.449.082l.022.038v-2385.644c-.012-.062-.074-.143-.135-.18z"/></svg>