<?xml version="1.0" encoding="utf-8"?>
<!-- Generator: Adobe Illustrator 16.0.0, SVG Export Plug-In . SVG Version: 6.00 Build 0)  -->
<!DOCTYPE svg PUBLIC "-//W3C//DTD SVG 1.1//EN" "http://www.w3.org/Graphics/SVG/1.1/DTD/svg11.dtd">
<svg version="1.1" xmlns="http://www.w3.org/2000/svg" xmlns:xlink="http://www.w3.org/1999/xlink" x="0px" y="0px" width="1000px"
	 height="1000px" viewBox="0 0 1000 1000" enable-background="new 0 0 1000 1000" xml:space="preserve">
<g id="Layer_1">
	<path d="M400.143,45.07h-8.297V21.349c0-9.854-9.926-17.858-19.769-17.858c-9.845,0-19.77,8.004-19.77,17.858V45.07H146.703V21.349
		c0-9.854-9.925-17.858-19.77-17.858c-9.846,0-19.77,8.004-19.77,17.858V45.07h-7.846c-32.79,0-55.417,26.095-55.417,58.933v335.651
		c0,32.79,22.627,56.855,55.417,56.855c0,0,119.445,0,159.262,0c0.176,0,183.642-17.497,197.433-117.778
		c0.116-0.844,0.083-274.729,0.083-274.729C456.096,71.165,432.927,45.07,400.143,45.07z M99.317,76.75h7.846v21.992
		c0,9.859,9.924,17.858,19.77,17.858c9.845,0,19.77-7.991,19.77-17.858V76.75h205.603v21.992c0,9.859,9.925,17.858,19.77,17.858
		c9.843,0,19.769-7.991,19.769-17.858V76.75h8.297c13.111,0,24.323,14.095,24.323,27.254v51.946H75.532v-51.946
		C75.532,90.845,86.202,76.75,99.317,76.75z M323.692,327.112c-4.575,4.703-6.224,11.487-4.297,17.765
		c9.048,29.339,7.918,55.16-3.412,75.298c-16.616,29.492-50.947,43.425-59.184,44.654H99.317c-13.115,0-23.786-12.058-23.786-25.175
		V187.629h348.934v158.558l-82.841-23.728C335.341,320.655,328.288,322.413,323.692,327.112z M342.732,444.026
		c1.431-2.147,2.801-4.372,4.124-6.697c12.082-21.253,16.509-45.485,13.289-72.321l61.971,17.812
		C412.875,411.376,378.858,431.145,342.732,444.026z"/>
	<g>
		<path d="M310.011,751.513c-38.407,0-50.882,32.074-50.882,72.461c0,40.388,12.475,72.856,50.882,72.856
			c3.827,0,7.386-0.335,10.711-0.956c1.812-8.258,1.158-16.223,0.431-25.638c-3.29,2.665-6.151,3.232-11.142,3.232
			c-19.206,0-24.748-21.777-24.748-49.495c0-27.322,5.542-48.902,24.748-48.902c17.626,0,23.741,18.189,24.627,42.305
			c1.422,0.06,2.843,0.273,4.226,0.67l22.022,6.308c0-0.127,0.004-0.253,0.004-0.38C360.89,783.587,348.418,751.513,310.011,751.513
			z"/>
		<path d="M189.437,751.513c-27.915,0-46.326,21.185-46.326,47.119c0,25.145,17.224,46.724,44.94,46.724
			c10.098,0,21.58-4.157,26.133-10.296h0.397c-3.366,19.798-15.245,38.409-37.221,38.409c-10.69,0-19.797-4.555-19.797-4.555
			l-7.523,21.978c0,0,11.087,5.938,28.905,5.938c43.555,0,64.739-42.565,64.739-79.982
			C243.683,775.271,218.54,751.513,189.437,751.513z M194.188,824.369c-17.026,0-25.936-11.681-25.936-25.737
			c0-13.266,7.919-23.561,21.184-23.561c14.65,0,27.519,16.436,27.519,34.053C216.955,817.836,206.463,824.369,194.188,824.369z"/>
	</g>
</g>
<g id="Your_Icon">
	<path d="M908.596,27.108C905.3,26.068,826.43,1.996,748.043,1.996c-78.503,0-153.578,24.136-156.752,25.112
		c-3.542,1.161-5.75,4.702-5.199,8.429l67.567,455.927c0.546,3.778,3.729,6.539,7.517,6.539h177.601
		c3.783,0,7.022-2.761,7.571-6.539L913.91,35.54C914.461,31.81,912.198,28.206,908.596,27.108z"/>
	<path d="M859.879,657.569c-0.858-0.545-20.243-13.449-53.504-13.449c-19.135,0-39.136,4.278-59.311,12.715
		c-18.342,7.647-36.329,11.498-53.445,11.498c-28.321,0-44.769-10.7-44.884-10.764c-2.505-1.708-5.818-1.772-8.38-0.184
		c-2.572,1.653-3.912,4.587-3.486,7.646L680.78,961.66c0.549,3.734,3.727,7.34,7.517,7.34h123.402c3.792,0,6.969-3.605,7.515-7.34
		l43.918-296.203C863.544,662.524,862.268,659.218,859.879,657.569z"/>
</g>
</svg>
