<?xml version="1.0" encoding="utf-8"?>
<!-- Generator: Adobe Illustrator 16.0.0, SVG Export Plug-In . SVG Version: 6.00 Build 0)  -->
<!DOCTYPE svg PUBLIC "-//W3C//DTD SVG 1.1//EN" "http://www.w3.org/Graphics/SVG/1.1/DTD/svg11.dtd">
<svg version="1.1" id="Layer_1" xmlns="http://www.w3.org/2000/svg" xmlns:xlink="http://www.w3.org/1999/xlink" x="0px" y="0px"
	 width="1000px" height="1000px" viewBox="0 0 1000 1000" enable-background="new 0 0 1000 1000" xml:space="preserve">
<path fill="#A84F4F" d="M457.106,564.893c-57.191-57.191-149.915-57.189-207.106,0c-57.191-57.189-149.917-57.191-207.107,0
	c-57.192,57.191-57.19,149.914,0,207.105L250,979.105l207.106-207.107C514.297,714.809,514.298,622.082,457.106,564.893z
	 M205.67,800.674C175.75,791.809,89.446,753.92,187.252,628c52.889,35.893,73.268,67.473,77.041,93.57
	c-25.297,9.06-42.714,26.672-40.544,58.541c-13.778-32.77-24.588-78.09-29.226-106.346
	C192.198,706.773,197.067,765.484,205.67,800.674z M253.857,818.748c10.295-20.037,23.547-38.123,40.314-53.393
	c-20.571,11.391-38.891,25.838-54.64,43.23c-7.282-20.244-22.412-86.057,90.635-82.428
	C333.483,829.543,278.727,825.729,253.857,818.748z"/>
<path fill="#A84F4F" d="M457.106,64.893C399.915,7.701,307.191,7.704,250,64.894C192.809,7.703,100.083,7.702,42.893,64.893
	c-57.192,57.191-57.19,149.915,0,207.105L250,479.105l207.106-207.106C514.297,214.809,514.298,122.083,457.106,64.893z
	 M250.001,375.555L94.669,220.223c-28.594-28.596-28.594-74.957,0.002-103.554c28.594-28.595,74.958-28.595,103.554,0.001
	L250,168.445l51.776-51.776c28.595-28.595,74.956-28.595,103.553,0.001c28.596,28.596,28.598,74.959,0.002,103.555L250.001,375.555z
	"/>
<path fill="#A84F4F" d="M957.106,564.893c-57.191-57.191-149.915-57.189-207.106,0c-57.191-57.189-149.916-57.191-207.107,0
	s-57.19,149.914,0,207.105L750,979.105l207.106-207.107C1014.297,714.809,1014.298,622.082,957.106,564.893z M705.67,800.674
	C675.75,791.809,589.445,753.92,687.252,628c52.889,35.893,73.268,67.473,77.041,93.57c-25.297,9.06-42.715,26.672-40.544,58.541
	c-13.778-32.77-24.589-78.09-29.226-106.346C692.197,706.773,697.067,765.484,705.67,800.674z M753.857,818.748
	c10.295-20.037,23.547-38.123,40.314-53.393c-20.571,11.391-38.891,25.838-54.64,43.23c-7.282-20.244-22.412-86.057,90.635-82.428
	C833.483,829.543,778.727,825.729,753.857,818.748z"/>
<path fill="#A84F4F" d="M957.106,64.893C899.915,7.701,807.191,7.704,750,64.894c-57.191-57.19-149.916-57.191-207.107-0.001
	c-57.191,57.191-57.19,149.915,0,207.105L750,479.105l207.106-207.106C1014.297,214.809,1014.298,122.083,957.106,64.893z
	 M750.001,375.555L594.669,220.223c-28.594-28.596-28.595-74.957,0.002-103.554c28.595-28.595,74.958-28.595,103.554,0.001
	L750,168.445l51.776-51.776c28.595-28.595,74.956-28.595,103.553,0.001c28.596,28.596,28.598,74.959,0.002,103.555L750.001,375.555z
	"/>
</svg>
