<svg xmlns="http://www.w3.org/2000/svg" width="500" height="500"><path fill-rule="evenodd" clip-rule="evenodd" fill="#fff" d="M166.666 416.668h250.003v-250c0-46.023-37.312-83.332-83.336-83.332s-83.333 37.309-83.333 83.332v83.332h-83.331c-46.025 0-83.335 37.31-83.335 83.333 0 46.024 37.309 83.333 83.332 83.335m333.334-250.001v333.333h-333.334c-92.047 0-166.666-74.617-166.666-166.666 0-92.047 74.62-166.666 166.667-166.666.002-92.047 74.618-166.667 166.666-166.667 92.048-.001 166.666 74.62 166.667 166.666zm-500-166.667c81.634.001 239.862 35.786 158.956 139.858l-117.252-98.154 98.155 117.252c-104.073 80.906-139.859-77.321-139.859-158.956"/></svg>