<?xml version="1.0" encoding="utf-8"?>
<!-- Generator: Adobe Illustrator 16.0.0, SVG Export Plug-In . SVG Version: 6.00 Build 0)  -->
<!DOCTYPE svg PUBLIC "-//W3C//DTD SVG 1.1//EN" "http://www.w3.org/Graphics/SVG/1.1/DTD/svg11.dtd">
<svg version="1.1" xmlns="http://www.w3.org/2000/svg" xmlns:xlink="http://www.w3.org/1999/xlink" x="0px" y="0px" width="1000px"
	 height="1000px" viewBox="0 0 1000 1000" enable-background="new 0 0 1000 1000" xml:space="preserve">
<g id="Layer_1">
	<path d="M400.143,45.07h-8.297V21.349c0-9.854-9.926-17.858-19.769-17.858c-9.845,0-19.77,8.004-19.77,17.858V45.07H146.703V21.349
		c0-9.854-9.925-17.858-19.77-17.858c-9.846,0-19.77,8.004-19.77,17.858V45.07h-7.846c-32.79,0-55.417,26.095-55.417,58.933v335.651
		c0,32.79,22.627,56.855,55.417,56.855c0,0,119.445,0,159.262,0c0.176,0,183.642-17.497,197.433-117.778
		c0.116-0.844,0.083-274.729,0.083-274.729C456.096,71.165,432.927,45.07,400.143,45.07z M99.317,76.75h7.846v21.992
		c0,9.859,9.924,17.858,19.77,17.858c9.845,0,19.77-7.991,19.77-17.858V76.75h205.603v21.992c0,9.859,9.925,17.858,19.77,17.858
		c9.843,0,19.769-7.991,19.769-17.858V76.75h8.297c13.111,0,24.323,14.095,24.323,27.254v51.946H75.532v-51.946
		C75.532,90.845,86.202,76.75,99.317,76.75z M323.692,327.112c-4.575,4.703-6.224,11.487-4.297,17.765
		c9.048,29.339,7.918,55.16-3.412,75.298c-16.616,29.492-50.947,43.425-59.184,44.654H99.317c-13.115,0-23.786-12.058-23.786-25.175
		V187.629h348.934v158.558l-82.841-23.728C335.341,320.655,328.288,322.413,323.692,327.112z M342.732,444.026
		c1.431-2.147,2.801-4.372,4.124-6.697c12.082-21.253,16.509-45.485,13.289-72.321l61.971,17.812
		C412.875,411.376,378.858,431.145,342.732,444.026z"/>
	<g>
		<path d="M310.011,751.513c-38.407,0-50.882,32.074-50.882,72.461c0,40.388,12.475,72.856,50.882,72.856
			c3.827,0,7.386-0.335,10.711-0.956c1.812-8.258,1.158-16.223,0.431-25.638c-3.29,2.665-6.151,3.232-11.142,3.232
			c-19.206,0-24.748-21.777-24.748-49.495c0-27.322,5.542-48.902,24.748-48.902c17.626,0,23.741,18.189,24.627,42.305
			c1.422,0.06,2.843,0.273,4.226,0.67l22.022,6.308c0-0.127,0.004-0.253,0.004-0.38C360.89,783.587,348.418,751.513,310.011,751.513
			z"/>
		<path d="M189.437,751.513c-27.915,0-46.326,21.185-46.326,47.119c0,25.145,17.224,46.724,44.94,46.724
			c10.098,0,21.58-4.157,26.133-10.296h0.397c-3.366,19.798-15.245,38.409-37.221,38.409c-10.69,0-19.797-4.555-19.797-4.555
			l-7.523,21.978c0,0,11.087,5.938,28.905,5.938c43.555,0,64.739-42.565,64.739-79.982
			C243.683,775.271,218.54,751.513,189.437,751.513z M194.188,824.369c-17.026,0-25.936-11.681-25.936-25.737
			c0-13.266,7.919-23.561,21.184-23.561c14.65,0,27.519,16.436,27.519,34.053C216.955,817.836,206.463,824.369,194.188,824.369z"/>
	</g>
</g>
<g id="Your_Icon">
	<path d="M908.233,26.214C904.927,25.168,825.737,1,747.033,1c-78.814,0-154.196,24.234-157.382,25.214
		c-3.555,1.165-5.772,4.72-5.218,8.462l67.838,457.763c0.55,3.793,3.745,6.561,7.549,6.561h178.313c3.798,0,7.052-2.767,7.602-6.561
		l67.833-457.763C914.123,30.934,911.852,27.315,908.233,26.214z M747.033,16.339c53.691,0,108.832,11.971,137.205,19.188
		c-27.391,7.234-80.085,18.969-133.266,18.969c-53.729,0-108.86-11.979-137.204-19.191
		C641.193,28.069,693.896,16.339,747.033,16.339z M831.563,483.671h-165.12L601.912,48.096
		c25.586,6.938,87.472,21.739,149.061,21.739c61.143,0,120.188-14.575,145.098-21.576L831.563,483.671z"/>
	<path d="M859.226,656.616c-0.86-0.547-20.304-13.49-53.667-13.49c-19.195,0-39.256,4.291-59.492,12.754
		c-18.398,7.67-36.441,11.533-53.609,11.533c-28.411,0-44.907-10.732-45.024-10.797c-2.509-1.714-5.836-1.777-8.403-0.184
		c-2.578,1.658-3.925,4.6-3.497,7.669l44.047,296.692c0.55,3.74,3.735,6.507,7.538,6.507h123.781c3.804,0,6.989-2.767,7.539-6.507
		l44.052-296.692C862.902,661.159,861.623,658.271,859.226,656.616z"/>
</g>
</svg>
