<svg xmlns="http://www.w3.org/2000/svg" width="500" height="1000"><path fill="#A84F4F" d="M457.106 563.893c-57.191-57.191-149.915-57.189-207.106 0-57.191-57.189-149.917-57.191-207.107 0-57.192 57.191-57.19 149.914 0 207.105l207.107 207.107 207.106-207.107c57.191-57.189 57.192-149.916 0-207.105zm-251.436 235.781c-29.92-8.865-116.224-46.754-18.418-172.674 52.889 35.893 73.268 67.473 77.041 93.57-25.297 9.06-42.714 26.672-40.544 58.541-13.778-32.77-24.588-78.09-29.226-106.346-2.325 33.008 2.544 91.719 11.147 126.909zm48.187 18.074c10.295-20.037 23.547-38.123 40.314-53.393-20.571 11.391-38.891 25.838-54.64 43.23-7.282-20.244-22.412-86.057 90.635-82.428 3.317 103.386-51.439 99.572-76.309 92.591z"/><path fill="#A84F4F" d="M457.106 63.893c-57.191-57.192-149.915-57.189-207.106.001-57.191-57.191-149.917-57.192-207.107-.001-57.192 57.191-57.19 149.915 0 207.105l207.107 207.107 207.106-207.106c57.191-57.19 57.192-149.916 0-207.106zm-207.105 310.662l-155.332-155.332c-28.594-28.596-28.594-74.957.002-103.554 28.594-28.595 74.958-28.595 103.554.001l51.775 51.775 51.776-51.776c28.595-28.595 74.956-28.595 103.553.001 28.596 28.596 28.598 74.959.002 103.555l-155.33 155.33z"/></svg>