<svg xmlns="http://www.w3.org/2000/svg" width="500" height="2400"><g fill="#383333">
  <path d="M269.706 2394.053c.001.079.015.181.058.33l-.058-.33zM249.939 2397.843l.077.125-.077-.125zM318.632 2398.05l-.055-.222.055.222zM302.576 2396.315l-.007-.008.007.008zM500 4.849v2385.121s-7.889.228-7.91.303c.155-.544-2.577-.185-3.173-.952.378.487-1.635.679-1.27.746-1.39-.256-5.7-1.494-6.918-.417.023.031-6.858 2.419-7.521 2.832-.785.488-.643 2.034-1.186 2.266-.149-.281-.284-.569-.405-.865-.045.039-1.224 1.212-1.407 1.325l-.277 1.03c-.289-.117-.356-.948-.456-1.049-.246 1.107-.237-.216-.332-.24-.23-.061-.241 1.66-.636.615-.058.251-.09.506-.098.765.009-.104-.017-.128-.075-.071-.235-.298-.174-.997-.276-1.287-.051.141-.082.285-.094.435l-.055-.347c-.073.17-.411-.14-.333-.537-.012.061-.522.944-.523.943-.108-.15-.185-.326-.421-.426.314.132-1.139 1.311-1.234 1.25-.054-.034-.553-.836-.323-.078-.146-.483-.334-.962-.412-1.447-.031-.188-3.601-.312-3.801-.248 1.074-.346-2.218-1.188-1.262-.383-.476-.4-2.667-1.961-2.761-1.812-.44.699-3.568.506-3.666.345.162.269-2.421.87-1.699 1.284-.22-.126-.93-.969-1.519-.793-.96.287-4.276 1.688-5.041 1.088-.997-.78-2.11-1.009-3.402-.863-.279.032-3.892-1.291-3.774-1.414-.105.111-.354 1.021-.586.315l-.011-.016c0 .018-.117.649-.086.703-.389-.69-6.803.311-6.957.121.041-.039-.951-1.054-1.181-1.105-1.173-.267-2.832.292-4.157-.808-.463-.383-3.629.892-4.062-.265-.204.181-.266.427-.185.741-.13.008-1.442-2.23-1.291-1.191l-.075-.773-.206-.655c-.479-.679-4.32 1.624-4.658.483.173.584-3.392.523-3.361.547.342.255-6.509 1.291-6.386 1.117-.963 1.367-3.937.257-3.507 3.398-.181-1.324-1.015.768-1.33-1.331-.243.005-6.446 1.825-7.153.086-.806-.161-3.765.429-4.139.06-1.201-1.186-4.568.96-5.198.842.153.029-.98-.853-.926-.931-.467.659-13.217 1.253-13.131 1.364.077.306.007.574-.211.807-1.061 1.139-7.167-.265-9.138-.046-2.174.242-8.52-.22-10.375.924-.777.479-3.582-.92-4.399-.367-.392-.859-4.579-.411-4.445-.359.176.067-2.274-1.362-2.107-.543.201.782-1.363 1.874-.984 2.297-.138-.153-.163-.528-.373-.599-.184.184-5.259 1.342-5.388 1.467-.481.472-4.596-1.209-5.53.016-.33.431-4.627 1.967-4.789 1.706.006.011-1.9-2.055-2.154-1.658-.101.263-.156.534-.167.817-.075-.172-.137-.146-.185.082.011-.02-.179-.776-.275-1.162.027.056-.149-.84-.186.001.007.064-.167-.533-.223-.763.023.213-.276.477-.26.679-.006-.049-.501-1.152-.344-1.065l-.381-.162c.014.054-.36.668-.292.703-1.616-.831-11.608-3.062-13.735-1.354.665-.534-.724-.496-.701-.454l.059.673c-.097-.45-5.654-.5-5.865-.816-1.42-2.138-6.764-.019-7.384-.32-.271-.133-1.073-.354-1.273-.715-.06.278-.166.536-.317.775-.119-.152-.229-.311-.331-.475-.202.647-.774.287-1.127.076.498.331-1.34.026-1.078.115-.128.363-.274.72-.44 1.068-.174-.299-.327-.609-.459-.929-.08.328-.226.622-.435.883-1.684-.944-5.78-1.333-6.294-1.388-.106-.421-.226-.839-.356-1.254-.191.445-.294.913-.308 1.401.023-.007-.402-1.333-.459-1.276-.27.273-2.699.07-2.911.173l-.164-.849c-.042.366-.071.734-.088 1.103-.041-.557-.208-.154-.178.103-.105-.91-.795.281-.84.113-.008-.028-.196-1.144-.487-1.116-.404.037-1.042 1.023-1.34 1.633-.024-.313-.044-.368-.057-.161-.038-.316-.062-.633-.069-.951l-.021.293-.061-.215-.521.474-.05-.288-.241.477c-.138-.168-.282-1.412-.323-1.593.102.446-.231.194-.308.125.322.247-2.274 1.702-2.349 1.975-.11-.214-.203-.436-.277-.664-.969-.823-7.442 6.81-9.703 3.482-.543-.054-1.843 1.146-1.871 1.144-1.219-.102.287-.793-1.354-.04.71-.325-3.231-1.177-3.291-.827-.137-.2-.27-.404-.382-.619-1.583.897-4.887-1.047-5.934-.169-.698.586-2.979 1.541-3.608 1.346-1.146-.355-5.246-1.683-5.52-2.159-1.141-1.987-3.355-2.611-4.912-1.403-.392.304-8.537.154-8.484.255.101.191-2.918-.854-2.995-.78-.415.397-5.371.223-5.395-.483 0 .01-.636.723-.612.73-.065-.021-3.282-.778-3.31-.748-.721.783-2.71.698-3.992.375-.056-.015-.479.646-.456.703-.048-.12-.789-.756-.94-.745-.05.003-.629.807-.574.911-.355-.682-1.325-.683-1.765-.266-.331.313-3.468-.43-4.388-.562-.192-.027-3.822 1.041-3.825 1.038-.658-.575-6.631-.88-7.042-.439.247-.265-2.62-2.208-3.091-1.489-.21-.379-.337-.786-.379-1.224.001.397-.124.739-.375 1.024.578-.568-4.274-.294-3.534-.01-.989-.381-4.706-.246-4.658-.203-.576-.525-8.401-2.129-10.067-1.74-.176-.23-.336-.472-.481-.724-.246.212-10.015.575-10.022.561-.242 1.348-8.759-.259-10.853-.065-1.641.152-9.148-1.477-8.879-.417-.513-.523-4.265.519-4.717.62.265.416-3.785-.455-3.708-.463-2.168.21-8.521-.322-10.387.798-.782.47-3.575-.964-4.394-.42-.377-.863-4.575-.468-4.44-.413.208.084-2.027-.725-2.094-1.076.159.645-1.413 2.11-1.066 2.416l-.29-.193c-.339.298-5.399 1.654-5.237 1.306-.153-.186-5.467.179-5.734.519-1.203 1.532-4.207.654-5.393 1.39-1.856 1.149-2.204-1.498-2.571-2.509.08.22-.283.505-.268.722-.005-.047-.49-1.157-.332-1.067l-.379-.168c.013.054-.368.664-.3.7-1.624-.845-11.562-3.212-13.719-1.52.671-.526-.717-.505-.695-.463.001.255.009.509.024.763l.04.126c0-.922-5.69-.828-5.868-1.103-1.393-2.156-6.764-.1-7.379-.409-.271-.136-1.068-.366-1.265-.729-.062.277-.17.534-.326.771-.116-.155-.225-.314-.326-.479-.21.645-.777.277-1.127.062.491.335-1.337.012-1.08.103-.132.362-.283.716-.453 1.062-.17-.301-.32-.612-.448-.934-.085.326-.234.619-.445.879-1.68-.966-5.761-1.403-6.277-1.465-.101-.423-.215-.842-.341-1.258-.198.443-.306.909-.325 1.397.023-.007-.387-1.337-.443-1.282-.277.273-2.779.029-2.925.142-.022-.111-.124-.669-.162-.99-.119.001-.28.016-.248.321-.041-.38-1.017-.027-1.328-.003-.124.009-1.19.78-1.354 1.108-.02-.313-.038-.367-.055-.162-.034-.316-.053-.633-.057-.951l-.024.292c-.062-.148-.083-.306-.063-.473-.059.12-.098.247-.119.381-.09-.358-.532-1.344-.431-1.468-.17.21-.071.67-.251.849.04-.04-.167-.685-.315-.712-1.027-.19-4.477 4.437-6.486 4.909-1.973.464-5.354 2.452-6.224 1.135-.587-.045-1.816 1.128-1.885 1.121-1.219-.116.298-.785-1.354-.057.715-.315-3.212-1.211-3.28-.866-.135-.202-.265-.407-.375-.624-1.599.879-4.867-1.107-5.932-.241-.348.283-1.964.615-2.92.746l-5.917-1.038v-2387.172l2.156.355c1.623.437 10.561-1.839 9.581 1.296.326-1.042 2.573.245 3.15 1.024-.367-.496 1.651-.642 1.287-.717 1.246.26 6.321 1.751 7.492.559.809-.825 3.291-.369 4.052-1.763.547-.698 4.14-3.099 4.184-3.117.143.285.271.576.386.873.057-.046 1.821-1.727 1.416-1.222.727-.907.342-.789.92-1.45.162.138.21.323.185.538.087-.257.532-.891.532-.847 0 .346.368 1.489.528 1.976.054-.14.088-.284.104-.433l.048.366c.026-.067.082-.105.175-.104.072.251.104.51.12.771.12-.147.754-.279.557-.564.106.153.177.33.412.435-.48-.214 1.575-1.525 1.273-1.728.051.034.535.848.321.084.136.484.312.972.379 1.457.026.188 3.591.395 3.795.334-1.082.321 2.188 1.237 1.252.412.466.411 2.621 2.021 2.719 1.875.457-.689 3.578-.425 3.672-.261-.159-.277 2.444-.809 1.729-1.245.215.131.907.991 1.5.827.964-.265 4.315-1.589 5.065-.973.976.802 2.088 1.06 3.381.941.278-.026 3.862 1.379 3.742 1.5.108-.109.375-1.013.593-.302l.01.015c0-.017.131-.646.102-.701.375.701 6.807-.155 6.957.039-.039.035.928 1.074 1.157 1.132 1.166.294 2.837-.227 4.138.901.454.393 3.647-.808 4.055.358.209-.174.277-.42.202-.737-.046.001 1.413 2.948 1.264 1.73.02.319.05.637.091.955.105-.318.169-.479.209-.559l.005-.371c.187 2.293 7.302-.479 7.983.055-.336-.264 6.539-1.144 6.411-.971.922-1.247 4.017-.243 3.594-3.825.143 1.21.75-.096 1.096.023.172.059.445 1.079.904 1.229.023.008 3.081-1.258 3.644.139.009-.01 3.387.532 3.49.59 2.24 1.262 6.944-1.084 8.662-.724-.152-.032.961.876.904.953.496-.667 13.278-.884 13.158-1.064v-.671c1.253.498 3.83 1.147 5.136 1.553 1.914.594 6.156-.706 8.524.637-.384-.218 1.651-1.019 1.42-1.062.787.148 3.698-.28 4.763.262-.43-.218 4.538-.274 3.964-.005.76-.356.036-.591.812.07-.899-.767 5.796.031 5.307.287.09-.048.468-.479.548-.561-.103.104 9.772 2.188 9.701 2.171-1.181-.288 2.708-.298 1.291.098 1.38-.386 3.085.075 4.348-.013 1.213-.085 4.285-.691 5.208 1.134 1.599.277 4.993.28 5.805 1.047.4.378 6.907-1.367 7.905-1.25.134.283.274.563.422.84.1-.012.636-.051.631.072.121-.193.412-.7.35-.751.2-.036 1.337.238 1.485.76-.384-1.046 1.111-.426 1.391-.251.264-.042 1.203-.068.924.062.957-.324 2.075-1.159 2.503-1.243-.124.024 3.893 1.7 4.395.586 1.026.317 2.214-.026 3.434.56.118-.265.262-.516.43-.752.253.357 4.99 1.196 4.797 1.42.291-.337 6.981-1.115 6.902-1.167.573.375.831.239 1.397-.361-.135.144 4.003-.11 4.457.775.901 1.759 4.375 2.32 4.805 2.504.33.142 3.148 1.79 3.438.932.234.246 2.979-.989 2.976-.996.099.577.538.065.465-.078.011-.01 1.338 1.093 1.643.067-.161.543 2.575.213 3.162.987-.373-.492 1.644-.661 1.278-.733.056.011 5.572 1.221 5.915.461.324 1.432 9.821-2.771 9.797-4.084.088.344.204.677.359.996.058-.048 1.798-1.745 1.401-1.239.456-.581.13-1.157.613-1.188.509-.033.477 1.585.527 1.572.375-.098.429-1.345.673-1.342.181.002.122.466.354 1.149.052-.14.084-.285.098-.434.046.252.083.506.11.761-.006-.26.033-.512.117-.756.188.062.248.218.195.458.201-.129.657-.268.483-.512.106.149.185.33.418.429-.084-.39.009-.605.278-.646-.014-.045.142 1.033.396.91.034-.016.613-.968.579-.99.197.128.206.257.227.469.116-1.483.391-.62.492.047.028.189 3.597.35 3.798.289-1.079.331 2.204 1.212 1.257.397.472.406 2.646 1.989 2.741 1.841.447-.694 3.572-.469 3.669-.305-.159-.27 2.43-.845 1.713-1.266.217.127.92.979 1.51.809.962-.277 4.297-1.64 5.053-1.033.984.789 2.104 1.034 3.393.9.28-.029 3.879 1.332 3.76 1.454.107-.11.362-1.018.589-.309l.01.015c0-.017.124-.646.094-.702.383.697 6.805-.238 6.958-.046-.04.037.94 1.063 1.17 1.119 1.169.28 2.833-.26 4.148.851.462.391 3.636-.854 4.059.31.207-.177.271-.424.192-.74.018-.001 1.169 1.651 1.136 1.432-.14-.2.178-.984.143-1.242l.067.774.198.657c-.077-.113 1.662.323 1.932 1.335.771-.898 5.564-1.671 6.099-1.264-.373-.285 6.51-.695 6.398-.54.909-1.26 4.007-.288 3.548-3.868.041.317.052.878.354 1.087-.02-.013 1.067-.658.814-.852.272.209.332.833.84.992.027.009 3.071-1.297 3.651.095.008-.009 3.394.49 3.497.547 2.255 1.237 6.932-1.171 8.652-.827-.151-.03.972.864.915.941.473-.652 13.223-1.123 13.146-1.222 0-.008-.069-.999.119-.825.785.723 4.319-.915 4.863-.364-.182-.641 4.014.347 4.177.327 2.168-.26 8.523.126 10.365-1.036.774-.488 3.592.881 4.403.32.585 1.253 4.577-.148 4.448-.196.407.153.625 2.19 1.188-.045 1.34-.282-.038-.299 1.146-1.076.044.179.093.186.146.02-.213-.58.323.886.424.743.024-.362.099-.713.223-1.054.385.323.806-.198.657-.379.661.805 10.521-.945 10.563-1.001 1.166-1.559 6.81-2.332 7.588.242.043.189.148.501.169-.113-.007-.067.172.524.232.758l.251-.678c.007.048.514 1.146.355 1.061l.383.159c-.015-.054.352-.673.284-.708 1.633.81 11.639 2.944 13.75 1.206-.657.541.728.487.705.447-.015-.284-.016-.568-.003-.852-.154.325 5.887 1.045 5.811.933 1.433 2.124 6.772-.053 7.388.24.274.131 1.076.34 1.281.701.056-.279.158-.538.308-.779.121.151.233.309.337.472.195-.65.771-.296 1.126-.089-.502-.327 1.342-.04 1.078-.126.124-.365.267-.723.428-1.073.177.297.333.605.469.923.078-.328.219-.624.425-.888 1.701.924 5.791 1.271 6.309 1.32.111.42.234.836.37 1.25.187-.448.284-.916.293-1.404-.023.007.417 1.328.473 1.271.268-.278 2.769-.1 2.919-.208.021.107.141.666.188.987.118-.004.277-.025.238-.327.041.315.983.515 1.327.48.396-.04 1.04-1.036 1.328-1.647.027.312.047.366.059.16.039.316.065.632.077.951l.019-.293.067.223c.014-.261.086-.46.218.499.019-.2.305-.622.249-.809l.114.617c.167-.214.055-.673.231-.854.065-.067.33 1.561.428.228.178.246.252.53.223.853-.166-.737 2.471-1.368 2.592-1.468 1.497-1.226 8.205-6.298 9.658-4.226.582.034 1.794-1.168 1.859-1.164 1.222.087-.28.788 1.354.025-.708.33 3.242 1.139 3.3.791.14.199.274.401.39.616 1.576-.917 4.893.996 5.935.104.463-.396 3.114-1.376 4.057-1.381l1.343 1.827zM419.606 4.832l.042.112c-.073-.314-.072-.241-.042-.112zM488.275 3.681l-.078-.124.078.124zM15.144 2392.798l.075.125-.075-.125z"/></g></svg>