<?xml version="1.0" encoding="utf-8"?>
<!-- Generator: Adobe Illustrator 16.0.0, SVG Export Plug-In . SVG Version: 6.00 Build 0)  -->
<!DOCTYPE svg PUBLIC "-//W3C//DTD SVG 1.1//EN" "http://www.w3.org/Graphics/SVG/1.1/DTD/svg11.dtd">
<svg version="1.1" xmlns="http://www.w3.org/2000/svg" xmlns:xlink="http://www.w3.org/1999/xlink" x="0px" y="0px" width="1000px"
	 height="1000px" viewBox="0 0 1000 1000" enable-background="new 0 0 1000 1000" xml:space="preserve">
<g id="Layer_1">
	<path d="M205.67,800.674C175.75,791.809,89.446,753.92,187.252,628c52.889,35.893,73.268,67.473,77.041,93.57
		c-25.297,9.06-42.714,26.672-40.544,58.541c-13.778-32.77-24.588-78.09-29.226-106.346
		C192.198,706.773,197.067,765.484,205.67,800.674z"/>
	<path d="M253.857,818.748c10.295-20.037,23.547-38.123,40.314-53.393c-20.571,11.391-38.891,25.838-54.64,43.23
		c-7.282-20.244-22.412-86.057,90.635-82.428C333.483,829.543,278.727,825.729,253.857,818.748z"/>
	<path fill="#FEFEFE" d="M457.106,64.893C399.915,7.701,307.191,7.704,250,64.894C192.809,7.703,100.083,7.702,42.893,64.893
		c-57.192,57.191-57.19,149.915,0,207.105L250,479.105l207.106-207.106C514.297,214.809,514.298,122.083,457.106,64.893z"/>
</g>
<g id="Your_Icon">
	<path fill="#FEFEFE" d="M909.871,25.315C906.551,24.265,827.045,0,748.027,0c-79.135,0-154.814,24.331-158.015,25.315
		c-3.569,1.169-5.796,4.739-5.239,8.496l68.11,459.597c0.55,3.809,3.76,6.592,7.578,6.592H839.49c3.814,0,7.08-2.783,7.633-6.592
		l68.105-459.595C915.785,30.054,913.504,26.421,909.871,25.315z"/>
	<path d="M860.668,656.24c-0.865-0.549-20.387-13.545-53.883-13.545c-19.271,0-39.414,4.309-59.731,12.805
		c-18.472,7.701-36.587,11.58-53.825,11.58c-28.521,0-45.086-10.776-45.201-10.84c-2.523-1.721-5.859-1.785-8.439-0.186
		c-2.59,1.665-3.94,4.619-3.511,7.7l44.222,298.794c0.554,3.76,3.754,7.451,7.57,7.451h124.277c3.818,0,7.018-3.691,7.568-7.451
		l44.229-298.335C864.359,661.26,863.074,657.9,860.668,656.24z"/>
</g>
</svg>
